<ttFont>
          <CharString index="0">
            rmoveto
            -7 -5 -9 -6 -13 -7 -15 -7 -10 -3 -3 2 rrcurveto
            -1 0 2 3 14 8 32 16 51 hvcurveto
            -58 1 rlineto
            -17 -67 -9 -46 -25 vvcurveto
            -11 2 -5 4 vhcurveto
            13 -2 17 3 22 7 23 7 17 9 11 10 return
          </CharString>
          <CharString index="1">
            191 rmoveto
            9 41 4 33 27 vvcurveto
            38 -9 27 -17 15 vhcurveto
            -16 13 -25 7 -35 1 -53 1 -48 -18 -43 -37 rrcurveto
            19 -1 12 -3 5 vhcurveto
            12 -5 -13 6 -19 hhcurveto
            -18 -25 -10 -19 -31 hvcurveto
            -24 -15 -15 -12 -7 -7 17 -43 rcurveline
            10 7 10 8 11 8 rrcurveto
            12 17 12 6 7 hhcurveto
            7 4 -5 -11 -19 -24 -104 -47 -190 hvcurveto
            65 hlineto
            32 149 21 96 9 42 13 9 12 10 13 9 29 17 32 9 34 -1 rrcurveto
            37 -1 19 -22 -44 vvcurveto
            -17 -3 -26 -7 -37 vhcurveto
            -84 -370 rlineto
            70 hlineto
            return
          </CharString>
          <CharString index="2">
            rmoveto
            -34 1 -22 0 -11 -3 -14 -4 -10 -11 -5 -18 -7 -29 -6 -30 -6 -29 -14 -61 -14 -45 -15 -29 -16 -33 -22 -23 -28 -13 -15 -7 -16 -3 -18 -1 rrcurveto
            -5 -5 0 1 -6 hvcurveto
            -43 8 -21 30 53 vvcurveto
            63 11 69 22 75 vhcurveto
            11 39 rlineto
            -93 hlineto
            -10 -45 9 -2 7 -2 6 -1 rlinecurve
            1 -1 -5 -31 -11 -59 -11 -63 -5 -46 2 -27 rrcurveto
            -79 5 44 -40 83 hhcurveto
            83 62 40 79 42 hvcurveto
            9 17 12 41 17 65 27 102 rcurveline
            3 5 9 2 14 -1 return
          </CharString>
          <CharString index="3">
            301 -98 callsubr
            59 -24 74 -1 86 -1 78 31 69 62 67 61 43 73 18 87 rrcurveto
            -75 1 rmoveto
            -15 -68 -32 -58 -49 -47 rrcurveto
            -51 -52 -59 -25 -65 hhcurveto
            -112 -64 69 108 81 28 76 55 69 hvcurveto
            75 59 68 37 79 hhcurveto
            113 56 -59 -117 -28 -3 -30 -7 -32 hvcurveto
            return
          </CharString>
          <CharString index="4">
            rmoveto
            2 -31 -16 -92 -34 -151 rrcurveto
            -350 hlineto
            27 140 24 91 20 43 rrcurveto
            -93 hlineto
            1 -25 -5 -42 -11 -61 -13 -61 -14 -62 -13 -61 4 callsubr
            -60 -52 callsubr
            93 hlineto
            -1 28 16 95 35 162 rrcurveto
            349 hlineto
            -34 -157 -24 -95 -14 -33 21 callgsubr
            31 18 103 37 176 rrcurveto
            26 121 13 62 2 vvcurveto
            14 69 callsubr
            rrcurveto
            endchar
          </CharString>
          <CharString index="5">
            187 rmoveto
            4 18 2 17 17 vvcurveto
            95 -61 60 -101 -61 -53 -18 -36 -46 vhcurveto
            -45 -35 -29 -46 -13 -40 callsubr
            15 -39 29 -29 vhcurveto
            -31 30 41 -16 52 hhcurveto
            58 50 16 32 43 hvcurveto
            47 35 31 49 13 63 rrcurveto
            -63 6 rmoveto
            -89 -20 -66 -57 -79 hhcurveto
            -71 -46 44 68 11 1 12 3 12 hvcurveto
            9 42 21 -60 callsubr
            41 hhcurveto
            68 40 -43 -65 -13 -2 -13 -3 -14 hvcurveto
            return
          </CharString>
          <CharString index="6">
            14 callgsubr
            -43 -44 -9 -45 rrcurveto
            -99 callsubr
            return
          </CharString>
          <CharString index="7">
            rmoveto
            -88 -177 45 -13 98 167 rlineto
            -133 14 rmoveto
            31 callgsubr
            -8 hhcurveto
            -43 -32 -28 callsubr
            -17 -19 -9 -21 -22 vvcurveto
            -17 5 -15 9 -11 vhcurveto
            19 -24 29 -11 41 3 6 28 rcurveline
            -19 -5 -16 3 -14 10 rrcurveto
            -8 5 -4 9 11 vvcurveto
            23 10 17 21 9 vhcurveto
            18 8 18 3 17 -1 rrcurveto
            return
          </CharString>
          <CharString index="8">
            68 -20 -46 34 -72 hhcurveto
            -63 -54 -19 -39 -44 hvcurveto
            -40 -36 -26 -47 -13 -58 13 callgsubr
            -17 -17 vvcurveto
            -45 13 -37 27 -28 vhcurveto
            -30 28 -26 callgsubr
            35 8 15 31 hvcurveto
            37 17 27 25 19 33 return
          </CharString>
          <CharString index="9">
            rmoveto
            7 33 4 31 31 vvcurveto
            71 -19 56 -37 41 vhcurveto
            -41 46 -59 23 -79 -1 -96 -1 -81 -32 -67 -64 -61 -59 -40 -75 -20 -93 rrcurveto
            -5 -26 -3 -26 -25 vvcurveto
            -70 20 -57 40 -44 vhcurveto
            43 -47 return
          </CharString>
          <CharString index="10">
            -1 -44 32 -42 41 -14 22 58 rcurveline
            -32 21 -16 34 48 vvcurveto
            10 1 15 3 20 vhcurveto
            3 23 8 23 14 24 19 35 27 27 35 19 rrcurveto
            -163 -152 rmoveto
            -9 -43 -20 -35 -32 -27 rrcurveto
            return
          </CharString>
          <CharString index="11">
            rmoveto
            -95 callsubr
          </CharString>
          <CharString index="12">
            -106 callgsubr
            endchar
          </CharString>
          <CharString index="13">
            rmoveto
            -14 11 -14 11 -15 10 -13 -43 -37 -34 -24 1 -15 1 -26 12 -36 25 -41 28 -30 13 -20 -1 -35 -1 -36 -33 -37 -65 50 -22 rcurveline
            17 39 18 19 19 1 13 1 23 -11 32 -21 rrcurveto
            -28 41 33 -14 23 hhcurveto
            47 41 34 67 36 hvcurveto
            return
          </CharString>
          <CharString index="14">
            rmoveto
            -12 32 -35 13 -59 -5 -22 -51 rcurveline
            29 1 20 -4 12 -9 rrcurveto
            7 -5 3 -8 -10 vvcurveto
            -40 -48 -22 -60 4 vhcurveto
            -11 -27 rlineto
            -1 10 10 0 11 hhcurveto
            49 37 9 19 23 hvcurveto
            27 22 14 26 29 vvcurveto
            9 -2 9 -3 9 vhcurveto
            return
          </CharString>
          <CharString index="15">
            398 309 rmoveto
            56 -44 28 -87 1 vhcurveto
            11 callsubr
            -43 -37 -28 -46 -12 -40 callsubr
            14 -38 29 -29 vhcurveto
            -31 31 43 -15 53 hhcurveto
            51 1 50 15 50 30 -17 callgsubr
            -81 -40 32 65 15 2 17 5 18 hvcurveto
            -9 27 33 -4 37 hhcurveto
            29 28 3 7 25 hvcurveto
            79 20 39 38 57 vvcurveto
            -120 26 rmoveto
            38 19 -11 -21 -25 -25 -18 -50 -12 hvcurveto
            -8 -33 -28 -4 -23 hhcurveto
            -16 -19 3 6 -21 hvcurveto
            29 51 44 29 59 8 rrcurveto
            1 9 9 1 8 hhcurveto
            return
          </CharString>
          <CharString index="16">
            445 194 rmoveto
            46 callgsubr
            92 -61 57 -103 -60 -53 -19 -38 -46 vhcurveto
            -46 -37 -29 -47 -12 -57 1 callgsubr
            -92 62 -63 104 57 51 17 34 44 vhcurveto
            48 37 31 50 13 64 rrcurveto
            -65 -1 rmoveto
            -89 -20 -66 -57 -79 hhcurveto
            -69 -48 50 65 11 1 10 3 11 hvcurveto
            9 42 21 -60 callsubr
            41 hhcurveto
            68 40 -43 -65 -13 -2 -13 -3 -14 hvcurveto
            return
          </CharString>
          <CharString index="17">
            -81 callgsubr
            20 -34 rcurveline
            27 18 17 13 16 hhcurveto
            15 18 -5 -10 20 hvcurveto
            33 -17 29 -6 23 3 19 2 17 10 17 18 7 7 7 9 7 11 rrcurveto
            -115 -95 rmoveto
            -11 25 -28 11 -47 -3 -11 -49 rcurveline
            25 3 16 -2 9 -6 rrcurveto
            6 -4 3 -5 -7 vvcurveto
            -11 -5 -7 -10 -5 vhcurveto
            -15 -8 -16 -3 -16 1 -4 -20 rcurveline
            -1 8 8 0 7 hhcurveto
            25 21 7 13 17 hvcurveto
            15 11 7 17 21 vvcurveto
            8 -1 7 -3 7 vhcurveto
            return
          </CharString>
          <CharString index="18">
            -27 -31 -35 -13 -39 hhcurveto
            -65 -37 42 68 12 1 12 2 13 hvcurveto
            7 40 21 34 -30 callsubr
            26 31 33 13 33 hhcurveto
            64 47 -51 -64 -9 -1 -10 -2 -9 hvcurveto
            return
          </CharString>
          <CharString index="19">
            -23 -26 1 2 -29 hvcurveto
            -11 -10 -50 -19 -89 vhcurveto
            24 hlineto
            13 7 16 1 13 hhcurveto
            65 37 -32 -45 -29 -11 -25 -21 -22 hvcurveto
            -21 -22 -26 -13 -29 -4 -25 -4 -27 4 -30 11 -19 -35 rcurveline
            -7 23 25 -4 28 hhcurveto
            18 17 2 3 15 hvcurveto
            33 9 29 19 23 30 rrcurveto
            24 30 12 32 35 vvcurveto
            67 -44 34 -89 -8 -8 0 -1 -9 vhcurveto
            7 36 6 24 3 11 rrcurveto
            91 hlineto
            22 12 -1 -3 1 hvcurveto
            2 -3 1 -3 -1 -5 rrcurveto
            28 hlineto
            3 19 3 16 4 12 rrcurveto
            return
          </CharString>
          <CharString index="20">
            rmoveto
            27 -11 -29 14 -47 hhcurveto
            -7 -7 0 -1 -5 hvcurveto
            -22 -51 29 1 20 -4 12 -9 rlinecurve
            7 -5 3 -8 -10 vvcurveto
            -21 -10 -15 -21 -10 vhcurveto
            return
          </CharString>
          <CharString index="21">
            rmoveto
            -86 -4 -69 -2 -53 1 -111 2 -60 1 -9 1 1 -23 -18 -100 -38 -179 -39 -185 -28 -108 -15 -31 return
          </CharString>
          <CharString index="22">
            33 -41 -54 17 -68 hhcurveto
            -96 -83 -34 -67 -69 hvcurveto
            -64 -62 -42 -79 -19 -96 rrcurveto
            -6 -27 -3 -26 -25 vvcurveto
            -72 21 -58 41 -44 vhcurveto
            -46 43 59 -23 77 hhcurveto
            90 79 29 57 68 hvcurveto
            69 58 45 77 21 95 rrcurveto
            7 34 4 33 32 vvcurveto
            69 -17 55 -35 42 vhcurveto
            39 3 28 10 19 15 rrcurveto
            27 21 14 26 29 vvcurveto
            9 -2 10 -3 9 vhcurveto
            -158 -394 rmoveto
            -16 -69 -33 -58 -50 -48 rrcurveto
            -51 -54 -60 -26 -67 hhcurveto
            -57 -45 19 37 -31 hvcurveto
            -29 35 -15 45 57 vvcurveto
            82 27 75 54 67 vhcurveto
            72 57 69 36 81 hhcurveto
            59 46 -18 -35 31 hvcurveto
            29 -33 14 -44 -57 vvcurveto
            -27 -3 -29 -7 -30 vhcurveto
            return
          </CharString>
          <CharString index="23">
            509 605 rmoveto
            -5 -1 -18 4 -29 7 -33 9 -32 5 -33 2 -65 4 -58 -12 -49 -28 -55 -33 -30 -46 -3 -60 -3 -50 13 -39 29 -27 18 -17 31 -15 44 -14 72 -23 40 -14 9 -4 rrcurveto
            39 -20 18 -27 -3 -33 -3 -41 -25 -33 -45 -23 rrcurveto
            -19 -37 -40 -9 -45 hhcurveto
            -46 -39 14 28 -33 hvcurveto
            -14 12 -7 12 1 11 rrcurveto
            -38 hlineto
            -13 -49 -8 -34 -4 -18 11 3 15 -3 18 -7 44 -17 35 -9 26 -1 75 -3 64 8 52 20 71 27 41 48 11 67 rrcurveto
            1 10 1 10 9 vvcurveto
            75 -59 53 -117 30 vhcurveto
            -92 23 -45 35 2 47 2 45 19 33 36 21 rrcurveto
            18 29 39 9 47 hhcurveto
            45 36 -10 -21 26 hvcurveto
            6 -5 3 -13 -1 -21 rrcurveto
            38 hlineto
            9 49 7 33 4 18 rrcurveto
            return
          </CharString>
          <CharString index="24">
            rmoveto
            -25 -27 -15 -16 -7 -5 -30 -25 -30 -12 -31 -1 -43 -1 -36 29 -29 58 -37 -19 rcurveline
            -69 37 46 -34 55 hhcurveto
            40 34 10 19 27 hvcurveto
            15 10 26 25 36 39 rrcurveto
            return
          </CharString>
          <CharString index="25">
            454 rmoveto
            2 11 1 11 11 vvcurveto
            89 -51 45 -103 vhcurveto
            88 callgsubr
            -5 -43 -13 -61 -13 -61 43 callgsubr
            -61 -12 -61 -13 -61 -14 -59 -13 -41 -11 -25 21 callgsubr
            25 5 38 10 53 13 57 12 58 12 57 rrcurveto
            1 13 13 0 13 hhcurveto
            30 -1 23 -3 16 -5 34 -11 26 -29 18 -47 rrcurveto
            15 -38 7 -42 -46 vvcurveto
            -29 -3 -23 -6 -15 vhcurveto
            88 hlineto
            2 169 -37 98 -75 25 111 7 63 54 13 101 rrcurveto
            -72 2 rmoveto
            -11 -48 -23 -32 -37 -17 -10 -5 -23 -4 -36 -5 -14 -2 -46 0 -78 2 49 221 rcurveline
            75 1 46 0 17 -1 rrcurveto
            63 -3 31 -26 -49 vvcurveto
            -10 -1 -11 -2 -11 vhcurveto
            return
          </CharString>
          <CharString index="26">
            51 callsubr
            -17 -28 -32 -36 -150 -167 rcurveline
            -76 168 rlineto
            -11 24 -5 21 18 vvcurveto
            8 1 6 2 5 vhcurveto
            -105 hlineto
            13 -11 21 -38 31 -65 39 -89 28 -65 16 -39 -37 -174 -28 -106 -18 -37 96 -1 rcurveline
            -1 24 6 43 13 62 12 callsubr
            13 61 44 51 44 50 44 50 74 83 51 54 27 24 rrcurveto
            return
          </CharString>
          <CharString index="27">
            -8 -8 -19 -4 -30 hhcurveto
            -66 hlineto
            3 9 23 24 43 39 34 31 31 35 29 41 35 49 21 44 8 40 rrcurveto
            return
          </CharString>
          <CharString index="28">
            387 rmoveto
            -1 1 -26 0 -52 -1 rrcurveto
            -1 -20 -43 -87 -40 hvcurveto
            -47 -101 -35 -74 -25 -48 -35 171 -24 118 -13 64 -76 1 rcurveline
            33 -142 34 -142 35 -143 -42 -77 -41 -43 -39 -9 rrcurveto
            -2 -9 -9 -1 -9 hhcurveto
            -34 -25 9 19 -17 hvcurveto
            -30 -49 rlineto
            -21 20 33 -11 45 hhcurveto
            22 22 3 7 23 hvcurveto
            39 12 42 40 44 67 13 21 26 47 38 71 rrcurveto
            return
          </CharString>
          <CharString index="29">
            rmoveto
            31 -22 22 -31 -29 -24 -24 -29 -29 24 -24 29 29 24 24 29 vhcurveto
            return
          </CharString>
          <CharString index="30">
            rmoveto
            -71 -105 -54 -35 -1 hhcurveto
            -116 104 -34 -39 131 -114 rlineto
            31 hlineto
            122 75 61 38 1 vvcurveto
            endchar
          </CharString>
          <CharString index="31">
            hstem
            360 -95 callgsubr
            return
          </CharString>
          <CharString index="32">
            rmoveto
            1 -51 41 83 -103 hvcurveto
            -203 -59 callgsubr
            return
          </CharString>
          <CharString index="33">
            rmoveto
            1 21 -6 17 -11 14 rrcurveto
            18 -14 -22 9 -30 hhcurveto
            -35 -29 -10 -21 -21 hvcurveto
            -21 -30 -14 -23 -8 -17 rrcurveto
            34 hlineto
            5 17 8 14 9 11 rrcurveto
            19 17 20 10 25 hhcurveto
            37 18 -17 -34 -19 -7 -21 -15 -25 hvcurveto
            -13 -21 -20 -23 -25 -25 -13 -13 -20 -18 -27 -22 -50 -41 -31 -27 -13 -11 -4 -20 rcurveline
            47 1 34 1 20 -1 return
          </CharString>
          <CharString index="34">
            1 -25 -5 -42 -11 -61 -1 -1 -13 -61 -25 -121 return
          </CharString>
          <CharString index="35">
            rmoveto
            -12 8 -12 8 -13 7 -13 -43 -37 -34 -24 1 -15 1 -26 12 -36 25 -41 27 -30 14 -20 -1 -35 -2 -36 -33 -37 -64 42 -19 rcurveline
            21 43 20 23 19 1 11 1 22 -11 33 -22 rrcurveto
            -28 41 33 -14 23 hhcurveto
            46 41 33 67 35 hvcurveto
            endchar
          </CharString>
          <CharString index="36">
            rmoveto
            -54 -31 -45 -33 -35 -35 -53 -51 -33 -49 -13 -49 rrcurveto
            -4 -14 -2 -13 -12 vvcurveto
            -56 32 -28 63 35 30 12 25 26 vhcurveto
            27 25 13 30 35 vvcurveto
            45 -30 31 -55 -29 -26 -10 -20 -25 vhcurveto
            19 31 30 33 39 34 54 41 36 24 17 9 rrcurveto
            -65 -225 rmoveto
            -23 -9 -21 -18 -19 vhcurveto
            -18 -17 -21 -9 -23 hhcurveto
            -47 -23 20 41 12 3 13 5 14 hvcurveto
            28 27 31 14 34 hhcurveto
            39 19 -17 -35 hvcurveto
            endchar
          </CharString>
          <CharString index="37">
            24 callgsubr
            -6 callsubr
            hintmask 11111000
            -64 callgsubr
            return
          </CharString>
          <CharString index="38">
            rmoveto
            26 4 -17 23 -23 hhcurveto
            -27 -27 -23 -26 -5 hvcurveto
            -26 -5 16 -21 28 hhcurveto
            25 25 24 23 6 hvcurveto
            -199 3 rmoveto
            return
          </CharString>
          <CharString index="39">
            30 29 27 15 24 hhcurveto
            9 8 -3 -5 7 hvcurveto
            -17 24 23 -8 22 hhcurveto
            16 18 6 12 21 hvcurveto
            21 13 12 13 3 14 rrcurveto
            return
          </CharString>
          <CharString index="40">
            rmoveto
            4 21 2 20 19 vvcurveto
            61 -19 50 -38 37 vhcurveto
            return
          </CharString>
          <CharString index="41">
            -20 hstemhm
            531 54 hintmask 10111000
            866 622 rmoveto
            -15 -35 -40 -81 -64 -127 -65 -129 -54 -104 -43 -79 -17 233 -12 188 -7 145 rrcurveto
            -49 hlineto
            -1 -1 rlineto
            -2 -40 -80 -80 -159 vhcurveto
            -84 -167 -55 -107 -26 -47 -8 73 -9 103 -9 133 rrcurveto
            hintmask 11011000
            -9 124 -4 82 -1 39 rrcurveto
            -90 hlineto
            74 -624 rlineto
            79 hlineto
            104 188 85 156 66 125 19 -218 13 -156 7 -95 rrcurveto
            81 hlineto
            183 333 112 207 42 82 rrcurveto
            return
          </CharString>
          <CharString index="42">
            rmoveto
            -39 hlineto
            -449 -700 3 -5 rlineto
            38 hlineto
            450 700 rlineto
            return
          </CharString>
          <CharString index="43">
            rmoveto
            48 9 40 45 48 vvcurveto
            46 -28 21 -56 -3 vhcurveto
            -51 -3 -37 -26 -23 -51 27 -12 rcurveline
            19 39 28 20 36 1 rrcurveto
            31 1 15 -14 -28 vvcurveto
            -22 -10 -19 -19 -15 vhcurveto
            -19 -15 -21 -7 -22 1 rrcurveto
            -5 -23 -3 -13 -1 vvcurveto
            return
          </CharString>
          <CharString index="44">
            -20 -21 -6 -12 -23 hvcurveto
            -20 -11 -16 -12 -12 -14 20 -34 rcurveline
            return
          </CharString>
          <CharString index="45">
            302 389 rmoveto
            5 -10 -11 2 -13 hhcurveto
            -53 -1 -39 -24 -25 -49 15 66 rcurveline
            -66 hlineto
            -4 -24 -2 -16 -1 -9 -33 -162 -24 -113 -16 -65 68 1 rcurveline
            5 26 5 26 5 25 11 54 8 43 7 33 8 29 12 25 16 22 rrcurveto
            39 27 32 19 38 82 callgsubr
            return
          </CharString>
          <CharString index="46">
            447 188 rmoveto
            4 17 2 16 16 vvcurveto
            93 -63 63 -101 1 vhcurveto
            -127 1 -78 -66 -28 -133 -50 -237 -27 -126 -3 -13 rrcurveto
            65 hlineto
            17 81 16 77 15 75 8 -15 14 -14 19 -12 rrcurveto
            -13 22 25 -7 27 hhcurveto
            133 81 65 131 29 hvcurveto
            -65 7 rmoveto
            -91 -20 -66 -54 -80 hhcurveto
            -48 -46 27 35 -20 hvcurveto
            8 40 6 28 4 15 rrcurveto
            95 19 52 47 85 hhcurveto
            69 41 -42 -64 -11 -1 -12 -3 -13 hvcurveto
            return
          </CharString>
          <CharString index="47">
            35 -30 callsubr
            28 33 38 14 return
          </CharString>
          <CharString index="48">
            rmoveto
            7 53 -25 27 -57 1 rrcurveto
            -63 -48 -41 -45 -4 hvcurveto
            -37 -5 18 -33 39 hhcurveto
            -29 -1 -26 -13 -21 -25 rrcurveto
            -21 -24 -11 -27 -29 vvcurveto
            -24 7 -20 14 -15 vhcurveto
            17 -18 24 -9 32 1 rrcurveto
            77 58 48 76 45 -23 34 -44 1 hvcurveto
            43 -1 34 31 7 45 rrcurveto
            -32 12 rmoveto
            return
          </CharString>
          <CharString index="49">
            -70 callgsubr
            -69 hlineto
            -209 -357 -128 -211 -47 -65 rrcurveto
            83 hlineto
            12 27 39 68 66 110 rrcurveto
            251 hlineto
            15 -108 9 -68 1 -29 rrcurveto
            -243 263 rmoveto
            77 130 58 100 37 70 13 -117 13 -100 11 -83 rrcurveto
            endchar
          </CharString>
          <CharString index="50">
            rmoveto
            -5 1 -8 0 -9 -1 -82 -96 -69 -79 -57 -61 -5 -27 rcurveline
            60 1 48 0 35 -1 -8 -38 -4 -20 -1 -3 -1 -5 -5 -10 -8 -15 rrcurveto
            49 hlineto
            -1 15 1 12 2 9 12 55 rcurveline
            13 -1 11 -1 11 -3 8 40 rcurveline
            -16 -3 -12 -1 -8 1 24 112 16 77 9 42 rrcurveto
            -54 -85 rmoveto
            -15 -66 -10 -49 -7 -33 -19 -1 -33 1 -49 1 56 64 44 49 33 34 rrcurveto
            return
          </CharString>
          <CharString index="51">
            624 rmoveto
            -5 -21 -17 -24 -30 -27 -12 -12 -43 -36 -73 -60 -75 -63 -50 -42 -24 -21 33 -27 41 -43 47 -58 40 -49 27 -36 14 -23 17 -27 9 -28 3 -27 rrcurveto
            104 hlineto
            -29 68 -53 79 -77 91 -35 41 -27 30 -18 17 39 32 30 25 23 17 53 45 52 44 53 45 53 45 38 30 22 15 rrcurveto
            -476 hmoveto
            1 -25 -5 -42 -12 -61 rrcurveto
            -2 -13 -61 -26 -121 vhcurveto
            return
          </CharString>
          <CharString index="52">
            344 355 rmoveto
            25 -27 -35 13 -42 hhcurveto
            -90 -74 -54 -77 -28 19 -21 37 -14 hvcurveto
            return
          </CharString>
          <CharString index="53">
            -13 -27 -25 hvcurveto
            -25 11 -19 9 -13 7 rrcurveto
            9 -18 -21 4 -23 hhcurveto
            -51 -37 -18 -37 -25 hvcurveto
            -20 -30 -21 -67 -21 -105 55 callgsubr
            -21 -115 -21 -114 -21 -115 -26 -114 -29 -55 68 callsubr
            84 callsubr
            8 -3 rrcurveto
            -4 8 10 -2 13 hhcurveto
            45 33 19 38 20 hvcurveto
            21 38 21 72 23 106 4 17 19 97 34 178 rrcurveto
            33 52 0 -1 70 hvcurveto
            -1 -5 -21 -113 -20 -112 -20 -113 rlinecurve
            -25 -111 -29 -54 -33 2 -17 1 -22 14 -26 27 84 callsubr
            7 -5 rrcurveto
            hintmask 01110000
            -2 7 9 -1 11 hhcurveto
            48 34 18 37 21 hvcurveto
            21 37 22 70 23 105 6 29 19 98 32 165 return
          </CharString>
          <CharString index="54">
            rmoveto
            -44 -51 -34 -33 -60 -2 -43 -1 -35 30 -30 57 -37 -19 rcurveline
            -69 37 46 -34 55 hhcurveto
            83 43 34 69 52 hvcurveto
            endchar
          </CharString>
          <CharString index="55">
            -36 callsubr
            rrcurveto
            return
          </CharString>
          <CharString index="56">
            -20 hstem
            31 79 467 78 vstem
            644 305 rmoveto
            7 34 4 33 32 vvcurveto
            63 -15 52 -29 41 vhcurveto
            -31 45 -47 27 -61 11 39 121 rcurveline
            -54 hlineto
            -38 -116 rlineto
            -6 hlineto
            -96 1 -83 -34 -69 -67 -64 -62 -42 -79 -19 -97 rrcurveto
            -6 -27 -3 -26 -25 vvcurveto
            -61 15 -51 30 -41 vhcurveto
            31 -43 43 -28 57 -12 -31 -95 rcurveline
            54 hlineto
            29 88 95 -3 83 28 72 61 rlinecurve
            69 59 45 76 21 95 rrcurveto
            -77 3 rmoveto
            -17 -71 -33 -59 -50 -47 -55 -51 -62 -25 -70 1 170 519 rcurveline
            85 -19 42 -60 -102 vvcurveto
            -27 -3 -29 -7 -30 vhcurveto
            -338 -244 rmoveto
            -39 11 -30 23 -21 34 rrcurveto
            -19 32 -10 39 46 vvcurveto
            82 27 75 54 67 vhcurveto
            72 57 69 36 81 hhcurveto
            return
          </CharString>
          <CharString index="57">
            624 -86 callsubr
            rrcurveto
            return
          </CharString>
          <CharString index="58">
            -37 -35 -32 -37 -36 -18 14 29 39 37 27 39 33 17 -13 -27 vhcurveto
            -21 -167 rmoveto
            -52 -40 -42 -52 -43 -21 19 37 52 46 45 52 39 19 -20 -39 vhcurveto
            endchar
          </CharString>
          <CharString index="59">
            rmoveto
            -73 callsubr
            return
          </CharString>
          <CharString index="60">
            14 -170 -21 183 56 340 -20 hstem
            -8 63 264 61 vstem
            367 388 rmoveto
            -33 -112 -16 -81 1 -49 -7 -19 -13 -19 -21 -20 rrcurveto
            -27 -27 -27 -13 -29 hhcurveto
            -46 -28 32 65 -10 hvcurveto
            63 243 -65 -1 -50 -203 -28 -115 -7 -29 rlinecurve
            -21 -93 -11 -59 -26 vvcurveto
            -21 3 -18 7 -14 vhcurveto
            68 26 rlineto
            -10 16 -5 23 30 vvcurveto
            35 10 58 20 81 vhcurveto
            -57 4 32 -29 61 hhcurveto
            55 48 30 61 39 hvcurveto
            3 -23 6 -24 10 -25 5 -11 5 -10 5 -10 49 47 rcurveline
            -19 36 -9 40 1 44 1 37 10 52 18 65 7 27 9 29 10 31 rrcurveto
            endchar
          </CharString>
          <CharString index="61">
            -20 hstem
            28 64 286 66 vstem
            438 194 rmoveto
            46 callgsubr
            79 -37 47 -75 17 vhcurveto
            25 77 rlineto
            -54 hlineto
            -23 -71 rlineto
            -60 -53 -19 -38 -46 hvcurveto
            -46 -37 -29 -47 -12 -57 1 callgsubr
            -77 44 -58 77 -16 vhcurveto
            -24 -74 rlineto
            54 hlineto
            23 70 56 2 49 18 42 33 rlinecurve
            46 37 30 49 13 63 rrcurveto
            -65 -1 rmoveto
            -20 -84 -60 -55 -73 -7 94 287 rcurveline
            43 -15 21 -34 -52 vvcurveto
            -13 -2 -13 -3 -14 vhcurveto
            -205 -140 rmoveto
            -51 17 -25 36 56 vvcurveto
            52 callgsubr
            vhcurveto
            9 41 20 34 31 27 31 28 36 15 40 2 rrcurveto
            return
          </CharString>
          <CharString index="62">
            -6 rrcurveto
            -8 -7 -22 -4 return
          </CharString>
          <CharString index="63">
            rmoveto
            23 4 -14 20 -23 hhcurveto
            -21 -25 -20 -23 -4 hvcurveto
            -23 -5 16 -19 21 hhcurveto
            24 22 21 21 5 hvcurveto
            -129 118 -71 callgsubr
            -90 58 4 callgsubr
            -24 -24 -8 callgsubr
            15 -19 24 hhcurveto
            23 23 21 21 5 hvcurveto
            endchar
          </CharString>
          <CharString index="64">
            rmoveto
            -11 -48 rlineto
            308 hlineto
            10 48 rlineto
            endchar
          </CharString>
          <CharString index="65">
            2 -6 4 12 callgsubr
            7 25 8 19 9 13 10 return
          </CharString>
          <CharString index="66">
            595 622 rmoveto
            2 -25 -6 -42 -13 -61 -39 -183 rcurveline
            -48 -223 -8 41 -42 102 -76 162 rlinecurve
            return
          </CharString>
          <CharString index="67">
            -56 1 callgsubr
            -47 return
          </CharString>
          <CharString index="68">
            -23 -110 -18 -73 -12 -37 rrcurveto
            72 hlineto
            18 100 14 73 10 46 8 39 rcurveline
            18 -29 33 -15 47 -1 65 -1 53 16 42 33 45 34 29 51 13 68 rrcurveto
            -65 2 rmoveto
            -8 -42 -20 -36 -32 -29 rrcurveto
            -29 -31 -36 -14 -41 hhcurveto
            -45 -34 16 32 -21 hvcurveto
            return
          </CharString>
          <CharString index="69">
            623 rmoveto
            -59 -4 -63 -1 -68 1 rrcurveto
            hintmask 11010000
            -101 2 -65 2 -31 1 2 -18 -3 -28 -8 -39 -28 -137 -15 -72 -1 -6 -36 -168 -19 -89 -2 -9 -5 -21 -7 -19 -9 -18 rrcurveto
            91 hlineto
            -2 33 5 46 12 59 15 73 10 54 7 33 51 3 63 0 75 -4 30 -2 21 -3 11 -3 19 83 rcurveline
            -15 -6 -19 -4 -25 -2 rrcurveto
            -1 -24 -65 -1 -105 hhcurveto
            hintmask 11100000
            42 204 rlineto
            211 hlineto
            11 callgsubr
            5 33 7 31 9 29 rrcurveto
            endchar
          </CharString>
          <CharString index="70">
            628 rmoveto
            hintmask 11000000
            -68 -5 -156 -2 -243 2 -12 -55 rcurveline
            75 -84 74 -84 74 -85 -110 -85 -110 -85 -109 -85 1 1 -5 -21 -9 -41 rrcurveto
            100 72 0 1 44 hvcurveto
            53 1 86 -1 121 -1 rrcurveto
            24 9 36 17 47 vhcurveto
            -50 hlineto
            -8 -28 -9 -10 -24 -3 rrcurveto
            -1 -4 -10 0 -16 hhcurveto
            -276 -2 328 251 -223 250 rlineto
            253 hlineto
            39 20 -3 -5 3 hvcurveto
            3 -5 1 -8 -1 -12 rrcurveto
            50 hlineto
            hintmask 10100000
            7 49 7 32 6 17 rrcurveto
            endchar
          </CharString>
          <CharString index="71">
            -13 -42 -12 -25 return
          </CharString>
          <CharString index="72">
            -8 callsubr
            -23 -25 -8 callgsubr
            16 -19 23 hhcurveto
            23 23 21 21 5 hvcurveto
            return
          </CharString>
          <CharString index="73">
            rmoveto
            1 -25 -2 -27 -6 -31 -6 -31 -16 -76 -26 -123 -28 -133 -19 -78 -11 -24 rrcurveto
            -26 -11 -18 -13 -25 hhcurveto
            -13 -11 4 8 -11 hvcurveto
            -15 10 -7 12 1 13 rrcurveto
            -38 hlineto
            -10 -39 -7 -28 -4 -18 10 2 17 -2 25 -7 rrcurveto
            return
          </CharString>
          <CharString index="74">
            721 337 rmoveto
            99 -35 83 -70 69 vhcurveto
            69 -69 -84 35 -99 hhcurveto
            -97 -83 -35 -70 -69 hvcurveto
            -69 -70 -35 -84 -97 vvcurveto
            -97 35 -83 69 -69 vhcurveto
            -69 69 84 -35 97 hhcurveto
            98 84 34 69 69 hvcurveto
            70 69 35 84 98 vvcurveto
            -43 hmoveto
            -86 -31 -74 -61 -61 vhcurveto
            -61 -61 -74 -30 -86 hhcurveto
            -85 -74 30 61 -61 hvcurveto
            -61 61 -30 74 85 vvcurveto
            85 30 74 61 61 vhcurveto
            61 61 73 31 85 hhcurveto
            86 74 -30 -61 61 hvcurveto
            62 -61 31 -73 -86 vvcurveto
            return
          </CharString>
          <CharString index="75">
            24 -157 -21 198 -21 340 54 return
          </CharString>
          <CharString index="76">
            29 -3 24 -3 14 -2 4 rrcurveto
            -1 -4 -28 -16 -5 hhcurveto
            -1 -1 1 1 -1 hvcurveto
            return
          </CharString>
          <CharString index="77">
            33 28 rrcurveto
            return
          </CharString>
          <CharString index="78">
            -179 -61 -21 91 -21 89 236 0 74 hstemhm
            hintmask 11010000
            221 355 rmoveto
            21 5 -12 11 -28 hhcurveto
            -28 -16 -11 -21 -5 hvcurveto
            -24 -5 17 -18 21 hhcurveto
            23 23 19 23 5 hvcurveto
            -69 -323 rmoveto
            1 4 1 4 3 vvcurveto
            hintmask 11100000
            23 -11 11 -23 -24 -26 -20 -24 -4 vhcurveto
            -25 -5 17 -20 23 hhcurveto
            -6 -19 -15 -11 -23 -5 -8 -35 rcurveline
            53 11 34 38 16 65 rrcurveto
            endchar
          </CharString>
          <CharString index="79">
            -12 -24 -21 hvcurveto
            return
          </CharString>
          <CharString index="80">
            -8 -27 callgsubr
            return
          </CharString>
          <CharString index="81">
            -17 -2 -16 return
          </CharString>
          <CharString index="82">
            -79 -222 56 -56 241 hstemhm
            hintmask 10000000
            242 -141 rmoveto
            -40 callgsubr
            1 20 14 27 28 34 rrcurveto
            hintmask 01000000
            28 34 23 21 19 8 rrcurveto
            -78 38 callgsubr
            rrcurveto
            endchar
          </CharString>
          <CharString index="83">
            57 57 53 58 43 -31 30 -44 -57 -56 -54 -57 -43 30 58 callgsubr
            -36 -28 -19 19 27 36 35 34 36 28 19 -19 -27 vhcurveto
            endchar
          </CharString>
          <CharString index="84">
            rmoveto
            25 5 -19 23 -25 hhcurveto
            -24 -28 -23 -25 -5 hvcurveto
            -25 -5 18 -22 24 hhcurveto
            25 29 23 24 5 hvcurveto
            -33 return
          </CharString>
          <CharString index="85">
            -20 -8 -6 hhcurveto
            -2 -1 1 1 hvcurveto
            -1 6 20 84 39 162 return
          </CharString>
          <CharString index="86">
            -1 rrcurveto
            -71 -1 -46 45 69 vvcurveto
            83 callgsubr
            45 21 36 33 26 rrcurveto
            27 33 38 13 43 hhcurveto
            47 33 -18 -36 19 hvcurveto
            endchar
          </CharString>
          <CharString index="87">
            -13 -4 -1 -9 -37 hhcurveto
            -99 hlineto
            95 81 76 66 39 59 1 51 rlinecurve
            return
          </CharString>
          <CharString index="88">
            -21 285 65 274 -20 return
          </CharString>
          <CharString index="89">
            11 -1 6 -5 -9 vvcurveto
            -25 -26 -19 -51 -13 vhcurveto
            return
          </CharString>
          <CharString index="90">
            -227 -20 267 -21 340 54 return
          </CharString>
          <CharString index="91">
            1 -23 -4 -39 -11 -57 return
          </CharString>
          <CharString index="92">
            216 297 rmoveto
            108 48 137 97 -10 callsubr
            hvcurveto
            345 350 rmoveto
            -389 -735 rlineto
            44 hlineto
            391 735 rlineto
            -383 -300 rmoveto
            -29 -11 29 27 hvcurveto
            return
          </CharString>
          <CharString index="93">
            27 1 40 -1 51 -3 5 27 4 19 3 9 rrcurveto
            -26 hlineto
            return
          </CharString>
          <CharString index="94">
            12 55 13 -1 11 -1 11 -3 rlinecurve
            8 40 rlineto
            -3 -16 -12 -1 -8 hhcurveto
            24 113 16 77 9 41 rrcurveto
            -54 -85 rmoveto
            -15 -65 -10 -49 -7 -33 -18 -1 -34 0 -49 1 57 64 44 49 32 34 rrcurveto
            endchar
          </CharString>
          <CharString index="95">
            rmoveto
            75 -21 56 -51 60 vhcurveto
            -25 30 -25 23 -27 17 rrcurveto
            -4 hlineto
            -10 -11 rlineto
            -3 vlineto
            70 -61 35 -80 -99 vvcurveto
            -109 -29 -72 -76 -75 vhcurveto
            1 -3 12 -9 rlineto
            4 hlineto
            97 67 49 87 107 vvcurveto
            endchar
          </CharString>
          <CharString index="96">
            21 -19 callsubr
            return
          </CharString>
          <CharString index="97">
            58 -34 38 -53 -108 -49 -137 -97 -58 35 -38 53 return
          </CharString>
          <CharString index="98">
            -12 20 callsubr
            return
          </CharString>
          <CharString index="99">
            21 4 -16 21 -21 hhcurveto
            return
          </CharString>
          <CharString index="100">
            -1 55 244 51 227 50 hstemhm
            442 67 -15 66 hintmask 11101000
            555 459 rmoveto
            3 15 2 14 13 vvcurveto
            46 -19 34 -38 21 vhcurveto
            16 -28 -36 8 -43 hhcurveto
            -233 hlineto
            2 -25 return
          </CharString>
          <CharString index="101">
            hintmask 11110100
            -55 callsubr
            return
          </CharString>
          <CharString index="102">
            -21 190 -20 hstem
            return
          </CharString>
          <CharString index="103">
            -41 28 -30 13 -20 -1 -35 -1 -36 -33 -37 -65 50 -22 rcurveline
            17 39 18 19 19 1 13 1 23 -11 32 -21 rrcurveto
            -28 41 33 -14 23 hhcurveto
            47 41 34 67 36 hvcurveto
            endchar
          </CharString>
          <CharString index="104">
            841 -81 callgsubr
            rrcurveto
            return
          </CharString>
          <CharString index="105">
            54 67 -1 -3 79 hvcurveto
            -69 callgsubr
            -5 -10 -6 -6 rrcurveto
            return
          </CharString>
          <CharString index="106">
            rmoveto
            -5 -58 -15 -79 -25 -101 -10 -47 rcurveline
            33 -13 -43 23 -45 hhcurveto
            -131 -89 -69 -119 -28 hvcurveto
            -4 -18 -2 -18 -17 vvcurveto
            -95 65 -68 104 50 40 17 33 31 vhcurveto
            return
          </CharString>
          <CharString index="107">
            75 41 99 51 29 11 -29 -27 -75 -41 -99 -51 return
          </CharString>
          <CharString index="108">
            -5 hvcurveto
            -23 -4 return
          </CharString>
          <CharString index="109">
            91 hlineto
            -1 25 5 43 13 63 39 183 rcurveline
            37 176 26 103 14 31 rrcurveto
            return
          </CharString>
          <CharString index="110">
            223 -44 44 2 -20 hstemhm
            return
          </CharString>
          <CharString index="111">
            -39 -185 rcurveline
            -14 return
          </CharString>
          <CharString index="112">
            -14 -9 -22 hhcurveto
            -10 -9 2 4 -8 hvcurveto
            -33 -40 6 -7 14 -5 22 -2 rlinecurve
            19 -1 18 2 18 7 21 7 14 11 9 14 rrcurveto
            endchar
          </CharString>
          <CharString index="113">
            20 53 callgsubr
            return
          </CharString>
          <CharString index="114">
            41 39 37 41 28 -21 21 -31 -41 -39 -37 -41 -28 21 -21 31 hvcurveto
            return
          </CharString>
          <CharString index="115">
            67 -222 52 162 -27 callgsubr
            return
          </CharString>
          <CharString index="116">
            624 rmoveto
            2 -31 -16 -92 -34 -151 rrcurveto
            -350 hlineto
            27 140 24 91 20 43 rrcurveto
            -93 hlineto
            1 -25 -5 -42 -11 -61 return
          </CharString>
          <CharString index="117">
            rmoveto
            -12 -36 -13 -51 -13 -66 rrcurveto
            -155 hlineto
            19 93 11 50 3 9 11 34 21 19 32 3 32 3 32 -18 32 -40 rrcurveto
            return
          </CharString>
          <CharString index="118">
            -55 1 -50 -18 -44 -37 return
          </CharString>
          <CharString index="119">
            13 62 13 61 return
          </CharString>
          <CharString index="120">
            rmoveto
            1 -5 -8 0 -9 hhcurveto
            -82 -96 -69 -79 -56 -61 -6 -27 rcurveline
            61 1 47 0 35 -1 -8 -38 -4 -20 -1 -3 rrcurveto
            return
          </CharString>
          <CharString index="121">
            1 9 1 8 return
          </CharString>
          <CharString index="122">
            -136 -198 -135 -15 -69 250 168 13 62 rlineto
            return
          </CharString>
          <CharString index="123">
            458 21 -21 624 -20 29 -20 return
          </CharString>
          <CharString index="124">
            1 10 2 11 hvcurveto
            9 42 return
          </CharString>
          <CharString index="125">
            1 5 1 5 return
          </CharString>
          <CharString index="126">
            -61 -13 -42 -12 -24 rrcurveto
            87 hlineto
            -1 24 6 42 12 61 39 183 rcurveline
            45 213 28 126 11 39 return
          </CharString>
          <CharString index="127">
            65 515 64 return
          </CharString>
          <CharString index="128">
            617 197 rmoveto
            3 17 2 16 15 vvcurveto
            91 -71 63 -89 -4 vhcurveto
            -59 -2 -44 -24 -29 -46 rrcurveto
            return
          </CharString>
          <CharString index="129">
            rmoveto
            -9 24 -20 -47 callgsubr
            rrcurveto
            return
          </CharString>
          <CharString index="130">
            -13 -50 -12 -50 -13 -50 return
          </CharString>
          <CharString index="131">
            62 -62 104 472 67 return
          </CharString>
          <CharString index="132">
            75 425 78 return
          </CharString>
          <CharString index="133">
            rmoveto
            -124 124 -41 -124 -124 -39 124 -124 41 124 124 hlineto
            endchar
          </CharString>
          <CharString index="134">
            rmoveto
            3 16 2 15 14 vvcurveto
            52 -20 38 -41 24 vhcurveto
            return
          </CharString>
          <CharString index="135">
            67 547 29 -29 174 return
          </CharString>
          <CharString index="136">
            51 316 30 -30 174 return
          </CharString>
          <CharString index="137" raw="1">
            f73a158c 0b  
          </CharString>
          <CharString index="138">
            -97 -24 -87 rcurveline
            -13 -47 -6 -31 -17 vvcurveto
            -9 2 -4 4 -1 vhcurveto
            15 -1 19 3 24 8 return
          </CharString>
          <CharString index="139">
            -12 34 callsubr
          </CharString>
          <CharString index="140">
            193 193 rcurveline
            105 -193 15 -41 11 -32 6 -24 rlinecurve
            98 hlineto
            -192 329 return
          </CharString>
          <CharString index="141">
            -42 callsubr
            10 49 rcurveline
            endchar
          </CharString>
          <CharString index="142">
            -180 -851 rlineto
            70 hlineto
            180 851 rlineto
            return
          </CharString>
          <CharString index="143">
            142 0 63 -44 -21 563 63 return
          </CharString>
          <CharString index="144">
            464 -5 callsubr
            12 610 rmoveto
            96 -167 48 16 -81 174 rlineto
            return
          </CharString>
          <CharString index="145">
            -20 hstem
            0 48 return
          </CharString>
          <CharString index="146">
            -68 6 1 8 -1 11 -4 rlinecurve
            21 -8 21 -5 21 -3 rrcurveto
            -1 11 12 -1 return
          </CharString>
          <CharString index="147">
            68 callsubr
            -17 -78 rcurveline
            return
          </CharString>
          <CharString index="148">
            -27 callgsubr
            -53 163 return
          </CharString>
          <CharString index="149">
            73 459 76 vstem
            return
          </CharString>
          <CharString index="150">
            141 623 -48 callsubr
            return
          </CharString>
          <CharString index="151">
            153 -190 46 38 -73 90 -51 62 -28 33 rlinecurve
            197 149 rlineto
            return
          </CharString>
          <CharString index="152">
            -21 25 -21 352 51 return
          </CharString>
          <CharString index="153">
            -289 -39 289 hlineto
            return
          </CharString>
          <CharString index="154">
            -16 callgsubr
            250 24 callgsubr
            return
          </CharString>
          <CharString index="155">
            33 -26 26 -33 -33 -25 -26 -33 -32 26 -26 32 33 26 26 32 vhcurveto
            return
          </CharString>
          <CharString index="156">
            rmoveto
            46 callsubr
            -49 vmoveto
            46 callsubr
            endchar
          </CharString>
          <CharString index="157">
            33 -159 -21 172 58 287 57 return
          </CharString>
          <CharString index="158">
            624 rmoveto
            -3 -19 return
          </CharString>
          <CharString index="159">
            20 16 20 4 hvcurveto
            return
          </CharString>
          <CharString index="160">
            -29 callgsubr
            246 -20 hstem
            31 68 return
          </CharString>
          <CharString index="161">
            877 rmoveto
            -36 callgsubr
            16 -19 11 rrcurveto
            return
          </CharString>
          <CharString index="162">
            -204 -124 return
          </CharString>
          <CharString index="163">
            -1 -5 -5 -10 -7 -15 rrcurveto
            48 hlineto
            15 1 12 1 9 vhcurveto
            return
          </CharString>
          <CharString index="164">
            -181 rlineto
            49 hlineto
            55 177 rlineto
            return
          </CharString>
          <CharString index="165">
            30 callgsubr
            250 return
          </CharString>
          <CharString index="166">
            21 -21 622 -20 return
          </CharString>
          <CharString index="167">
            207 -11 53 return
          </CharString>
          <CharString index="168">
            -32 callsubr
            249 -20 hstem
            return
          </CharString>
          <CharString index="169">
            -23 -111 -19 -69 -14 -28 rrcurveto
            5 80 71 2 63 hhcurveto
            return
          </CharString>
          <CharString index="170">
            -21 124 39 124 -20 hstem
            174 41 vstem
            339 return
          </CharString>
          <CharString index="171">
            97 -54 callgsubr
            246 90 callgsubr
            return
          </CharString>
          <CharString index="172">
            rmoveto
            16 75 rlineto
            hintmask 10010000
            -5 -32 -78 -2 -123 hhcurveto
            return
          </CharString>
          <CharString index="173">
            21 -21 297 61 204 57 5 -20 hstemhm
            hintmask 11100000
            return
          </CharString>
          <CharString index="174">
            -21 -85 -11 -54 -22 vvcurveto
            -8 1 -4 3 vhcurveto
            15 -1 return
          </CharString>
          <CharString index="175">
            -31 3 -15 1 -22 15 -27 29 return
          </CharString>
          <CharString index="176">
            61 13 43 12 25 return
          </CharString>
          <CharString index="177">
            -197 21 -21 return
          </CharString>
          <CharString index="178">
            -53 rcurveline
            1 1 return
          </CharString>
          <CharString index="179">
            518 14 callgsubr
            -44 -44 -8 -45 rrcurveto
            return
          </CharString>
          <CharString index="180">
            1 57 53 1 48 hhcurveto
            107 38 0 1 -29 hvcurveto
            return
          </CharString>
          <CharString index="181">
            514 14 callgsubr
            -43 -44 -9 -45 rrcurveto
            return
          </CharString>
          <CharString index="182">
            3 34 3 34 -19 34 -43 17 78 rcurveline
            endchar
          </CharString>
          <CharString index="183">
            69 272 49 hintmask 10111100
            return
          </CharString>
          <CharString index="184">
            94 -10 59 526 59 return
          </CharString>
          <CharString index="185">
            -65 0 52 284 52 return
          </CharString>
          <CharString index="186">
            -20 21 -20 hstemhm
            return
          </CharString>
          <CharString index="187">
            273 -13 67 return
          </CharString>
          <CharString index="188">
            -18 callgsubr
            600 -20 return
          </CharString>
          <CharString index="189">
            rmoveto
            -234 -39 234 hlineto
            return
          </CharString>
          <CharString index="190">
            -165 20 -21 342 55 return
          </CharString>
          <CharString index="191">
            -16 91 callgsubr
            15 -6 return
          </CharString>
          <CharString index="192">
            51 -1 38 -4 24 -7 rrcurveto
            return
          </CharString>
          <CharString index="193">
            61 232 60 203 64 return
          </CharString>
          <CharString index="194">
            13 -21 470 85 return
          </CharString>
          <CharString index="195">
            -9 58 528 57 return
          </CharString>
          <CharString index="196">
            7 2 5 hhcurveto
            return
          </CharString>
          <CharString index="197">
            62 514 67 return
          </CharString>
          <CharString index="198">
            hlineto
            hintmask 11100000
            1 -25 -5 -43 -12 -61 rrcurveto
            return
          </CharString>
          <CharString index="199">
            60 callsubr
            600 -20 hstem
            24 60 return
          </CharString>
          <CharString index="200">
            15 hvcurveto
            16 14 8 14 15 vvcurveto
            19 -10 return
          </CharString>
          <CharString index="201">
            -13 -3 -13 hvcurveto
            endchar
          </CharString>
          <CharString index="202">
            21 101 23 107 return
          </CharString>
        <CharString name=".notdef">
          61 0 63 594 62 hstem
          63 62 250 63 vstem
          438 hmoveto
          719 -375 -719 vlineto
          62 657 rmoveto
          250 -594 -250 hlineto
          endchar
        </CharString>
        <CharString name="A">
          155 -49 callgsubr
          hstem
          542 hmoveto
          -95 callsubr
        </CharString>
        <CharString name="AE">
          65 callgsubr
          -1 -20 hstemhm
          hintmask 10111000
          44 callgsubr
          hintmask 01110100
          1 -43 -33 0 -25 hhcurveto
          -1 -1 hlineto
          -36 -38 -95 -105 -153 -173 -116 -131 -98 -102 -79 -73 rrcurveto
          88 hlineto
          21 27 64 68 105 110 rrcurveto
          241 hlineto
          hintmask 10111000
          62 callsubr
          hintmask 01111000
          -2 callsubr
          hintmask 10111000
          -8 -7 -22 -4 -36 hhcurveto
          -205 hlineto
          9 52 6 37 4 23 12 52 9 40 7 28 135 3 83 -4 29 -11 18 86 rcurveline
          -9 -23 -84 -5 -146 hhcurveto
          23 107 14 68 7 28 rrcurveto
          185 hlineto
          39 21 -2 -5 3 hvcurveto
          3 -4 1 -8 -2 -13 rrcurveto
          50 hlineto
          6 41 7 32 8 23 rrcurveto
          -395 -68 rmoveto
          -27 -131 -21 -97 -16 -65 rrcurveto
          -199 hlineto
          120 132 88 98 55 63 rrcurveto
          endchar
        </CharString>
        <CharString name="AEacute">
          65 callgsubr
          232 -20 hstemhm
          hintmask 01111100
          44 callgsubr
          1 -43 -33 0 -25 hhcurveto
          -1 -1 hlineto
          -36 -38 -95 -105 -153 -173 -116 -131 -98 -102 -79 -73 rrcurveto
          88 hlineto
          21 27 64 68 105 110 rrcurveto
          241 hlineto
          hintmask 10111100
          62 callsubr
          hintmask 01111100
          -2 callsubr
          hintmask 10111100
          -8 -7 -22 -4 -36 hhcurveto
          -205 hlineto
          9 52 6 37 4 23 12 52 9 40 7 28 135 3 83 -4 29 -11 18 86 rcurveline
          -9 -23 -84 -5 -146 hhcurveto
          23 107 14 68 7 28 rrcurveto
          185 hlineto
          39 21 -2 -5 3 hvcurveto
          3 -4 1 -8 -2 -13 rrcurveto
          50 hlineto
          6 41 7 32 8 23 rrcurveto
          -395 -68 rmoveto
          -27 -131 -21 -97 -16 -65 rrcurveto
          -199 hlineto
          120 132 88 98 55 63 rrcurveto
          120 300 rmoveto
          -81 -174 47 -16 97 167 rlineto
          endchar
        </CharString>
        <CharString name="Aacute">
          -49 callgsubr
          243 -20 hstem
          585 hmoveto
          -106 callgsubr
          31 593 rmoveto
          -81 -174 47 -16 97 167 rlineto
          endchar
        </CharString>
        <CharString name="Abreve">
          -49 callgsubr
          53 36 86 -20 hstem
          585 hmoveto
          -106 callgsubr
          117 525 -53 callsubr
        </CharString>
        <CharString name="Acircumflex">
          -49 callgsubr
          219 -20 hstem
          585 hmoveto
          -106 callgsubr
          160 445 rmoveto
          1 -26 20 41 -51 hvcurveto
          -51 41 -26 21 1 1 55 callsubr
          rcurveline
          29 -39 rlineto
          70 109 56 35 1 hhcurveto
          121 -100 rlineto
          endchar
        </CharString>
        <CharString name="Acute">
          687 -5 callsubr
          331 856 rmoveto
          -81 -174 47 -16 97 167 rlineto
          endchar
        </CharString>
        <CharString name="Acutesmall">
          72 486 -21 205 -20 hstem
          407 635 rmoveto
          23 -11 12 -22 -17 57 callgsubr
          8 9 4 11 14 vvcurveto
          endchar
        </CharString>
        <CharString name="Adieresis">
          -49 callgsubr
          59 96 1 -20 hstemhm
          hintmask 11110000
          585 hmoveto
          -106 callgsubr
          132 456 -69 callsubr
          hintmask 11101000
          -63 callgsubr
        </CharString>
        <CharString name="Agrave">
          -49 callgsubr
          264 -20 hstem
          585 hmoveto
          -106 callgsubr
          -70 614 -52 callgsubr
          endchar
        </CharString>
        <CharString name="Alpha">
          -49 callgsubr
          hstem
          557 hmoveto
          -95 callsubr
        </CharString>
        <CharString name="Amacron">
          -49 callgsubr
          52 48 hstem
          585 hmoveto
          -106 callgsubr
          -157 450 -43 callsubr
        </CharString>
        <CharString name="Aogonek">
          -222 56 187 -21 205 58 370 -20 hstem
          585 hmoveto
          -9 24 -20 -47 callgsubr
          -70 callgsubr
          -69 hlineto
          -209 -357 -128 -211 -47 -65 rrcurveto
          83 hlineto
          12 27 39 68 66 110 rrcurveto
          251 hlineto
          13 -91 8 -63 3 -34 -61 -47 -33 -51 -5 -53 -67 callgsubr
          15 10 21 19 27 vhcurveto
          17 24 19 21 20 17 rrcurveto
          -294 263 rmoveto
          77 130 58 100 37 70 13 -117 13 -100 11 -83 rrcurveto
          endchar
        </CharString>
        <CharString name="Aring">
          -49 callgsubr
          50 96 callgsubr
          hstem
          372 35 119 34 vstem
          585 hmoveto
          -106 callgsubr
          -18 400 -25 callgsubr
        </CharString>
        <CharString name="Aringacute">
          21 -21 205 61 367 -20 40 96 callgsubr
          203 -20 hstem
          377 35 118 35 vstem
          551 1040 rmoveto
          -81 -174 48 -16 96 167 rlineto
          -163 -364 5 callgsubr
          132 -653 rmoveto
          -9 24 -21 -47 callgsubr
          -70 callgsubr
          -71 hlineto
          -208 -357 -128 -211 -47 -65 rrcurveto
          80 hlineto
          11 27 39 68 66 110 rrcurveto
          251 hlineto
          17 -115 8 -68 1 -22 rrcurveto
          38 757 rmoveto
          -36 -35 -34 -36 -28 -19 19 27 36 35 34 36 28 19 -19 -27 vhcurveto
          -281 -491 rmoveto
          86 144 58 100 30 57 9 -95 11 -101 15 -105 rrcurveto
          endchar
        </CharString>
        <CharString name="Atilde">
          -49 callgsubr
          hstem
          585 hmoveto
          -106 callgsubr
          180 503 -72 callsubr
        </CharString>
        <CharString name="B">
          133 -7 callsubr
          -2 -28 -7 -31 -6 -31 -16 -78 -26 -125 -39 -183 rcurveline
          -14 -59 -52 callsubr
          234 hlineto
          54 47 10 21 41 hvcurveto
          57 29 33 45 11 62 rrcurveto
          hintmask 11110000
          14 callsubr
          8 vvcurveto
          34 -12 30 -23 25 vhcurveto
          -20 22 -23 14 -26 5 35 5 31 14 27 24 30 26 19 32 8 37 rrcurveto
          -64 6 rmoveto
          -10 -48 -29 -34 -47 -19 rrcurveto
          -10 -25 -26 -5 -25 hhcurveto
          -151 hlineto
          49 227 151 1 rlineto
          23 20 -4 -7 19 hvcurveto
          hintmask 11101000
          36 -13 18 -25 -36 vvcurveto
          -9 -1 -9 -2 -9 vhcurveto
          -51 -295 rmoveto
          -77 -15 -57 -39 -97 hhcurveto
          -155 hlineto
          52 244 rlineto
          146 hlineto
          19 23 -6 -13 26 hvcurveto
          hintmask 11110000
          40 -20 20 -29 -38 vvcurveto
          -7 -1 -7 -1 -8 vhcurveto
          endchar
        </CharString>
        <CharString name="Beta">
          139 -7 callsubr
          -5 -43 -13 -63 -13 -63 -13 -62 -13 -62 -39 -183 rcurveline
          -14 -59 -52 callsubr
          234 hlineto
          54 47 10 21 41 hvcurveto
          57 29 33 45 11 62 rrcurveto
          hintmask 11110000
          14 callsubr
          8 vvcurveto
          34 -12 30 -23 25 vhcurveto
          -20 22 -23 14 -26 5 35 5 31 14 27 24 30 26 19 32 8 37 rrcurveto
          -64 6 rmoveto
          -10 -48 -29 -34 -47 -19 rrcurveto
          -10 -25 -26 -5 -25 hhcurveto
          -151 hlineto
          49 227 151 1 rlineto
          23 20 -4 -7 19 hvcurveto
          hintmask 11101000
          36 -13 18 -25 -36 vvcurveto
          -9 -1 -9 -2 -9 vhcurveto
          -51 -295 rmoveto
          -77 -15 -57 -39 -97 hhcurveto
          -155 hlineto
          52 244 rlineto
          146 hlineto
          19 23 -6 -13 26 hvcurveto
          hintmask 11110000
          40 -20 20 -29 -38 vvcurveto
          -7 -1 -7 -1 -8 vhcurveto
          endchar
        </CharString>
        <CharString name="Breve">
          -106 662 36 86 -20 hstem
          496 784 -53 callsubr
        </CharString>
        <CharString name="Brevesmall">
          -106 530 60 92 -20 hstem
          169 32 vstem
          446 682 rmoveto
          -24 hlineto
          -61 -25 -42 -31 -59 hhcurveto
          -66 -32 31 61 3 hvcurveto
          -24 hlineto
          -4 -4 rlineto
          -3 -14 -1 -13 -12 vvcurveto
          -73 38 -36 75 41 36 14 29 30 vhcurveto
          30 29 19 35 9 41 rrcurveto
          endchar
        </CharString>
        <CharString name="C">
          71 -10 59 526 59 hstem
          42 71 vstem
          538 -79 callgsubr
          endchar
        </CharString>
        <CharString name="Cacute">
          77 callsubr
          222 -20 hstem
          34 71 vstem
          530 -79 callgsubr
          -76 242 rmoveto
          -81 -174 47 -16 97 167 rlineto
          endchar
        </CharString>
        <CharString name="Caron">
          -106 685 -21 155 -20 hstem
          526 819 -77 callsubr
        </CharString>
        <CharString name="Caronsmall">
          -106 547 -21 160 -20 hstem
          471 686 rmoveto
          -32 hlineto
          -150 -111 -103 111 rlineto
          -32 hlineto
          -3 -4 94 -156 rlineto
          67 hlineto
          160 156 rlineto
          endchar
        </CharString>
        <CharString name="Ccaron">
          77 callsubr
          187 -20 hstem
          34 71 vstem
          530 -79 callgsubr
          26 207 -77 callsubr
        </CharString>
        <CharString name="Ccedilla">
          71 11 -21 585 59 hstem
          42 71 vstem
          267 -134 rmoveto
          11 17 5 16 16 vvcurveto
          25 -11 18 -22 13 vhcurveto
          13 17 rlineto
          2 vlineto
          29 33 4 9 37 hvcurveto
          33 7 18 4 4 -1 11 40 8 31 7 22 rrcurveto
          -47 hlineto
          -7 -17 -8 -11 -8 -7 rrcurveto
          -15 -18 -29 -7 -40 hhcurveto
          -55 -43 19 39 -31 hvcurveto
          -29 36 -15 46 55 vvcurveto
          79 26 73 52 67 vhcurveto
          55 72 65 37 77 3 44 2 29 -7 13 -16 4 -14 2 -12 -1 -9 rrcurveto
          47 hlineto
          4 46 4 32 4 17 -5 -1 -16 3 -28 7 rrcurveto
          7 -28 -28 4 -29 hhcurveto
          -90 -78 -30 -61 -65 hvcurveto
          -61 -57 -41 -73 -19 -90 rrcurveto
          -5 -26 -3 -26 -26 vvcurveto
          -62 14 -53 29 -45 vhcurveto
          31 -48 43 -30 54 -12 74 callgsubr
          -1 -4 vhcurveto
          -19 -7 5 callsubr
        </CharString>
        <CharString name="Ccircumflex">
          77 callsubr
          198 -20 hstem
          34 71 vstem
          530 -79 callgsubr
          45 94 rmoveto
          1 -26 20 41 -51 hvcurveto
          -51 41 -26 21 1 1 55 callsubr
          rcurveline
          29 -39 rlineto
          70 109 56 35 1 hhcurveto
          121 -100 rlineto
          endchar
        </CharString>
        <CharString name="Cdotaccent">
          77 callsubr
          32 94 hstem
          34 71 vstem
          530 -79 callgsubr
          -76 101 -61 callgsubr
        </CharString>
        <CharString name="Cedilla">
          -56 -173 -21 185 -20 hstemhm
          206 45 vstemhm
          251 -114 rmoveto
          24 -14 22 -28 20 vhcurveto
          -11 6 -3 7 6 8 12 16 rcurveline
          -34 2 -30 -54 rlineto
          -5 vlineto
          38 -15 19 -21 -25 vvcurveto
          -20 -19 -16 -12 -4 -8 5 9 -11 vhcurveto
          9 -11 -8 4 -6 hhcurveto
          hintmask 11100000
          -15 -8 -8 -16 -21 18 -11 35 48 46 36 44 hvcurveto
          endchar
        </CharString>
        <CharString name="Cedillasmall">
          -106 -210 34 81 35 60 -20 hstem
          126 70 vstem
          196 -128 rmoveto
          45 -27 23 -55 -3 -7 -1 -1 -11 vhcurveto
          43 62 rlineto
          -37 hlineto
          -59 -93 8 -8 rlineto
          4 18 11 2 5 hhcurveto
          23 21 -15 -21 -30 -17 -15 -33 -17 -23 5 9 -28 hvcurveto
          -17 -28 rlineto
          -13 33 27 -7 21 hhcurveto
          33 27 5 11 22 hvcurveto
          28 14 14 22 30 vvcurveto
          endchar
        </CharString>
        <CharString name="Chi">
          182 21 -21 626 -20 hstem
          575 626 rmoveto
          -21 -39 -24 -32 -26 -25 -156 -153 rcurveline
          -86 156 -15 36 -12 31 -9 26 rlinecurve
          -107 hlineto
          14 -12 35 -52 56 -93 23 -39 27 -45 54 callgsubr
          23 37 25 32 28 28 33 callsubr
          168 162 103 99 39 36 rlinecurve
          endchar
        </CharString>
        <CharString name="Circumflex">
          -106 690 -21 163 -20 hstem
          602 708 rmoveto
          1 -26 20 41 -51 hvcurveto
          -51 41 -26 21 1 1 55 callsubr
          rcurveline
          29 -39 rlineto
          70 109 56 35 1 hhcurveto
          121 -100 40 34 rlineto
          endchar
        </CharString>
        <CharString name="Circumflexsmall">
          -106 547 -21 160 -20 hstem
          344 686 rmoveto
          -63 hlineto
          -160 -156 1 -4 rlineto
          32 hlineto
          148 111 102 -111 rlineto
          32 hlineto
          2 4 rlineto
          endchar
        </CharString>
        <CharString name="Commaaccent">
          -439 87 callgsubr
          -20 hstem
          -12 -68 -58 callgsubr
        </CharString>
        <CharString name="Commaaccentsmall">
          -73 -186 -21 86 80 hstemhm
          -47 93 vstemhm
          46 -104 rmoveto
          17 -4 14 -7 11 vhcurveto
          14 -9 -12 7 -16 hhcurveto
          -24 -21 -16 -24 -23 17 -17 23 hvcurveto
          4 9 8 4 hhcurveto
          hintmask 11100000
          3 1 1 -4 -9 vvcurveto
          -29 -27 -30 -28 -8 vhcurveto
          -15 vlineto
          25 3 20 13 17 21 rrcurveto
          17 21 8 22 23 vvcurveto
          endchar
        </CharString>
        <CharString name="D">
          167 0 65 486 70 -33 callgsubr
          endchar
        </CharString>
        <CharString name="Dcaron">
          185 0 65 486 70 200 -20 -33 callgsubr
          27 518 -77 callsubr
        </CharString>
        <CharString name="Delta">
          151 -1 53 580 -20 hstem
          571 -1 rmoveto
          -9 23 -20 113 -32 202 -13 84 -14 98 -17 113 rrcurveto
          -71 hlineto
          -205 -357 -126 -211 -47 -65 rrcurveto
          468 53 rmoveto
          -239 -120 0 1 1 hvcurveto
          17 31 48 84 79 137 71 123 49 87 26 50 27 -215 23 -171 18 -127 rrcurveto
          endchar
        </CharString>
        <CharString name="Dieresis">
          -106 672 96 1 -20 hstemhm
          hintmask 10000000
          365 719 -69 callsubr
          hintmask 01000000
          -63 callgsubr
        </CharString>
        <CharString name="Dieresissmall">
          8 542 92 hstem
          270 100 168 100 vstem
          568 542 rmoveto
          15 16 7 13 93 callsubr
          10 -21 -16 -16 -7 -14 -15 vhcurveto
          -15 -13 -7 -15 -15 vvcurveto
          -19 10 -9 20 vhcurveto
          -268 hmoveto
          15 16 7 14 93 callsubr
          9 -20 -32 -38 -32 -32 -19 10 -9 20 vhcurveto
          endchar
        </CharString>
        <CharString name="Dmacron">
          -46 callgsubr
        </CharString>
        <CharString name="Dotaccent">
          -106 666 94 hstem
          410 715 -61 callgsubr
        </CharString>
        <CharString name="Dotaccentsmall">
          -106 553 106 hstem
          241 109 vstem
          284 553 rmoveto
          35 31 30 35 27 -14 14 -29 -15 -13 -5 -10 -13 hvcurveto
          -17 -14 -8 -16 -19 vvcurveto
          -24 19 -18 24 vhcurveto
          endchar
        </CharString>
        <CharString name="E">
          86 66 callgsubr
          535 -50 callsubr
          hintmask 10110000
          -105 callgsubr
          endchar
        </CharString>
        <CharString name="Eacute">
          106 -57 callgsubr
          232 -20 hstemhm
          hintmask 01111000
          555 -50 callsubr
          hintmask 10111000
          -105 callgsubr
          -138 232 rmoveto
          -81 -174 47 -16 97 167 rlineto
          endchar
        </CharString>
        <CharString name="Ebreve">
          106 -57 callgsubr
          42 36 86 -20 hstemhm
          hintmask 01111100
          555 -50 callsubr
          hintmask 10111100
          -105 callgsubr
          -38 164 -53 callsubr
        </CharString>
        <CharString name="Ecaron">
          106 -57 callgsubr
          197 -20 hstemhm
          hintmask 01111000
          555 -50 callsubr
          hintmask 10111000
          -105 callgsubr
          -8 197 -77 callsubr
        </CharString>
        <CharString name="Ecircumflex">
          106 -57 callgsubr
          208 -20 hstemhm
          hintmask 01111000
          555 -50 callsubr
          hintmask 10111000
          -105 callgsubr
          8 84 rmoveto
          1 -26 20 41 -51 hvcurveto
          -51 41 -26 21 1 1 55 callsubr
          rcurveline
          29 -39 rlineto
          70 109 56 35 1 hhcurveto
          121 -100 rlineto
          endchar
        </CharString>
        <CharString name="Edieresis">
          106 -57 callgsubr
          48 96 1 -20 hstemhm
          hintmask 01111000
          555 -50 callsubr
          hintmask 10111000
          -105 callgsubr
          -23 95 -69 callsubr
          hintmask 10110100
          -63 callgsubr
        </CharString>
        <CharString name="Edotaccent">
          106 -57 callgsubr
          42 94 hstemhm
          hintmask 01111000
          555 -50 callsubr
          hintmask 10111000
          -105 callgsubr
          -124 91 -61 callgsubr
        </CharString>
        <CharString name="Egrave">
          106 -57 callgsubr
          252 -20 hstemhm
          hintmask 01111000
          555 -50 callsubr
          hintmask 10111000
          -105 callgsubr
          -188 252 -52 callgsubr
          endchar
        </CharString>
        <CharString name="Emacron">
          106 -57 callgsubr
          42 48 hstemhm
          hintmask 01111000
          555 -50 callsubr
          hintmask 10111000
          -105 callgsubr
          -329 90 -43 callsubr
        </CharString>
        <CharString name="Eng">
          201 -222 52 191 -21 626 79 callsubr
          hintmask 11100000
          565 626 rmoveto
          2 -25 -6 -43 43 callgsubr
          -62 -13 -62 -48 -227 rcurveline
          -9 42 -43 103 -75 164 rrcurveto
          hintmask 11010000
          -33 73 -37 78 -40 83 rrcurveto
          hintmask 11100000
          -1 -1 -33 0 -66 hhcurveto
          2 -7 1 -10 -12 vvcurveto
          -33 -17 -95 -33 -157 -21 callgsubr
          -11 -25 rrcurveto
          79 hlineto
          -1 24 5 43 12 62 13 60 13 60 13 61 55 259 rcurveline
          13 -40 46 -106 78 -171 33 -71 37 -82 43 -92 -16 -59 -11 -37 -6 -15 -15 -36 -21 -21 -25 -7 rrcurveto
          -1 -7 -6 -1 -6 hhcurveto
          -28 -27 15 29 -26 hvcurveto
          -30 -66 rlineto
          -20 19 31 -10 44 hhcurveto
          23 23 3 7 23 hvcurveto
          38 11 29 28 20 45 9 19 13 46 19 74 64 299 rcurveline
          39 186 14 62 13 43 11 25 rlinecurve
          endchar
        </CharString>
        <CharString name="Eogonek">
          101 -222 56 170 86 callsubr
          hstem
          534 624 -86 callsubr
          57 3 58 3 58 1 -51 -45 -28 -46 -4 -47 -67 callgsubr
          16 10 22 21 28 vhcurveto
          19 25 20 21 21 17 82 -1 56 -2 29 -1 -69 callgsubr
          -6 -10 -5 -45 callsubr
          -37 hhcurveto
          -211 hlineto
          19 81 18 77 16 74 136 3 83 -4 29 -11 18 86 rcurveline
          -9 -23 -85 -5 -145 hhcurveto
          23 107 14 68 7 28 rrcurveto
          185 hlineto
          39 21 -2 -5 3 hvcurveto
          3 -4 1 -8 -2 -13 rrcurveto
          50 hlineto
          5 41 7 32 8 23 rrcurveto
          endchar
        </CharString>
        <CharString name="Epsilon">
          96 66 callgsubr
          555 -50 callsubr
          hintmask 10110000
          -105 callgsubr
          endchar
        </CharString>
        <CharString name="Epsilon.alt">
          87 -10 59 229 60 237 59 hstem
          50 71 vstem
          546 614 rmoveto
          -5 -1 -16 3 -28 7 rrcurveto
          7 -28 -28 4 -29 hhcurveto
          -90 -77 -31 -61 -65 hvcurveto
          -61 -57 -41 -73 -19 -91 rrcurveto
          -6 -26 -3 -26 -27 vvcurveto
          -70 19 -59 38 -47 vhcurveto
          -51 41 54 -25 68 hhcurveto
          29 34 4 9 37 hvcurveto
          33 7 18 4 4 -1 11 40 8 31 7 22 rrcurveto
          -47 hlineto
          -7 -17 -8 -11 -8 -7 rrcurveto
          -15 -18 -29 -7 -40 hhcurveto
          -55 -43 19 39 -31 hvcurveto
          -29 36 -15 46 55 vvcurveto
          11 1 12 1 11 vhcurveto
          50 hlineto
          144 hlineto
          40 -1 29 -4 19 -7 18 86 rcurveline
          -9 -23 -79 -5 -134 hhcurveto
          -51 hlineto
          19 65 32 55 45 43 49 47 54 25 61 2 44 2 29 -7 13 -16 4 -14 2 -12 -1 -9 rrcurveto
          47 hlineto
          4 46 4 32 4 17 rrcurveto
          endchar
        </CharString>
        <CharString name="Eta">
          223 -11 callsubr
          hstem
          583 624 -103 callsubr
        </CharString>
        <CharString name="Eth">
          -46 callgsubr
        </CharString>
        <CharString name="Euro">
          305 0 54 188 53 54 54 188 54 hstem
          145 242 rmoveto
          13 -57 28 -50 42 -43 rrcurveto
          -61 61 77 -31 92 hhcurveto
          83 70 24 49 56 hvcurveto
          79 vlineto
          -65 -58 -70 -33 -81 hhcurveto
          -75 -64 26 51 -52 hvcurveto
          -32 32 -23 38 -12 41 rrcurveto
          360 hlineto
          23 53 rlineto
          -393 hlineto
          -1 8 0 10 9 vvcurveto
          8 0 11 1 8 vhcurveto
          416 hlineto
          22 54 rlineto
          -427 hlineto
          12 40 22 38 32 32 rrcurveto
          52 52 64 26 75 hhcurveto
          80 70 -32 -64 59 hvcurveto
          23 54 rlineto
          64 -63 -78 32 -91 hhcurveto
          -92 -77 -31 -62 -61 hvcurveto
          -42 -42 -28 -51 -13 -56 rrcurveto
          -73 hlineto
          -23 -54 rlineto
          88 hlineto
          -1 -8 0 -10 -9 vvcurveto
          -9 0 -10 1 -8 vhcurveto
          -65 hlineto
          -23 -53 rlineto
          endchar
        </CharString>
        <CharString name="F">
          94 66 callsubr
          548 -38 callsubr
        </CharString>
        <CharString name="G">
          113 88 callsubr
          hstem
          50 70 vstem
          544 -91 callgsubr
          endchar
        </CharString>
        <CharString name="Gamma">
          92 18 -21 566 58 3 -20 hstemhm
          hintmask 10100000
          575 624 rmoveto
          hintmask 11000000
          -2 -84 -69 -1 -53 hhcurveto
          hintmask 10100000
          -99 -68 1 2 -38 hvcurveto
          2 -23 -20 -109 -41 -193 -13 -60 -12 -59 -13 -59 -13 -58 -12 -41 -12 -25 rrcurveto
          92 hlineto
          -2 25 5 41 11 57 13 59 12 60 13 60 rrcurveto
          hintmask 11000000
          56 264 rlineto
          211 hlineto
          35 20 -4 -7 4 hvcurveto
          4 -7 1 -12 -3 -18 rrcurveto
          50 hlineto
          hintmask 10100000
          6 46 8 36 9 27 rrcurveto
          endchar
        </CharString>
        <CharString name="Gbreve">
          88 88 callsubr
          33 36 86 -20 hstem
          36 70 vstem
          530 -91 callgsubr
          -14 176 -53 callsubr
        </CharString>
        <CharString name="Gcircumflex">
          88 88 callsubr
          198 -20 hstem
          36 70 vstem
          530 -91 callgsubr
          28 95 rmoveto
          1 -26 20 41 -51 hvcurveto
          -51 41 -26 21 1 1 55 callsubr
          rcurveline
          29 -39 rlineto
          70 109 56 35 1 hhcurveto
          121 -100 rlineto
          endchar
        </CharString>
        <CharString name="Gcommaaccent">
          88 87 callgsubr
          59 0 58 528 57 hstemhm
          36 70 hintmask 10111000
          530 -91 callgsubr
          hintmask 11011000
          -310 -681 -58 callgsubr
        </CharString>
        <CharString name="Gdotaccent">
          88 88 callsubr
          32 94 hstem
          36 70 vstem
          530 -91 callgsubr
          -79 102 -61 callgsubr
        </CharString>
        <CharString name="Grave">
          687 -5 callsubr
          346 856 -52 callgsubr
          endchar
        </CharString>
        <CharString name="Gravesmall">
          72 486 -21 204 -20 hstem
          197 648 rmoveto
          14 -7 -13 7 -17 hhcurveto
          -26 -13 -12 -25 -13 4 -10 8 -8 hvcurveto
          139 -136 rlineto
          25 hlineto
          endchar
        </CharString>
        <CharString name="H">
          237 -11 callsubr
          hstem
          583 -30 callgsubr
          endchar
        </CharString>
        <CharString name="H18533">
          -45 67 -21 284 -20 hstem
          194 330 rmoveto
          -39 -34 -14 -28 -28 hvcurveto
          -27 -27 -14 -34 -39 vvcurveto
          -39 14 -34 27 -28 vhcurveto
          -27 27 34 -14 40 hhcurveto
          39 34 14 27 27 hvcurveto
          27 28 14 34 39 vvcurveto
          39 -14 34 -28 27 vhcurveto
          28 -27 -33 14 -39 hhcurveto
          endchar
        </CharString>
        <CharString name="H18543">
          -116 92 186 hstem
          65 186 vstem
          65 278 rmoveto
          -186 186 186 vlineto
          endchar
        </CharString>
        <CharString name="H18551">
          -116 94 30 125 31 hstem
          68 30 125 31 vstem
          68 280 rmoveto
          -186 186 186 vlineto
          -31 -156 rmoveto
          -125 125 125 hlineto
          endchar
        </CharString>
        <CharString name="H22073">
          4 -4 30 319 30 hstem
          29 30 319 30 vstem
          29 -4 rmoveto
          379 379 -379 hlineto
          349 -30 rmoveto
          -319 -319 319 vlineto
          endchar
        </CharString>
        <CharString name="Hbar">
          221 89 callgsubr
          93 52 -52 181 hstemhm
          hintmask 11100000
          617 495 rmoveto
          hintmask 11010000
          14 69 callsubr
          rrcurveto
          -89 91 callsubr
          -351 hlineto
          hintmask 11010000
          15 59 13 43 12 27 rrcurveto
          -93 91 callsubr
          -48 hlineto
          -11 -52 rlineto
          49 hlineto
          -13 -56 -9 -44 -7 -31 rrcurveto
          -26 -123 -13 -61 -1 vvcurveto
          -14 -60 -52 callsubr
          93 hlineto
          -1 28 16 95 35 162 rrcurveto
          349 hlineto
          -34 -157 -24 -95 -14 -33 21 callgsubr
          31 18 103 37 176 28 133 rcurveline
          59 hlineto
          11 52 rlineto
          -157 -145 rmoveto
          -350 hlineto
          6 29 6 31 7 33 rrcurveto
          352 hlineto
          endchar
        </CharString>
        <CharString name="Hcircumflex">
          221 -11 callsubr
          228 -20 hstem
          567 -30 callgsubr
          -54 84 rmoveto
          1 -26 20 41 -51 hvcurveto
          -51 41 -26 21 1 1 55 callsubr
          rcurveline
          29 -39 rlineto
          70 109 56 35 1 hhcurveto
          121 -100 rlineto
          endchar
        </CharString>
        <CharString name="Hungarumlaut">
          233 687 -5 callsubr
          483 856 rmoveto
          -44 -174 50 -16 62 167 rlineto
          -176 23 rmoveto
          -44 -174 50 -16 62 167 rlineto
          endchar
        </CharString>
        <CharString name="Hungarumlautsmall">
          -15 530 -21 hstem
          196 576 47 callgsubr
          -11 -9 -165 -124 rcurveline
          17 -12 rlineto
          367 67 47 callgsubr
          -12 -9 -164 -124 rcurveline
          17 -12 rlineto
          endchar
        </CharString>
        <CharString name="I">
          -191 21 -21 623 -20 hstem
          170 623 -48 callsubr
          -13 -61 -14 -62 -13 -61 -13 -61 -52 callsubr
          89 hlineto
          -1 25 6 42 13 61 13 61 12 60 13 61 13 61 12 callsubr
          14 61 13 43 11 25 rrcurveto
          endchar
        </CharString>
        <CharString name="IJ">
          66 -10 48 -35 -21 643 -20 hstemhm
          hintmask 10100000
          143 613 -48 callsubr
          -13 -61 -14 -62 -13 -61 -13 -61 -52 callsubr
          89 hlineto
          -1 25 6 42 13 61 13 61 12 60 13 61 13 61 12 callsubr
          14 61 13 43 11 25 rrcurveto
          278 12 -34 callsubr
          hintmask 01100000
          -22 callgsubr
          endchar
        </CharString>
        <CharString name="Iacute">
          70 callsubr
          856 -20 hstem
          43 callsubr
          -13 -61 -14 -62 -13 -61 -13 -61 -52 callsubr
          89 hlineto
          -1 25 6 42 13 61 13 61 12 60 13 61 13 61 12 callsubr
          14 61 13 43 11 25 rrcurveto
          24 233 rmoveto
          -81 -174 47 -16 97 167 rlineto
          endchar
        </CharString>
        <CharString name="Ibreve">
          70 callsubr
          666 36 86 -20 hstem
          43 callsubr
          -13 -61 -14 -62 -13 -61 -13 -61 -52 callsubr
          89 hlineto
          -1 25 6 42 13 61 13 61 12 60 13 61 13 61 12 callsubr
          14 61 13 43 11 25 rrcurveto
          100 165 -53 callsubr
        </CharString>
        <CharString name="Icircumflex">
          -82 21 -21 832 -20 hstem
          43 callsubr
          -13 -61 -14 -62 -13 -61 -13 -61 -52 callsubr
          89 hlineto
          -1 25 6 42 13 61 13 61 12 60 13 61 13 61 12 callsubr
          14 61 13 43 11 25 rrcurveto
          149 85 rmoveto
          1 -26 20 41 -51 hvcurveto
          -51 41 -26 21 1 1 55 callsubr
          rcurveline
          29 -39 rlineto
          70 109 56 35 1 hhcurveto
          121 -100 rlineto
          endchar
        </CharString>
        <CharString name="Idieresis">
          -107 21 -21 672 96 1 -20 hstemhm
          hintmask 11000000
          43 callsubr
          -13 -61 -14 -62 -13 -61 -13 -61 -52 callsubr
          89 hlineto
          -1 25 6 42 13 61 13 61 12 60 13 61 13 61 12 callsubr
          14 61 13 43 11 25 rrcurveto
          124 96 -69 callsubr
          hintmask 10100000
          -63 callgsubr
        </CharString>
        <CharString name="Idotaccent">
          70 callsubr
          666 94 hstem
          43 callsubr
          -13 -61 -14 -62 -13 -61 -13 -61 -52 callsubr
          89 hlineto
          -1 25 6 42 13 61 13 61 12 60 13 61 13 61 12 callsubr
          14 61 13 43 11 25 rrcurveto
          18 92 -61 callgsubr
        </CharString>
        <CharString name="Igrave">
          70 callsubr
          856 -20 hstem
          43 callsubr
          -13 -61 -14 -62 -13 -61 -13 -61 -52 callsubr
          89 hlineto
          -1 25 6 42 13 61 13 61 12 60 13 61 13 61 12 callsubr
          14 61 13 43 11 25 rrcurveto
          -90 233 -52 callgsubr
          endchar
        </CharString>
        <CharString name="Imacron">
          70 callsubr
          667 48 hstem
          43 callsubr
          -13 -61 -14 -62 -13 -61 -13 -61 -52 callsubr
          89 hlineto
          -1 25 6 42 13 61 13 61 12 60 13 61 13 61 12 callsubr
          14 61 13 43 11 25 rrcurveto
          -182 92 -43 callsubr
        </CharString>
        <CharString name="Iogonek">
          -197 -222 56 187 -21 623 -20 hstem
          43 callsubr
          -36 -169 -24 -99 -12 -29 -59 -47 -32 -50 -5 -52 -67 callgsubr
          15 10 21 19 27 vhcurveto
          17 24 19 21 20 17 rrcurveto
          28 hlineto
          -1 25 6 42 13 61 13 61 12 60 13 61 13 61 12 callsubr
          14 61 13 43 11 25 rrcurveto
          endchar
        </CharString>
        <CharString name="Iota">
          70 callsubr
          623 -20 hstem
          162 623 -48 callsubr
          4 callsubr
          -60 -52 callsubr
          89 hlineto
          -1 25 6 42 13 61 13 61 12 60 13 61 13 61 12 callsubr
          14 61 13 43 11 25 rrcurveto
          endchar
        </CharString>
        <CharString name="Iotadieresis">
          -133 21 -21 665 85 1 -20 hstemhm
          hintmask 11000000
          43 callsubr
          4 callsubr
          -60 -52 callsubr
          89 hlineto
          -1 25 6 42 13 61 13 61 12 60 13 61 13 61 12 callsubr
          14 61 13 43 11 25 rrcurveto
          98 84 rmoveto
          21 5 -16 22 -21 hhcurveto
          -23 -24 -22 -21 1 callsubr
          14 -19 24 hhcurveto
          23 23 19 23 4 hvcurveto
          -175 2 rmoveto
          hintmask 10100000
          20 4 -15 22 -23 hhcurveto
          -23 -24 -8 callgsubr
          15 -19 24 hhcurveto
          23 23 19 23 5 hvcurveto
          endchar
        </CharString>
        <CharString name="Itilde">
          70 callsubr
          hstem
          43 callsubr
          -13 -61 -14 -62 -13 -61 -13 -61 -52 callsubr
          89 hlineto
          -1 25 6 42 13 61 13 61 12 60 13 61 13 61 12 callsubr
          14 61 13 43 11 25 rrcurveto
          164 143 -72 callsubr
        </CharString>
        <CharString name="J">
          -67 -18 56 587 -20 hstem
          272 625 -34 callsubr
          -22 callgsubr
          endchar
        </CharString>
        <CharString name="Jcircumflex">
          -38 -18 56 587 -20 227 -20 hstem
          301 625 -34 callsubr
          -22 callgsubr
          159 83 rmoveto
          1 -26 20 41 -51 hvcurveto
          -51 41 -26 21 1 1 55 callsubr
          rcurveline
          29 -39 rlineto
          70 109 56 35 1 hhcurveto
          121 -100 rlineto
          endchar
        </CharString>
        <CharString name="K">
          172 21 -21 624 -20 hstem
          509 -56 callsubr
          -13 -61 -13 -62 -14 -61 -13 -61 -52 callsubr
          2 callsubr
          endchar
        </CharString>
        <CharString name="Kappa">
          138 21 -21 624 -20 hstem
          509 -56 callsubr
          -39 -185 -14 -60 -36 callsubr
          rlinecurve
          2 callsubr
          endchar
        </CharString>
        <CharString name="Kcommaaccent">
          167 -227 -21 269 -21 624 -20 hstem
          488 -56 callsubr
          -13 -61 -13 -62 -14 -61 -13 -61 -52 callsubr
          2 callsubr
          -48 -692 -58 callgsubr
        </CharString>
        <CharString name="L">
          58 -3 66 561 -20 hstem
          416 -73 callgsubr
          endchar
        </CharString>
        <CharString name="Lacute">
          14 -3 66 561 -20 252 -20 hstem
          394 -73 callgsubr
          -198 750 rmoveto
          -81 -174 47 -16 97 167 rlineto
          endchar
        </CharString>
        <CharString name="Lambda">
          21 -21 633 -20 hstem
          557 hmoveto
          -9 24 -20 -47 callgsubr
          -70 callgsubr
          -69 hlineto
          -209 -357 -128 -211 -47 -65 rrcurveto
          83 hlineto
          14 31 50 88 86 144 74 124 57 100 41 76 17 -152 13 -100 7 -48 22 -151 11 -87 1 -25 rrcurveto
          86 hlineto
          endchar
        </CharString>
        <CharString name="Lcaron">
          73 -3 66 561 -20 62 -20 hstem
          394 -73 callgsubr
          30 560 rmoveto
          -81 -174 48 -16 96 167 rlineto
          endchar
        </CharString>
        <CharString name="Lcommaaccent">
          14 87 callgsubr
          65 0 66 561 -20 hstemhm
          hintmask 10110000
          394 -73 callgsubr
          hintmask 11010000
          -255 -174 -58 callgsubr
        </CharString>
        <CharString name="Ldot">
          14 -3 66 253 110 198 -20 hstem
          281 110 vstem
          394 -73 callgsubr
          -52 265 rmoveto
          31 -24 24 -31 -31 -24 -24 -31 -31 24 -24 31 31 24 24 31 vhcurveto
          endchar
        </CharString>
        <CharString name="Lslash">
          41 -3 66 561 -20 hstem
          4 328 rmoveto
          -9 1 -27 -9 vvcurveto
          108 27 -38 -175 -29 -116 -11 -22 rlinecurve
          4 95 69 2 43 hhcurveto
          53 1 68 -2 84 -4 -69 callgsubr
          -5 -10 -6 -45 callsubr
          -36 hhcurveto
          -211 hlineto
          58 266 139 39 -2 12 -4 19 -2 13 rlinecurve
          -121 -33 7 35 9 43 8 35 rlinecurve
          14 63 13 44 12 25 rrcurveto
          -91 hlineto
          1 -25 -4 -40 -11 -56 -12 -56 -7 -31 -12 -56 rrcurveto
          endchar
        </CharString>
        <CharString name="M">
          341 -43 callgsubr
        </CharString>
        <CharString name="Macron">
          -106 664 48 hstem
          201 712 -43 callsubr
        </CharString>
        <CharString name="Macronsmall">
          -106 574 44 hstem
          447 618 rmoveto
          -298 hlineto
          -9 -44 rlineto
          297 hlineto
          endchar
        </CharString>
        <CharString name="Mu">
          338 -43 callgsubr
        </CharString>
        <CharString name="N">
          226 59 callsubr
          21 -20 hstemhm
          hintmask 11000000
          -41 callsubr
          hintmask 10100000
          29 callgsubr
          hintmask 11000000
          -74 callgsubr
          endchar
        </CharString>
        <CharString name="Nacute">
          226 21 -21 856 -20 hstem
          -41 callsubr
          29 callgsubr
          -74 callgsubr
          -176 234 rmoveto
          -81 -174 47 -16 97 167 rlineto
          endchar
        </CharString>
        <CharString name="Ncaron">
          226 21 -21 819 -20 hstem
          -41 callsubr
          29 callgsubr
          -74 callgsubr
          -89 197 -77 callsubr
        </CharString>
        <CharString name="Ncommaaccent">
          226 -227 -21 269 -21 622 79 callsubr
          hintmask 11100000
          -41 callsubr
          hintmask 11010000
          29 callgsubr
          hintmask 11100000
          -74 callgsubr
          -427 -690 -58 callgsubr
        </CharString>
        <CharString name="Ntilde">
          226 21 -21 hstem
          -41 callsubr
          29 callgsubr
          -74 callgsubr
          -44 144 -72 callsubr
        </CharString>
        <CharString name="Nu">
          223 59 callsubr
          21 -20 hstemhm
          hintmask 11000000
          -41 callsubr
          hintmask 10100000
          29 callgsubr
          hintmask 11000000
          -1 -1 -33 0 -66 hhcurveto
          2 -7 1 -10 -11 vvcurveto
          -31 -17 -94 -33 -157 -21 callgsubr
          -11 -25 rrcurveto
          79 hlineto
          -1 24 5 43 12 62 13 60 13 60 13 61 55 255 rcurveline
          13 -40 47 -106 79 -172 33 -72 39 -82 43 -93 rrcurveto
          61 hlineto
          66 310 39 183 13 69 callsubr
          rlinecurve
          endchar
        </CharString>
        <CharString name="O">
          221 -9 callsubr
          hstem
          42 74 458 76 vstem
          639 -104 callsubr
          endchar
        </CharString>
        <CharString name="OE">
          448 -11 75 -61 61 241 60 194 64 -52 64 hstemhm
          34 76 hintmask 10110100
          903 623 rmoveto
          -87 -4 -69 -2 -52 1 rrcurveto
          2 -111 -59 1 -7 hhcurveto
          hintmask 10101100
          9 -25 -35 5 -47 hhcurveto
          -98 -83 -31 -63 -69 hvcurveto
          -65 -59 -41 -77 -15 -95 rrcurveto
          -4 -24 -2 -23 -23 vvcurveto
          -75 20 -59 39 -45 vhcurveto
          -48 42 60 -24 77 hhcurveto
          45 37 2 5 27 hvcurveto
          hintmask 01110100
          5 79 71 2 61 hhcurveto
          -2 callsubr
          -8 -7 -22 -4 -36 hhcurveto
          -211 hlineto
          52 241 136 3 83 -4 29 -11 rlinecurve
          18 86 rlineto
          -9 -23 -84 -5 -146 hhcurveto
          23 104 14 65 6 25 rrcurveto
          185 hlineto
          39 21 -3 -5 3 hvcurveto
          3 -5 1 -8 -2 -11 rrcurveto
          50 hlineto
          6 41 7 32 8 23 rrcurveto
          -397 -81 rmoveto
          -19 -91 -15 -71 -12 -51 -31 -147 -19 -84 -5 -21 -30 -16 -39 -7 -49 2 -60 3 -45 19 -30 35 rrcurveto
          -28 33 -14 44 55 vvcurveto
          19 2 21 4 22 vhcurveto
          12 71 31 61 51 51 rrcurveto
          hintmask 10101100
          54 53 62 27 71 1 43 1 36 -9 30 -21 rrcurveto
          endchar
        </CharString>
        <CharString name="Oacute">
          28 callgsubr
          224 -20 hstem
          33 74 458 76 vstem
          630 -104 callsubr
          -66 554 rmoveto
          -81 -174 47 -16 97 167 rlineto
          endchar
        </CharString>
        <CharString name="Obreve">
          28 callgsubr
          33 36 86 -20 hstem
          33 74 458 76 vstem
          630 -104 callsubr
          3 485 -53 callsubr
        </CharString>
        <CharString name="Ocircumflex">
          28 callgsubr
          200 -20 hstem
          33 74 458 76 vstem
          630 -104 callsubr
          55 406 rmoveto
          1 -26 20 41 -51 hvcurveto
          -51 41 -26 21 1 1 55 callsubr
          rcurveline
          29 -39 rlineto
          70 109 56 35 1 hhcurveto
          121 -100 rlineto
          endchar
        </CharString>
        <CharString name="Odieresis">
          28 callgsubr
          40 96 1 -20 hstemhm
          33 74 458 76 hintmask 11101100
          630 -104 callsubr
          18 417 -69 callsubr
          hintmask 11011100
          -63 callgsubr
        </CharString>
        <CharString name="Ogonek">
          -106 -193 49 144 -20 hstem
          59 59 vstem
          274 -123 rmoveto
          -10 15 rlineto
          -8 hlineto
          -24 -30 -29 -12 -28 hhcurveto
          -34 -17 16 32 25 20 32 41 39 hvcurveto
          -36 hlineto
          -56 -37 -28 -38 -38 vvcurveto
          -45 34 -35 47 42 45 21 43 47 vhcurveto
          endchar
        </CharString>
        <CharString name="Ogoneksmall">
          -106 -189 51 138 -20 hstem
          38 60 vstem
          242 -126 rmoveto
          4 4 2 4 5 vvcurveto
          6 -3 3 -6 -3 -2 -1 -1 -3 vhcurveto
          -21 -39 -31 -11 -24 hhcurveto
          -26 -13 11 21 30 27 35 53 41 hvcurveto
          -32 hlineto
          -28 -17 -24 -19 -20 -23 rrcurveto
          -24 -27 -12 -25 -23 vvcurveto
          -11 3 -11 6 -9 vhcurveto
          -16 11 17 -8 25 hhcurveto
          23 25 6 13 27 hvcurveto
          27 13 23 14 17 17 rrcurveto
          endchar
        </CharString>
        <CharString name="Ograve">
          28 callgsubr
          224 -20 hstem
          33 74 458 76 vstem
          630 -104 callsubr
          -180 554 -52 callgsubr
          endchar
        </CharString>
        <CharString name="Ohorn">
          8 callgsubr
          45 callgsubr
          hintmask 10111100
          725 702 -87 callsubr
          -8 -17 -20 -4 -24 hhcurveto
          hintmask 11011100
          -85 callsubr
          endchar
        </CharString>
        <CharString name="Ohungarumlaut">
          28 callgsubr
          224 -20 hstem
          33 74 458 76 vstem
          630 -104 callsubr
          -72 554 rmoveto
          -44 -174 50 -16 62 167 rlineto
          -176 23 rmoveto
          -44 -174 50 -16 62 167 rlineto
          endchar
        </CharString>
        <CharString name="Omacron">
          28 callgsubr
          34 48 hstem
          33 74 458 76 vstem
          630 -104 callsubr
          -279 412 -43 callsubr
        </CharString>
        <CharString name="Omega">
          271 0 24 callsubr
          hstemhm
          102 25 callsubr
          hintmask 10111000
          674 374 -78 callgsubr
          hintmask 01111000
          -28 callgsubr
          -50 hlineto
          -3 -40 -6 -35 -10 -29 rrcurveto
          261 hlineto
          6 29 3 16 -1 1 -1 29 -17 41 -34 55 rrcurveto
          -33 53 -16 54 57 vvcurveto
          16 2 15 3 14 vhcurveto
          121 29 94 75 127 hhcurveto
          109 61 -56 -93 -15 -1 -15 -3 -17 hvcurveto
          -13 -67 -44 -69 -76 -73 -51 -49 -35 -41 -20 -35 rrcurveto
          -1 -3 -16 -6 -29 vhcurveto
          259 hlineto
          1 24 8 35 16 45 rrcurveto
          -50 hlineto
          -4 -14 -5 25 callgsubr
          hintmask 10111000
          -80 callsubr
          endchar
        </CharString>
        <CharString name="Omega.alt">
          341 -11 63 583 -20 hstem
          50 76 265 48 264 67 vstem
          757 244 rmoveto
          9 42 4 41 41 vvcurveto
          109 -29 89 -57 69 vhcurveto
          -61 -53 9 -6 10 -14 13 -21 rlinecurve
          13 -21 9 -20 7 -18 rrcurveto
          13 -36 6 -42 -47 vvcurveto
          -41 -5 -42 -11 -44 vhcurveto
          -13 -56 -24 -45 -34 -34 rrcurveto
          -29 -29 -29 -14 -27 hhcurveto
          -32 -23 9 17 -15 hvcurveto
          -18 23 -7 38 3 55 3 45 8 44 13 45 5 19 7 18 7 17 rrcurveto
          -86 hlineto
          1 -52 -12 -62 -26 -71 -20 -54 -28 -40 -35 -25 -27 -19 -28 -9 -28 3 rrcurveto
          -45 4 -22 34 63 vvcurveto
          21 3 23 5 26 vhcurveto
          19 92 44 89 68 86 29 36 29 29 30 21 -45 58 rcurveline
          -129 -123 -82 -135 -35 -146 rrcurveto
          -8 -31 -4 -29 -26 vvcurveto
          -57 17 -42 34 -28 vhcurveto
          -19 23 25 -10 25 hhcurveto
          97 72 47 95 48 hvcurveto
          -1 -94 46 -47 91 -1 41 -1 41 18 41 37 53 47 35 67 19 87 rrcurveto
          endchar
        </CharString>
        <CharString name="Omicron">
          229 -9 callsubr
          hstem
          50 42 callsubr
          647 301 -98 callsubr
          58 -24 75 -1 86 -1 78 31 69 62 67 61 42 73 19 87 rrcurveto
          -75 1 rmoveto
          -15 -68 -32 -58 -49 -47 rrcurveto
          -51 -52 -59 -25 -65 hhcurveto
          -112 -65 69 108 81 28 76 55 69 hvcurveto
          75 59 69 37 79 hhcurveto
          113 56 -59 -117 -28 -3 -30 -7 -32 hvcurveto
          endchar
        </CharString>
        <CharString name="Oslash">
          241 -78 -21 88 67 525 67 116 -51 callsubr
          endchar
        </CharString>
        <CharString name="Oslashacute">
          241 -78 -21 88 67 525 67 200 -51 callsubr
          -33 267 rmoveto
          -133 -138 40 -31 145 127 rlineto
          endchar
        </CharString>
        <CharString name="Otilde">
          28 callgsubr
          -64 223 hstemhm
          33 74 458 76 hintmask 11011000
          630 -104 callsubr
          66 464 rmoveto
          -12 8 -12 8 -13 7 -13 -43 -37 -34 -24 1 -15 1 -26 12 -36 25 rrcurveto
          hintmask 10111000
          -41 27 -30 14 -20 -1 -35 -2 -36 -33 -37 -64 42 -19 rcurveline
          21 43 20 23 19 1 11 1 22 -11 33 -22 rrcurveto
          -28 41 33 -14 23 hhcurveto
          46 41 33 67 35 hvcurveto
          endchar
        </CharString>
        <CharString name="P">
          95 21 -21 265 60 239 58 hstem
          465 74 vstem
          534 439 27 callsubr
          16 -27 -31 8 -35 hhcurveto
          88 callgsubr
          -6 -43 -13 -62 -13 -61 43 callgsubr
          -61 -12 -61 -13 -61 -14 -59 -13 -41 -11 -25 rrcurveto
          91 hlineto
          -1 25 4 34 8 45 11 53 9 40 6 27 6 27 -2 -11 5 23 39 -1 78 1 25 2 130 9 75 58 20 107 rrcurveto
          -72 8 rmoveto
          -10 -48 -24 -34 -37 -19 -16 -9 -23 -6 -31 -4 -14 -2 -46 -1 -79 1 25 117 18 80 9 42 73 1 46 -1 18 -1 rrcurveto
          63 -5 31 -29 -52 vvcurveto
          -9 -1 -10 -2 -11 vhcurveto
          endchar
        </CharString>
        <CharString name="Phi">
          242 0 130 -54 54 393 52 -52 104 1 -20 hstemhm
          50 73 476 72 hintmask 10101110
          665 321 rmoveto
          4 22 2 21 20 vvcurveto
          129 -72 63 -144 -1 vhcurveto
          8 25 6 17 3 11 rrcurveto
          hintmask 10010110
          -92 -1 1 -17 0 -17 -3 -19 rlinecurve
          -87 -76 -28 -58 -65 hvcurveto
          -67 -58 -33 -72 -86 vvcurveto
          -56 17 -46 36 -35 vhcurveto
          -41 39 57 -20 74 hhcurveto
          -12 -40 -9 -24 -6 -10 rrcurveto
          93 hlineto
          hintmask 01101110
          -1 19 2 25 5 32 88 3 74 24 58 47 53 43 34 58 13 70 rrcurveto
          -74 hmoveto
          -11 -52 -24 -43 -39 -35 -43 -38 -54 -21 -64 -1 40 186 rcurveline
          20 98 15 68 9 40 rrcurveto
          107 -1 52 -47 -91 vvcurveto
          -19 -3 -21 -5 -23 vhcurveto
          -222 200 rmoveto
          -19 -88 -14 -69 -11 -48 -17 -85 -13 -62 -8 -39 rrcurveto
          -110 -54 47 93 16 2 17 4 18 hvcurveto
          12 60 28 49 44 36 rrcurveto
          37 43 53 18 60 hhcurveto
          endchar
        </CharString>
        <CharString name="Pi">
          191 20 -21 570 57 7 -20 hstemhm
          hintmask 10100000
          688 -38 callgsubr
        </CharString>
        <CharString name="Psi">
          165 20 -21 624 79 callsubr
          78 75 hintmask 10110000
          586 624 rmoveto
          3 -37 -8 -39 -20 -40 -45 -88 -66 -49 -87 -11 28 147 21 88 14 29 rrcurveto
          hintmask 11010000
          -91 -1 2 -28 -15 -88 -33 -148 rlinecurve
          -45 5 -34 20 -25 33 -20 28 -11 32 -1 37 -2 46 6 36 14 27 rrcurveto
          -81 hlineto
          -8 -37 -4 -34 -31 vvcurveto
          -133 66 -75 132 -16 vhcurveto
          -12 -59 -12 -58 -13 -58 -13 -57 -12 -41 -12 -25 91 1 rcurveline
          -1 35 17 99 36 163 84 4 70 29 57 53 rrcurveto
          hintmask 10110000
          62 58 37 80 13 103 rrcurveto
          endchar
        </CharString>
        <CharString name="Q">
          221 -135 188 -65 65 514 65 hstemhm
          42 75 457 76 hintmask 01111000
          639 301 rmoveto
          7 32 4 31 30 vvcurveto
          72 -19 57 -37 43 vhcurveto
          -41 47 -60 22 -78 -3 -93 -3 -81 -32 -67 -63 -63 -59 -42 -76 -19 -91 rrcurveto
          -5 -26 -3 -26 -25 vvcurveto
          -71 20 -57 40 -44 vhcurveto
          -47 43 59 -24 74 hhcurveto
          27 26 3 7 26 hvcurveto
          17 -51 rlineto
          hintmask 10111000
          12 -37 5 -27 -3 -18 rrcurveto
          107 hlineto
          -27 42 -22 38 -17 33 -15 40 rcurveline
          56 25 48 38 41 51 41 51 26 57 13 61 rrcurveto
          -75 1 rmoveto
          -15 -68 -32 -58 -49 -47 rrcurveto
          -51 -52 -59 -25 -65 hhcurveto
          -112 -63 69 109 82 26 75 53 68 hvcurveto
          74 57 68 37 79 hhcurveto
          58 44 -17 -33 30 hvcurveto
          28 -31 14 -43 -56 vvcurveto
          -26 -3 -28 -7 -31 vhcurveto
          endchar
        </CharString>
        <CharString name="R">
          124 69 callgsubr
          hstem
          379 79 8 72 vstem
          535 -82 callsubr
          endchar
        </CharString>
        <CharString name="Racute">
          102 69 callgsubr
          235 -20 hstem
          357 79 8 72 vstem
          513 -82 callsubr
          -63 400 rmoveto
          -81 -174 47 -16 97 167 rlineto
          endchar
        </CharString>
        <CharString name="Rcaron">
          102 69 callgsubr
          198 -20 hstem
          357 79 8 72 vstem
          513 -82 callsubr
          44 363 -77 callsubr
        </CharString>
        <CharString name="Rcommaaccent">
          102 -227 -21 269 -21 292 53 0 221 0 55 hstem
          357 79 8 72 vstem
          513 -82 callsubr
          -258 -524 -58 callgsubr
        </CharString>
        <CharString name="Rho">
          104 21 -21 265 60 239 58 hstem
          465 74 vstem
          534 439 27 callsubr
          16 -27 -31 8 -35 hhcurveto
          88 callgsubr
          -6 -43 -13 -62 -13 -61 43 callgsubr
          -61 -12 -61 -13 -61 -14 -59 -13 -41 -11 -25 rrcurveto
          91 hlineto
          -1 25 4 34 8 45 11 53 9 40 6 27 6 27 -2 -11 5 23 39 -1 78 1 25 2 130 9 75 58 20 107 rrcurveto
          -72 8 rmoveto
          -10 -48 -24 -34 -37 -19 -16 -9 -23 -6 -31 -4 -14 -2 -46 -1 -79 1 25 117 18 80 9 42 73 1 46 -1 18 -1 rrcurveto
          63 -5 31 -29 -52 vvcurveto
          -9 -1 -10 -2 -11 vhcurveto
          endchar
        </CharString>
        <CharString name="Ring">
          -106 663 96 callgsubr
          hstem
          292 35 119 34 vstem
          367 663 -25 callgsubr
        </CharString>
        <CharString name="Ringsmall">
          -106 518 21 134 21 hstem
          199 40 112 40 vstem
          345 541 rmoveto
          31 21 15 28 37 vvcurveto
          41 -34 26 -43 -26 -24 -8 -16 -22 vhcurveto
          -29 -22 -14 -28 -33 vvcurveto
          -41 34 -28 43 23 23 8 15 23 vhcurveto
          6 83 rmoveto
          -25 -9 -21 -18 -19 vhcurveto
          -13 -13 -15 -7 -15 hhcurveto
          -28 -14 17 35 19 7 19 13 17 hvcurveto
          18 14 17 9 19 hhcurveto
          28 14 -16 -33 hvcurveto
          endchar
        </CharString>
        <CharString name="S">
          78 callgsubr
          hstem
          99 65 vstem
          -84 callsubr
          endchar
        </CharString>
        <CharString name="Sacute">
          78 callgsubr
          225 -20 hstem
          99 65 vstem
          -84 callsubr
          -125 251 rmoveto
          -81 -174 47 -16 97 167 rlineto
          endchar
        </CharString>
        <CharString name="Scaron">
          78 callgsubr
          188 -20 hstem
          99 65 vstem
          -84 callsubr
          3 214 -77 callsubr
        </CharString>
        <CharString name="Scedilla">
          118 -176 216 546 57 hstem
          111 75 84 50 vstem
          527 614 rmoveto
          -5 -1 -17 4 -30 7 -45 12 -33 6 -19 1 -65 3 -56 -14 -48 -31 -50 -33 -31 -47 -13 -59 rrcurveto
          -3 -11 -1 -12 -11 vvcurveto
          -45 15 -33 29 -22 vhcurveto
          15 -12 34 -14 51 -15 55 -17 38 -15 20 -12 36 -21 17 -26 -3 -31 -2 -26 -13 -24 -23 -22 -20 -17 -21 -13 -23 -7 rrcurveto
          -11 -34 -31 -5 -28 hhcurveto
          -46 -39 14 28 -33 hvcurveto
          -14 12 -7 12 1 11 rrcurveto
          -38 hlineto
          -13 -49 -8 -34 -4 -18 11 2 15 -2 18 -7 43 -17 43 -9 45 -2 -8 -36 rcurveline
          31 3 22 -4 14 -9 rrcurveto
          34 callgsubr
          -1 9 8 0 9 hhcurveto
          81 46 51 53 9 -2 10 -4 9 hvcurveto
          -5 13 -11 10 -17 7 25 5 24 7 24 9 45 17 35 25 25 33 rrcurveto
          24 30 12 32 35 vvcurveto
          25 -7 23 -13 21 vhcurveto
          -20 32 -36 25 -52 18 -41 13 -40 13 -41 13 rrcurveto
          -39 16 -20 24 33 vvcurveto
          45 17 36 34 29 vhcurveto
          34 29 40 13 45 -1 45 -1 35 -11 25 -21 6 -5 3 -13 -1 -21 rrcurveto
          38 hlineto
          10 49 7 33 3 18 rrcurveto
          endchar
        </CharString>
        <CharString name="Scircumflex">
          78 callgsubr
          201 -20 hstem
          99 65 vstem
          -84 callsubr
          6 103 rmoveto
          1 -26 20 41 -51 hvcurveto
          -51 41 -26 21 1 1 55 callsubr
          rcurveline
          29 -39 rlineto
          70 109 56 35 1 hhcurveto
          121 -100 rlineto
          endchar
        </CharString>
        <CharString name="Scommaaccent">
          86 87 callgsubr
          58 0 58 527 56 hstemhm
          99 65 hintmask 10111000
          -84 callsubr
          hintmask 11011000
          -336 -673 -58 callgsubr
        </CharString>
        <CharString name="Sigma">
          121 -1 64 500 60 5 -20 hstemhm
          hintmask 10100000
          588 -37 callsubr
        </CharString>
        <CharString name="T">
          158 21 -21 516 106 hstemhm
          -11 callgsubr
          hintmask 11000000
          -48 callgsubr
          endchar
        </CharString>
        <CharString name="Tau">
          141 21 -21 516 106 hstemhm
          83 622 rmoveto
          -2 -21 -3 -19 -4 -16 -1 -4 -4 -17 -9 -29 rrcurveto
          51 hlineto
          7 23 8 15 11 5 rrcurveto
          hintmask 11000000
          4 8 18 2 29 hhcurveto
          126 hlineto
          -57 -268 -23 -110 -13 -59 -2 -8 rlinecurve
          -13 -55 -13 -40 -12 -25 rrcurveto
          92 hlineto
          -1 24 4 39 11 55 13 60 13 60 13 59 57 267 rcurveline
          128 hlineto
          26 16 -1 -2 6 hvcurveto
          9 -3 5 -9 -13 vvcurveto
          -6 0 -7 -1 -8 vhcurveto
          50 hlineto
          7 48 8 36 7 23 rrcurveto
          endchar
        </CharString>
        <CharString name="Tbar">
          104 21 -21 398 52 65 106 hstemhm
          37 621 rmoveto
          -2 -21 -3 -19 -3 -16 -1 -4 -5 -17 -8 -29 rrcurveto
          51 hlineto
          6 23 8 15 11 5 rrcurveto
          hintmask 11100000
          4 8 18 2 29 hhcurveto
          126 hlineto
          -24 -114 rlineto
          -175 hlineto
          -11 -52 rlineto
          175 hlineto
          -22 -102 -35 -166 -26 -99 -15 -31 rlinecurve
          92 hlineto
          -1 24 5 40 11 55 39 177 rcurveline
          21 102 rlineto
          199 hlineto
          11 52 rlineto
          -199 hlineto
          24 113 rlineto
          128 hlineto
          26 16 -1 -2 6 hvcurveto
          10 -3 5 -9 -14 vvcurveto
          -5 -1 -7 -1 -8 vhcurveto
          50 hlineto
          8 48 8 36 7 23 rrcurveto
          endchar
        </CharString>
        <CharString name="Tcaron">
          170 21 -21 516 106 197 -20 hstemhm
          -11 callgsubr
          hintmask 11100000
          -48 callgsubr
          -126 197 -77 callsubr
        </CharString>
        <CharString name="Tcommaaccent">
          170 87 callgsubr
          68 565 57 hstem
          -11 callgsubr
          -48 callgsubr
          -459 -690 -58 callgsubr
        </CharString>
        <CharString name="Theta">
          229 -12 65 224 60 231 64 hstem
          50 42 callsubr
          647 301 -98 callsubr
          58 -24 75 -1 86 -1 78 31 69 62 67 61 42 73 19 87 rrcurveto
          -75 1 rmoveto
          -15 -68 -32 -58 -49 -47 rrcurveto
          -51 -52 -59 -25 -65 hhcurveto
          -112 -65 69 108 81 28 76 55 69 hvcurveto
          75 59 69 37 79 hhcurveto
          113 56 -59 -117 -28 -3 -30 -7 -32 hvcurveto
          -59 44 rmoveto
          -7 -4 -28 -3 -49 -2 -21 -1 -25 -1 -27 -1 -91 1 -50 4 -7 6 -16 -78 rcurveline
          55 6 51 3 46 1 93 -1 51 -3 9 -5 rrcurveto
          endchar
        </CharString>
        <CharString name="Thorn">
          57 21 -21 143 61 243 59 -59 176 hstem
          415 73 vstem
          484 322 rmoveto
          3 14 1 13 13 vvcurveto
          51 -20 39 -40 25 vhcurveto
          -28 18 -31 9 -34 1 -139 3 rcurveline
          13 53 11 39 11 23 rrcurveto
          -90 hlineto
          -73 callsubr
          4 callsubr
          -60 -52 callsubr
          89 hlineto
          -1 26 7 48 14 69 rrcurveto
          1 51 47 0 42 hhcurveto
          47 3 41 11 35 20 57 31 34 48 12 65 rrcurveto
          -73 8 rmoveto
          -9 -48 -24 -34 -37 -21 -18 -10 -24 -7 -29 -4 -15 -2 -46 -1 -78 1 10 47 8 35 5 24 30 137 rcurveline
          73 1 46 -1 18 -1 rrcurveto
          63 -5 31 -29 -52 vvcurveto
          -9 -1 -10 -3 -11 vhcurveto
          endchar
        </CharString>
        <CharString name="Tilde">
          -106 687 -21 hstem
          603 766 -72 callsubr
        </CharString>
        <CharString name="Tildesmall">
          -106 550 59 -37 -21 49 59 2 -20 hstemhm
          hintmask 10010000
          474 661 rmoveto
          -25 hlineto
          -35 -20 -22 -17 -25 hhcurveto
          -12 -22 8 17 -31 hvcurveto
          hintmask 01100000
          17 -31 -25 8 -19 hhcurveto
          -26 -26 -11 -23 -25 hvcurveto
          -22 -21 -17 -23 -11 -27 2 -3 rcurveline
          24 hlineto
          33 20 23 16 25 hhcurveto
          12 21 -8 -17 31 hvcurveto
          hintmask 10010000
          -17 31 24 -8 19 hhcurveto
          27 27 12 24 25 hvcurveto
          21 20 17 24 12 28 rrcurveto
          endchar
        </CharString>
        <CharString name="U">
          80 callsubr
          568 79 callsubr
          86 76 hintmask 11010000
          598 622 -9 callgsubr
          -26 -141 -17 -85 -7 -27 -17 -65 -24 -49 -33 -31 rrcurveto
          -34 -37 -48 -17 -61 hhcurveto
          -101 -51 45 90 19 2 20 5 22 hvcurveto
          13 59 16 73 20 87 rrcurveto
          hintmask 10110000
          19 83 15 51 9 20 rrcurveto
          -102 hlineto
          1 -17 -1 -24 -5 -30 -26 -131 -20 -96 -14 -63 rrcurveto
          -5 -27 -3 -26 -24 vvcurveto
          -43 9 -38 19 -31 vhcurveto
          -57 33 62 -29 89 hhcurveto
          91 73 25 51 57 hvcurveto
          45 41 33 65 20 91 26 123 19 92 13 61 rrcurveto
          hintmask 11010000
          9 37 9 29 10 20 rrcurveto
          endchar
        </CharString>
        <CharString name="Uacute">
          80 callsubr
          802 -20 hstem
          86 76 vstem
          598 -94 callgsubr
          -208 234 rmoveto
          -81 -174 47 -16 97 167 rlineto
          endchar
        </CharString>
        <CharString name="Ubreve">
          80 callsubr
          608 36 86 -20 hstem
          86 76 vstem
          598 -94 callgsubr
          -117 162 -53 callsubr
        </CharString>
        <CharString name="Ucircumflex">
          80 callsubr
          778 -20 hstem
          86 76 vstem
          598 -94 callgsubr
          -66 86 rmoveto
          1 -26 20 41 -51 hvcurveto
          -51 41 -26 21 1 1 55 callsubr
          rcurveline
          29 -39 rlineto
          70 109 56 35 1 hhcurveto
          121 -100 rlineto
          endchar
        </CharString>
        <CharString name="Udieresis">
          80 callsubr
          618 96 1 -20 hstemhm
          86 76 hintmask 11010000
          598 -94 callgsubr
          -101 97 -69 callsubr
          hintmask 10110000
          -63 callgsubr
        </CharString>
        <CharString name="Ugrave">
          80 callsubr
          802 -20 hstem
          86 76 vstem
          598 -94 callgsubr
          -293 234 -52 callgsubr
          endchar
        </CharString>
        <CharString name="Uhorn">
          261 -17 28 callsubr
          hstemhm
          20 77 622 62 hintmask 10111000
          776 730 -87 callsubr
          hintmask 11011000
          -84 callgsubr
          endchar
        </CharString>
        <CharString name="Uhungarumlaut">
          80 callsubr
          802 -20 hstem
          86 76 vstem
          598 -94 callgsubr
          -192 234 rmoveto
          -44 -174 50 -16 62 167 rlineto
          -176 23 rmoveto
          -44 -174 50 -16 62 167 rlineto
          endchar
        </CharString>
        <CharString name="Umacron">
          80 callsubr
          611 48 hstem
          86 76 vstem
          598 -94 callgsubr
          -406 91 -43 callsubr
        </CharString>
        <CharString name="Uogonek">
          206 -222 56 150 66 576 79 callsubr
          20 77 hintmask 11101000
          534 626 -9 callgsubr
          -27 -146 -17 -87 -7 -28 -17 -65 -25 -49 -33 -31 rrcurveto
          -34 -36 -48 -17 -61 hhcurveto
          -101 -51 45 90 19 2 20 5 22 hvcurveto
          13 65 14 65 13 65 21 91 17 61 15 33 rrcurveto
          hintmask 11011000
          -102 1 1 -16 -1 -24 -5 -31 rlinecurve
          -26 -133 -20 -99 -15 -66 rrcurveto
          -6 -27 -3 -26 -24 vvcurveto
          -43 9 -38 19 -31 vhcurveto
          31 -52 54 -28 78 -5 -38 -39 -21 -40 -3 -39 -67 callgsubr
          1 29 23 37 46 45 66 7 56 24 45 41 46 41 33 66 20 91 27 127 21 95 13 64 rrcurveto
          hintmask 11101000
          10 39 9 28 8 17 rrcurveto
          endchar
        </CharString>
        <CharString name="Upsilon">
          39 6 callsubr
          hstem
          468 51 callsubr
          -18 -28 -32 -36 -149 -167 rcurveline
          -76 168 rlineto
          -11 24 -5 21 18 vvcurveto
          8 1 6 1 5 vhcurveto
          -104 hlineto
          13 -11 21 -38 31 -65 39 -89 27 -65 17 -39 -37 -174 -28 -106 -18 -37 96 -1 rcurveline
          -1 24 6 43 13 62 12 callsubr
          13 61 44 51 44 50 44 50 74 83 51 54 27 24 rrcurveto
          endchar
        </CharString>
        <CharString name="Upsilondieresis">
          39 6 callsubr
          53 84 hstem
          468 51 callsubr
          -18 -28 -32 -36 -149 -167 rcurveline
          -76 168 rlineto
          -11 24 -5 21 18 vvcurveto
          8 1 6 1 5 vhcurveto
          -104 hlineto
          13 -11 21 -38 31 -65 39 -89 27 -65 17 -39 -37 -174 -28 -106 -18 -37 96 -1 rcurveline
          -1 24 6 43 13 62 12 callsubr
          13 61 44 51 44 50 44 50 74 83 51 54 27 24 rrcurveto
          -268 75 rmoveto
          21 5 -15 21 -23 hhcurveto
          -23 -24 -21 -21 3 callgsubr
          24 hhcurveto
          23 23 21 21 4 hvcurveto
          177 hmoveto
          21 5 -15 21 -23 hhcurveto
          -23 -24 -21 -21 3 callgsubr
          24 hhcurveto
          23 23 21 21 4 hvcurveto
          endchar
        </CharString>
        <CharString name="Uring">
          80 callsubr
          609 96 callgsubr
          hstem
          86 76 209 35 119 34 vstem
          598 -94 callgsubr
          -257 41 -25 callgsubr
        </CharString>
        <CharString name="Utilde">
          80 callsubr
          hstem
          86 76 vstem
          598 -94 callgsubr
          -54 144 -72 callsubr
        </CharString>
        <CharString name="V">
          132 59 callsubr
          hstem
          531 622 rmoveto
          -7 -30 -42 -81 -76 -133 -59 -102 -60 -102 -59 -103 rrcurveto
          4 -14 103 -27 202 vhcurveto
          -18 133 -9 81 -1 28 rrcurveto
          -83 hlineto
          9 -24 20 -111 32 -197 13 -83 14 -96 17 -111 rrcurveto
          71 hlineto
          202 347 124 208 45 67 rrcurveto
          endchar
        </CharString>
        <CharString name="W">
          16 callsubr
          hstemhm
          531 54 hintmask 10110000
          866 622 rmoveto
          -15 -35 -40 -81 -64 -127 -65 -129 -54 -104 -43 -79 -17 233 -12 188 -7 145 rrcurveto
          -49 hlineto
          -1 -1 rlineto
          -2 -40 -80 -80 -159 vhcurveto
          -84 -167 -55 -107 -26 -47 -8 73 -9 103 -9 133 rrcurveto
          hintmask 11010000
          -9 124 -4 82 -1 39 rrcurveto
          -90 hlineto
          74 -624 rlineto
          79 hlineto
          104 188 85 156 66 125 19 -218 13 -156 7 -95 rrcurveto
          81 hlineto
          183 333 112 207 42 82 rrcurveto
          endchar
        </CharString>
        <CharString name="Wacute">
          16 callsubr
          243 -66 callsubr
          -391 234 rmoveto
          -81 -174 47 -16 97 167 rlineto
          endchar
        </CharString>
        <CharString name="Wcircumflex">
          16 callsubr
          219 -66 callsubr
          -234 86 rmoveto
          1 -26 20 41 -51 hvcurveto
          -51 41 -26 21 1 1 55 callsubr
          rcurveline
          29 -39 rlineto
          70 109 56 35 1 hhcurveto
          121 -100 rlineto
          endchar
        </CharString>
        <CharString name="Wdieresis">
          16 callsubr
          59 96 1 -20 hstemhm
          531 54 hintmask 10110100
          866 622 rmoveto
          -15 -35 -40 -81 -64 -127 -65 -129 -54 -104 -43 -79 -17 233 -12 188 -7 145 rrcurveto
          -49 hlineto
          -1 -1 rlineto
          -2 -40 -80 -80 -159 vhcurveto
          -84 -167 -55 -107 -26 -47 -8 73 -9 103 -9 133 rrcurveto
          hintmask 11010100
          -9 124 -4 82 -1 39 rrcurveto
          -90 hlineto
          74 -624 rlineto
          79 hlineto
          104 188 85 156 66 125 19 -218 13 -156 7 -95 rrcurveto
          81 hlineto
          183 333 112 207 42 82 rrcurveto
          -262 97 -69 callsubr
          hintmask 10101100
          -63 callgsubr
        </CharString>
        <CharString name="Wgrave">
          16 callsubr
          243 -66 callsubr
          -449 234 -52 callgsubr
          endchar
        </CharString>
        <CharString name="X">
          223 59 callsubr
          hstem
          597 622 rmoveto
          -21 -39 -24 -32 -25 -25 -157 -149 rcurveline
          -85 152 -15 36 -12 31 -9 26 rlinecurve
          -108 hlineto
          15 -12 35 -52 55 -91 23 -38 27 -44 54 callgsubr
          20 36 25 32 31 29 33 callsubr
          169 159 103 98 39 36 rlinecurve
          endchar
        </CharString>
        <CharString name="Xi">
          119 -2 59 249 49 211 62 hstem
          602 628 rmoveto
          -112 -4 -86 -2 -59 -1 -53 -1 -68 2 -85 3 -17 -45 -12 -29 -9 -14 rrcurveto
          49 hlineto
          7 12 6 8 6 3 rrcurveto
          4 6 29 2 52 hhcurveto
          210 hlineto
          -373 -236 rlineto
          -16 -1 -8 -1 vhcurveto
          300 hlineto
          -380 -263 -9 -45 rlineto
          4 113 87 2 60 hhcurveto
          53 1 68 -2 85 -4 3 7 4 15 7 23 5 15 5 14 7 13 rrcurveto
          -44 hlineto
          -13 -21 -8 -5 -24 -1 rrcurveto
          -1 -9 -20 0 -33 hhcurveto
          -220 -1 386 267 2 11 2 10 3 10 rlinecurve
          -294 hlineto
          366 230 9 43 rlineto
          endchar
        </CharString>
        <CharString name="Xi1.alt">
          113 -2 59 -47 -21 32 -21 567 59 7 -20 hstemhm
          hintmask 10001000
          580 558 65 callsubr
          hintmask 10001000
          -119 -74 2 5 -31 hvcurveto
          -16 -75 rlineto
          hintmask 01010000
          20 5 23 3 27 1 rrcurveto
          73 callsubr
          85 callsubr
          -157 -287 rmoveto
          -9 5 -44 3 -80 1 -40 -1 -45 -3 -49 -6 16 78 rcurveline
          7 -6 44 -4 79 -1 41 1 45 4 51 7 rrcurveto
          20 -360 65 callsubr
          -119 -74 2 5 -31 hvcurveto
          hintmask 01010000
          -16 -75 rlineto
          hintmask 10010000
          20 5 23 3 27 1 rrcurveto
          hintmask 00110000
          73 callsubr
          hintmask 01010000
          85 callsubr
          endchar
        </CharString>
        <CharString name="Xi2.alt">
          113 -2 59 -47 -21 32 -21 280 58 231 57 7 -20 hstemhm
          hintmask 10011000
          475 64 rmoveto
          -5 -32 -67 -2 -101 hhcurveto
          18 93 15 75 12 55 61 -1 34 -3 8 -5 17 78 rcurveline
          -9 -5 -36 -4 -63 -2 26 124 18 77 9 30 rrcurveto
          49 44 -1 -1 37 hvcurveto
          25 -1 22 -3 18 -5 rrcurveto
          hintmask 10010100
          16 75 rlineto
          hintmask 10011000
          -5 -32 -77 -2 -123 hhcurveto
          hintmask 10010100
          -119 -75 2 5 -31 hvcurveto
          -16 -75 21 5 24 3 25 1 rlinecurve
          hintmask 10011000
          33 1 39 0 46 1 -17 -97 -16 -77 -13 -57 -55 1 -31 4 -7 5 -16 -78 rcurveline
          9 4 33 3 55 2 -25 -117 -17 -74 -9 -31 rrcurveto
          -91 -61 2 5 -32 hvcurveto
          hintmask 01011000
          -16 -75 rlineto
          hintmask 10011000
          21 5 24 3 25 1 rrcurveto
          hintmask 00111000
          1 46 53 1 59 hhcurveto
          111 38 0 1 -33 hvcurveto
          hintmask 01011000
          85 callsubr
          endchar
        </CharString>
        <CharString name="Y">
          79 6 callsubr
          hstem
          470 -81 callsubr
          endchar
        </CharString>
        <CharString name="Yacute">
          89 6 callsubr
          252 -20 hstem
          470 -81 callsubr
          -186 232 rmoveto
          -81 -174 47 -16 97 167 rlineto
          endchar
        </CharString>
        <CharString name="Ycircumflex">
          89 6 callsubr
          228 -20 hstem
          470 -81 callsubr
          -50 84 rmoveto
          1 -26 20 41 -51 hvcurveto
          -51 41 -26 21 1 1 55 callsubr
          rcurveline
          29 -39 rlineto
          70 109 56 35 1 hhcurveto
          121 -100 rlineto
          endchar
        </CharString>
        <CharString name="Ydieresis">
          89 6 callsubr
          68 96 1 -20 hstemhm
          hintmask 11100000
          470 -81 callsubr
          -76 95 -69 callsubr
          hintmask 11010000
          -63 callgsubr
        </CharString>
        <CharString name="Ygrave">
          89 6 callsubr
          252 -20 hstem
          470 -81 callsubr
          -273 232 -52 callgsubr
          endchar
        </CharString>
        <CharString name="Z">
          36 callsubr
          2 -20 hstemhm
          hintmask 10100000
          625 -34 callgsubr
        </CharString>
        <CharString name="Zacute">
          36 callsubr
          232 -20 -62 callgsubr
          314 794 rmoveto
          -81 -174 47 -16 97 167 rlineto
          endchar
        </CharString>
        <CharString name="Zcaron">
          36 callsubr
          195 -20 -62 callgsubr
          426 757 -77 callsubr
        </CharString>
        <CharString name="Zdotaccent">
          36 callsubr
          42 94 -62 callgsubr
          338 653 -61 callgsubr
        </CharString>
        <CharString name="Zeta">
          132 0 63 -44 -21 563 63 2 -20 hstemhm
          hintmask 10100000
          615 -34 callgsubr
        </CharString>
        <CharString name="_364">
          124 542 92 hstemhm
          148 94 0 174 hintmask 10100000
          509 589 rmoveto
          24 5 -18 21 -24 hhcurveto
          -29 -27 -27 -29 -24 12 -12 25 24 27 22 25 5 hvcurveto
          -324 -47 rmoveto
          28 29 28 28 24 -12 12 -25 hvcurveto
          hintmask 11000000
          -29 -28 -26 -29 -25 12 -12 25 hvcurveto
          endchar
        </CharString>
        <CharString name="_927">
          61 endchar
        </CharString>
        <CharString name="_928">
          -250 486 -21 205 -20 hstem
          178 635 rmoveto
          23 -11 12 -22 -18 57 callgsubr
          9 9 4 11 14 vvcurveto
          endchar
        </CharString>
        <CharString name="_929">
          -125 -199 -21 205 -20 hstem
          110 -185 rmoveto
          -23 11 -12 22 18 12 6 13 7 vhcurveto
          97 182 -21 4 -133 -136 rlineto
          -9 -9 -4 -11 -14 vvcurveto
          endchar
        </CharString>
        <CharString name="_930">
          -439 -239 155 hstem
          266 -192 rmoveto
          -7 -9 -8 -3 -6 hhcurveto
          -5 -3 2 4 -3 hvcurveto
          -5 4 -1 9 3 15 18 84 rcurveline
          -70 hlineto
          -17 -82 rlineto
          -2 -11 -1 -9 -8 vvcurveto
          -30 15 -15 30 27 24 12 25 20 vhcurveto
          endchar
        </CharString>
        <CharString name="_939">
          -439 -218 106 hstem
          -53 106 vstem
          53 -165 -78 callsubr
          endchar
        </CharString>
        <CharString name="_940">
          -439 542 -21 194 -20 hstem
          114 528 rmoveto
          -4 6 -1 6 1 6 1 7 16 15 29 24 30 25 17 20 3 16 rrcurveto
          1 5 0 5 5 vvcurveto
          31 -19 16 -37 -17 -16 -4 -9 -15 vhcurveto
          -17 -9 -12 -11 -7 -14 -1 -1 7 -6 15 -9 10 13 11 8 13 2 rrcurveto
          24 3 12 -8 -20 vvcurveto
          -13 -11 -18 -22 -21 vhcurveto
          -22 -21 -12 -16 -3 -11 -3 -15 5 -9 14 -5 10 7 rcurveline
          endchar
        </CharString>
        <CharString name="a">
          86 -54 callgsubr
          2 -20 hstemhm
          35 69 272 49 hintmask 10011100
          72 callsubr
          hintmask 10101100
          -98 callgsubr
          rrcurveto
          hintmask 01011100
          -93 callgsubr
          hintmask 10101100
          -89 callsubr
          endchar
        </CharString>
        <CharString name="aacute">
          86 -54 callgsubr
          246 -20 hstemhm
          35 76 callsubr
          -45 callgsubr
          hintmask 01111100
          -93 callgsubr
          hintmask 10111100
          -89 callsubr
          -43 448 rmoveto
          -81 -174 48 -16 96 167 rlineto
          endchar
        </CharString>
        <CharString name="abreve">
          86 -54 callgsubr
          68 36 86 -20 hstemhm
          35 69 272 49 hintmask 10111110
          -45 callgsubr
          hintmask 01111110
          -93 callgsubr
          hintmask 10111110
          -89 callsubr
          81 392 -83 callsubr
          endchar
        </CharString>
        <CharString name="acircumflex">
          86 -54 callgsubr
          228 -20 hstemhm
          35 76 callsubr
          -45 callgsubr
          hintmask 01111100
          -93 callgsubr
          hintmask 10111100
          -89 callsubr
          126 306 -87 callgsubr
          rlineto
          endchar
        </CharString>
        <CharString name="acute">
          -271 474 -5 callsubr
          93 643 rmoveto
          -81 -174 48 -16 96 167 rlineto
          endchar
        </CharString>
        <CharString name="acutecomb">
          -6 callgsubr
        </CharString>
        <CharString name="adieresis">
          86 -54 callgsubr
          67 84 hstemhm
          35 76 callsubr
          -45 callgsubr
          hintmask 01111100
          -93 callgsubr
          hintmask 10111100
          -89 callsubr
          -113 311 rmoveto
          21 5 -15 21 -23 hhcurveto
          -23 -24 -21 -21 3 callgsubr
          24 hhcurveto
          23 23 21 21 4 hvcurveto
          177 hmoveto
          21 5 -15 21 -23 hhcurveto
          -23 -24 -21 -21 3 callgsubr
          24 hhcurveto
          23 23 21 21 4 hvcurveto
          endchar
        </CharString>
        <CharString name="ae">
          202 -12 57 152 53 90 55 7 -20 hstemhm
          -3 59 502 64 hintmask 11101100
          21 callsubr
          hintmask 11011100
          -31 callgsubr
          hintmask 11101100
          -2 callgsubr
          endchar
        </CharString>
        <CharString name="aeacute">
          202 -12 57 152 53 90 55 248 -20 hstem
          -3 59 502 64 vstem
          21 callsubr
          -31 callgsubr
          -2 callgsubr
          152 433 rmoveto
          -81 -174 48 -16 96 167 rlineto
          endchar
        </CharString>
        <CharString name="afii61248">
          258 -11 28 -13 -21 271 27 131 37 218 36 hstemhm
          20 61 299 64 171 65 hintmask 01111111
          253 467 rmoveto
          -12 -25 -23 -6 -20 hhcurveto
          -34 -26 13 26 -19 hvcurveto
          -17 23 -8 30 35 vvcurveto
          61 26 30 53 29 32 -15 -13 5 vhcurveto
          1 -3 1 -10 1 -17 4 -5 rcurveline
          16 hlineto
          4 5 2 27 3 26 5 23 rlinecurve
          12 -21 -26 6 -31 hhcurveto
          -21 -15 -2 -4 -11 hvcurveto
          -42 -18 -29 -18 -17 -17 rrcurveto
          -20 -21 -10 -32 -41 vvcurveto
          -85 56 -53 85 32 29 7 15 27 vhcurveto
          14 22 rlineto
          -188 -473 rmoveto
          38 hlineto
          450 700 -3 5 rlineto
          -39 hlineto
          -449 -700 rlineto
          308 146 rmoveto
          -41 14 -34 27 -28 vhcurveto
          hintmask 10111111
          -28 27 34 -14 41 hhcurveto
          28 26 7 13 25 hvcurveto
          52 28 26 44 61 vvcurveto
          84 -60 55 -84 -45 -37 -14 -27 -30 vhcurveto
          -29 -27 -15 -35 -44 vvcurveto
          64 20 rmoveto
          67 26 33 52 33 25 -15 -30 16 vhcurveto
          13 -23 6 -30 -36 vvcurveto
          -69 -26 -34 -51 -33 -24 15 31 -17 vhcurveto
          -13 25 -7 30 36 vvcurveto
          endchar
        </CharString>
        <CharString name="agrave">
          86 -54 callgsubr
          242 -20 hstemhm
          35 76 callsubr
          -45 callgsubr
          hintmask 01111100
          -93 callgsubr
          hintmask 10111100
          -89 callsubr
          -129 444 -52 callgsubr
          endchar
        </CharString>
        <CharString name="alpha">
          97 -54 callgsubr
          2 90 callgsubr
          273 50 hintmask 10011100
          518 14 callgsubr
          -43 -44 -9 -45 rrcurveto
          hintmask 10101100
          -99 callsubr
          rrcurveto
          hintmask 01011100
          -97 callsubr
          hintmask 10101100
          -27 -32 -35 -13 -38 hhcurveto
          -64 -40 42 65 13 2 13 3 14 hvcurveto
          8 39 16 38 -30 callsubr
          27 31 37 9 33 hhcurveto
          64 46 -51 -64 -9 -1 -10 -2 -9 hvcurveto
          endchar
        </CharString>
        <CharString name="amacron">
          86 -54 callgsubr
          71 48 hstemhm
          35 76 callsubr
          -45 callgsubr
          hintmask 01111100
          -93 callgsubr
          hintmask 10111100
          -89 callsubr
          -224 321 -43 callsubr
        </CharString>
        <CharString name="ampersand">
          83 9 -21 33 -21 588 55 hstemhm
          -17 66 78 65 146 64 hintmask 10111100
          408 288 rmoveto
          -5 -22 -6 -20 -9 -17 -4 -9 -9 -17 -15 -25 -102 178 rcurveline
          85 44 41 44 15 71 rrcurveto
          2 8 1 8 9 vvcurveto
          27 -7 23 -13 18 vhcurveto
          23 -17 -26 12 -35 hhcurveto
          -45 -38 -14 -28 -33 hvcurveto
          -30 -25 -19 -31 -8 -37 rrcurveto
          -3 -13 -1 -11 -10 vvcurveto
          -25 13 -34 26 -43 vhcurveto
          -99 -49 -60 -64 -19 -79 rrcurveto
          -3 -14 -2 -15 -17 vvcurveto
          -97 55 -49 109 78 65 27 55 53 vhcurveto
          hintmask 01111100
          41 -70 rlineto
          86 hlineto
          -75 124 33 45 25 54 18 65 rlinecurve
          -133 242 rmoveto
          -57 -36 -43 -71 -31 vhcurveto
          -26 37 -13 30 25 vvcurveto
          6 0 7 1 7 vhcurveto
          1 16 10 16 17 17 rrcurveto
          19 21 23 9 26 hhcurveto
          12 10 -5 -9 9 hvcurveto
          11 -11 5 -15 -18 vvcurveto
          -27 -412 rmoveto
          -27 -27 -29 -20 -33 -13 -26 -10 -22 -4 -18 3 rrcurveto
          -71 10 -36 33 56 vvcurveto
          39 15 37 29 33 vhcurveto
          25 29 33 23 40 17 rrcurveto
          endchar
        </CharString>
        <CharString name="anoteleia">
          -222 327 126 hstem
          45 127 vstem
          172 390 rmoveto
          35 -28 28 -35 -36 -28 -28 -35 -36 28 -27 36 35 28 28 35 vhcurveto
          endchar
        </CharString>
        <CharString name="aogonek">
          101 -222 56 158 58 288 59 2 -20 hstemhm
          31 68 273 49 hintmask 11011100
          74 callsubr
          hintmask 11101100
          68 -21 -46 34 -71 hhcurveto
          -63 -54 -19 -39 -44 hvcurveto
          -41 -36 -26 -47 -12 -58 13 callgsubr
          -17 -17 vvcurveto
          -45 13 -37 26 -28 vhcurveto
          -30 29 -26 callgsubr
          34 8 15 32 hvcurveto
          37 17 27 25 19 33 -1 -27 10 -24 19 -20 rrcurveto
          -4 hlineto
          -63 -48 -33 -51 -5 -54 -67 callgsubr
          15 7 21 13 25 vhcurveto
          14 25 15 20 17 17 5 -3 6 -3 5 -2 23 58 rcurveline
          -33 21 -16 34 48 vvcurveto
          10 1 15 3 20 vhcurveto
          3 23 8 23 14 24 20 35 27 27 34 19 rrcurveto
          hintmask 11011100
          -162 -152 rmoveto
          -9 -43 -21 -35 -32 -27 rrcurveto
          -27 -31 -35 -13 -39 hhcurveto
          -64 -39 42 65 13 1 13 3 14 hvcurveto
          9 39 20 33 32 27 rrcurveto
          hintmask 11101100
          28 33 32 14 32 hhcurveto
          65 46 -51 -64 -9 -1 -10 -2 -9 hvcurveto
          endchar
        </CharString>
        <CharString name="approxequal">
          381 154 48 -35 -21 75 47 50 47 19 48 10 -20 hstemhm
          hintmask 10110100
          734 442 rmoveto
          -51 -73 -61 -26 -49 hhcurveto
          -33 -46 11 22 -61 hvcurveto
          hintmask 10111000
          23 -60 -47 11 -33 hhcurveto
          -58 -62 -24 -47 -66 hvcurveto
          -53 vlineto
          43 27 30 18 16 7 rrcurveto
          16 33 33 8 31 hhcurveto
          33 46 -11 -22 60 hvcurveto
          -22 61 47 -11 33 hhcurveto
          53 61 23 46 69 hvcurveto
          hintmask 10110100
          -108 vmoveto
          -51 -76 -61 -26 -46 hhcurveto
          -33 -47 11 22 -60 hvcurveto
          22 -59 -46 11 -32 hhcurveto
          -59 -63 -23 -45 -67 hvcurveto
          hintmask 01111000
          -54 vlineto
          39 25 29 17 20 9 rrcurveto
          16 34 33 8 31 hhcurveto
          32 46 -11 -23 60 hvcurveto
          hintmask 10111000
          -22 60 46 -11 32 hhcurveto
          63 63 24 47 61 hvcurveto
          endchar
        </CharString>
        <CharString name="aring">
          86 -54 callgsubr
          62 96 callgsubr
          hstemhm
          35 69 96 35 118 35 -12 49 hintmask 1011111100000000
          -45 callgsubr
          hintmask 0111111010000000
          -93 callgsubr
          hintmask 1011111010000000
          -89 callsubr
          -99 264 rmoveto
          hintmask 1011111100000000
          -24 callsubr
        </CharString>
        <CharString name="aringacute">
          101 -54 callgsubr
          63 96 callgsubr
          214 -20 hstemhm
          31 69 116 35 121 32 -32 49 hintmask 1011111110000000
          390 858 rmoveto
          -81 -174 48 -16 96 167 rlineto
          61 -436 rmoveto
          -48 -15 -44 -44 -8 -45 rrcurveto
          -98 callgsubr
          rrcurveto
          hintmask 0111111101000000
          -93 callgsubr
          hintmask 1011111110000000
          -89 callsubr
          -79 265 5 callgsubr
          79 104 rmoveto
          -36 -35 -34 -36 -28 -19 19 27 36 35 34 36 28 19 -19 -27 vhcurveto
          endchar
        </CharString>
        <CharString name="asciicircum">
          61 265 -21 382 -20 hstem
          274 626 rmoveto
          -48 hlineto
          -177 -382 rlineto
          63 hlineto
          138 311 138 -311 rlineto
          62 hlineto
          endchar
        </CharString>
        <CharString name="asciitilde">
          54 221 -21 hstem
          440 300 -72 callsubr
        </CharString>
        <CharString name="asterisk">
          55 268 -21 330 -20 hstem
          402 518 rmoveto
          -11 -12 -12 -10 -15 -8 -11 -7 -29 -15 -49 -24 14 69 13 45 11 21 rrcurveto
          -54 hlineto
          2 -8 1 -7 -7 vvcurveto
          -12 -7 -37 -14 -63 vhcurveto
          -50 31 -32 25 -14 19 -37 -48 rcurveline
          14 -1 13 -4 12 -7 7 -4 24 -15 39 -26 -66 -34 -44 -19 -23 -5 17 -49 rcurveline
          11 12 13 10 14 9 12 7 30 15 48 24 -10 -50 -6 -30 -3 -9 -4 -14 -7 -16 -9 -17 rrcurveto
          54 hlineto
          -3 18 7 45 15 73 36 -23 22 -16 9 -7 9 -7 10 -10 9 -14 38 48 rcurveline
          -14 2 -13 4 -13 7 -7 4 -24 15 -40 25 50 26 29 15 8 3 13 6 16 5 19 4 rrcurveto
          endchar
        </CharString>
        <CharString name="at">
          496 -233 60 164 58 288 59 135 62 hstem
          46 72 80 65 276 49 241 66 vstem
          879 207 rmoveto
          11 40 5 38 35 vvcurveto
          186 -147 87 -177 -278 -247 -219 -287 -99 33 -78 66 -58 vhcurveto
          -57 64 85 -28 105 hhcurveto
          1 -2 6 20 9 42 -59 -4 -57 13 -57 31 rrcurveto
          -83 45 -41 72 101 vvcurveto
          237 207 209 236 144 124 -62 -151 -83 -60 -196 -106 13 vhcurveto
          -50 5 -25 30 54 vvcurveto
          16 2 18 5 20 vhcurveto
          12 55 33 51 55 45 7 62 rcurveline
          -56 -22 -39 -37 -21 -52 rrcurveto
          66 -23 -48 33 -75 hhcurveto
          -133 -109 -118 -130 -46 13 -37 25 -28 hvcurveto
          -31 28 39 -15 51 hhcurveto
          68 77 39 59 40 hvcurveto
          5 -63 37 -33 69 -3 122 -5 76 106 31 116 rrcurveto
          -343 -12 rmoveto
          -9 -43 -21 -35 -33 -27 rrcurveto
          -27 -33 -35 -14 -39 hhcurveto
          -64 -39 42 65 83 73 98 89 65 49 -51 -64 -9 -1 -9 -2 -9 hvcurveto
          endchar
        </CharString>
        <CharString name="atilde">
          86 -54 callgsubr
          hstemhm
          35 69 272 49 hintmask 10111000
          -45 callgsubr
          hintmask 01111000
          -93 callgsubr
          hintmask 10111000
          -89 callsubr
          136 370 -90 callgsubr
        </CharString>
        <CharString name="b">
          21 0 47 294 53 229 -20 hstem
          379 62 vstem
          437 192 rmoveto
          3 16 1 16 15 vvcurveto
          96 -60 59 -104 -51 -47 -21 -24 -20 vhcurveto
          8 39 23 106 18 78 15 51 rlinecurve
          -72 hlineto
          -4 -44 -14 -80 -25 -115 -42 -191 -23 -105 -4 -18 -9 -32 -6 -23 -4 -15 rrcurveto
          69 hlineto
          3 35 20 -28 33 -14 46 -1 rlinecurve
          62 -1 53 16 43 33 47 35 29 51 12 66 rrcurveto
          -63 2 rmoveto
          -89 -19 -70 -58 -80 hhcurveto
          -43 -33 16 32 -22 hvcurveto
          18 91 13 66 9 41 rrcurveto
          32 35 40 16 45 hhcurveto
          69 43 -43 -65 -13 -2 94 callsubr
        </CharString>
        <CharString name="backslash">
          -78 11 -21 642 -20 hstem
          316 -10 rmoveto
          -182 642 rlineto
          -53 hlineto
          182 -642 rlineto
          endchar
        </CharString>
        <CharString name="bar">
          -216 -207 -21 851 -20 hstem
          166 623 rmoveto
          35 callsubr
          endchar
        </CharString>
        <CharString name="beta">
          52 -187 -21 200 65 492 63 hstem
          391 68 vstem
          226 -8 rmoveto
          157 89 91 127 37 -12 32 -24 24 hvcurveto
          -21 21 -24 11 -27 2 rrcurveto
          63 32 32 51 69 vvcurveto
          73 -54 51 -81 -1 vhcurveto
          -99 -1 -65 -42 -29 -82 -29 -112 -22 -92 -15 -73 -55 -261 -30 -139 -5 -18 rrcurveto
          70 hlineto
          11 61 18 86 24 110 rrcurveto
          -38 31 43 -19 54 hhcurveto
          179 204 rmoveto
          -83 -11 -64 -56 -91 hhcurveto
          -57 1 -43 20 -27 39 37 186 24 111 12 35 23 65 42 33 61 2 rrcurveto
          48 1 32 -27 -48 vvcurveto
          -9 -1 -9 -2 -10 vhcurveto
          -15 -67 -55 -40 -94 -14 -12 -58 rcurveline
          17 40 35 8 31 hhcurveto
          60 35 -37 -60 -8 hvcurveto
          endchar
        </CharString>
        <CharString name="braceleft">
          -109 -229 61 737 60 hstemhm
          40 67 -25 68 hintmask 11010000
          295 629 rmoveto
          -25 -24 -11 -21 -23 hvcurveto
          -25 -23 -16 -29 -8 -37 -34 -160 rcurveline
          -68 -13 -44 -50 -44 hhcurveto
          -12 -57 rlineto
          37 18 -26 -53 -13 -1 -14 -3 -15 hvcurveto
          -34 -159 rlineto
          hintmask 11100000
          -3 -12 -1 -11 -11 vvcurveto
          -53 32 -35 41 vhcurveto
          55 hlineto
          13 61 rlineto
          -42 hlineto
          -21 -11 14 28 10 1 12 3 14 hvcurveto
          34 156 rlineto
          hintmask 11010000
          3 17 2 15 14 vvcurveto
          27 -6 22 -13 17 vhcurveto
          -9 13 -10 7 -10 2 -10 2 rcurveline
          17 5 19 11 19 17 28 26 18 33 8 40 34 157 rcurveline
          52 11 20 26 29 hhcurveto
          42 hlineto
          13 60 rlineto
          endchar
        </CharString>
        <CharString name="braceright">
          -109 -229 61 737 60 hstemhm
          176 68 -26 68 hintmask 11100000
          299 230 rmoveto
          -37 -18 26 52 13 1 13 3 14 hvcurveto
          34 160 rlineto
          hintmask 11010000
          3 12 1 12 11 vvcurveto
          53 -30 33 -43 vhcurveto
          -55 hlineto
          -13 -60 rlineto
          42 hlineto
          21 10 -14 -27 -11 -1 -12 -3 -14 hvcurveto
          -34 -157 rlineto
          hintmask 11100000
          -3 -13 -1 -12 -11 vvcurveto
          -28 8 -24 16 -19 vhcurveto
          11 -13 12 -8 11 -4 -10 -2 rcurveline
          -15 -3 -17 -10 -17 -18 -25 -26 -17 -34 -9 -43 -34 -156 rcurveline
          -52 -11 -19 -26 -29 hhcurveto
          -42 hlineto
          -13 -61 rlineto
          55 hlineto
          51 54 49 73 16 hvcurveto
          34 159 rlineto
          71 15 42 50 44 hhcurveto
          12 57 rlineto
          endchar
        </CharString>
        <CharString name="bracketleft">
          -83 -227 54 780 45 hstem
          181 652 rmoveto
          -186 -879 rlineto
          232 hlineto
          11 54 rlineto
          -175 hlineto
          166 780 rlineto
          174 hlineto
          10 45 rlineto
          endchar
        </CharString>
        <CharString name="bracketright">
          -54 -227 52 781 46 hstem
          127 652 rmoveto
          -9 -46 rlineto
          176 hlineto
          -166 -781 rlineto
          -176 hlineto
          -11 -52 rlineto
          232 hlineto
          186 879 rlineto
          endchar
        </CharString>
        <CharString name="breve">
          -32 465 36 86 -20 hstem
          374 587 -83 callsubr
          endchar
        </CharString>
        <CharString name="brokenbar">
          -200 5 -21 702 -20 hstem
          90 59 vstem
          149 686 rmoveto
          -59 -294 59 hlineto
          -114 vmoveto
          -59 -294 59 hlineto
          endchar
        </CharString>
        <CharString name="bullet">
          155 190 -21 337 -20 hstem
          466 337 rmoveto
          91 -78 78 -91 -91 -78 -78 -91 -92 77 -76 92 92 77 76 92 vhcurveto
          endchar
        </CharString>
        <CharString name="c">
          -80 -8 55 hstem
          35 63 vstem
          -75 callgsubr
          21 53 rlineto
          endchar
        </CharString>
        <CharString name="cacute">
          -80 -8 55 596 -20 hstem
          35 63 vstem
          -75 callgsubr
          -36 313 rmoveto
          -81 -174 48 -16 96 167 rlineto
          endchar
        </CharString>
        <CharString name="caron">
          -32 486 -21 155 -20 hstem
          393 620 -77 callsubr
        </CharString>
        <CharString name="ccaron">
          -80 -8 55 573 -20 hstem
          35 63 vstem
          -75 callgsubr
          81 290 -77 callsubr
        </CharString>
        <CharString name="ccedilla">
          -44 29 63 vstem
          202 -134 rmoveto
          10 17 5 16 16 vvcurveto
          25 -11 18 -21 13 vhcurveto
          10 13 4 7 -1 1 40 3 35 7 30 13 -7 53 rcurveline
          -19 -11 -29 -7 -40 -3 rrcurveto
          -69 -5 -47 51 68 vvcurveto
          52 callgsubr
          vhcurveto
          15 67 37 45 59 25 rrcurveto
          8 19 21 4 23 hhcurveto
          23 25 -4 -8 27 hvcurveto
          21 53 -35 10 -38 3 -40 -3 rlinecurve
          -55 -5 -46 -17 -38 -30 -40 -32 -26 -43 -12 -54 rrcurveto
          -4 -18 -2 -18 -17 vvcurveto
          -41 10 -35 20 -29 vhcurveto
          21 -31 30 -20 38 -8 74 callgsubr
          -2 -4 vhcurveto
          -19 -6 5 callsubr
        </CharString>
        <CharString name="ccircumflex">
          -80 -8 55 578 -20 hstem
          35 63 vstem
          -75 callgsubr
          94 171 -87 callgsubr
          rlineto
          endchar
        </CharString>
        <CharString name="cdotaccent">
          -80 -8 55 295 216 -94 94 hstemhm
          35 63 hintmask 11010000
          -75 callgsubr
          -32 183 rmoveto
          24 5 -16 21 -25 hhcurveto
          -33 -26 -27 -32 hvcurveto
          hintmask 10110000
          -23 13 -12 26 31 18 16 33 7 vhcurveto
          endchar
        </CharString>
        <CharString name="cedilla">
          -24 callgsubr
        </CharString>
        <CharString name="cedillacomb">
          -24 callgsubr
        </CharString>
        <CharString name="cent">
          -25 20 -21 609 -20 hstem
          45 63 vstem
          381 487 rmoveto
          -24 7 -23 3 -22 1 36 110 rcurveline
          -33 hlineto
          -36 -111 -10 -1 -113 -11 -82 -68 -23 -103 rlinecurve
          -4 -18 -2 -18 -17 vvcurveto
          -39 9 -33 17 -28 vhcurveto
          18 -30 25 -20 33 -9 -34 -102 rcurveline
          -1 5 0 11 11 6 0 1 vhcurveto
          32 97 11 -1 11 -1 11 1 rlinecurve
          24 1 22 3 19 5 11 3 14 6 19 7 -7 51 rcurveline
          -14 -35 -29 -7 -24 hhcurveto
          -9 -10 1 2 -9 hvcurveto
          97 291 22 -1 22 -3 23 -7 rlinecurve
          -193 -270 rmoveto
          -40 11 -20 32 52 vvcurveto
          13 1 12 3 13 vhcurveto
          17 79 55 56 77 11 rrcurveto
          endchar
        </CharString>
        <CharString name="ch202">
          -189 endchar
        </CharString>
        <CharString name="chi">
          39 -209 -21 hstem
          424 397 rmoveto
          -61 -83 -63 -83 -66 -84 -15 45 -14 45 -15 45 -19 58 -16 33 -11 8 -20 15 -26 5 -31 -4 -12 -57 rcurveline
          21 3 15 -2 10 -6 5 -3 10 -24 17 -46 19 -54 19 -54 19 -55 -100 -128 -81 -100 -61 -73 19 -11 18 -9 17 -8 127 165 71 90 13 17 18 -56 18 -56 19 -57 rrcurveto
          18 -51 17 -30 17 -9 13 -7 17 -4 20 -1 17 -1 11 2 6 4 10 49 rcurveline
          -1 1 -3 -1 -6 -1 rrcurveto
          -1 -8 -6 -1 -5 hhcurveto
          -9 -9 2 4 -8 hvcurveto
          -10 5 -17 36 -23 67 -1 2 -16 52 -33 101 41 51 74 96 108 139 rrcurveto
          endchar
        </CharString>
        <CharString name="circumflex">
          -58 483 -21 163 -20 hstem
          368 501 -87 callgsubr
          41 34 rlineto
          endchar
        </CharString>
        <CharString name="colon">
          -195 -35 85 270 85 hstem
          195 363 rmoveto
          21 4 -17 21 -21 hhcurveto
          -23 -24 -19 -23 -4 hvcurveto
          -24 -5 15 -19 23 hhcurveto
          23 24 19 24 5 hvcurveto
          -76 -356 rmoveto
          24 5 -16 19 -23 hhcurveto
          -21 -25 -19 -24 1 callsubr
          16 -19 21 hhcurveto
          23 25 21 21 4 hvcurveto
          endchar
        </CharString>
        <CharString name="colonmonetary">
          111 -98 -21 819 -20 hstem
          23 79 vstem
          542 616 rmoveto
          -5 -1 -17 3 -30 8 -39 9 -24 5 -10 1 12 59 rcurveline
          -54 hlineto
          -13 -60 -20 -1 -20 -3 -19 -5 rlinecurve
          15 69 rlineto
          -54 hlineto
          -19 -89 -115 -51 -71 -97 -28 -143 rlinecurve
          -5 -27 -3 -26 -26 vvcurveto
          -101 32 -73 65 -46 vhcurveto
          -30 -140 rlineto
          54 hlineto
          24 114 17 -6 19 -4 19 -2 rlinecurve
          -22 -102 rlineto
          54 hlineto
          22 101 9 1 25 4 41 8 rlinecurve
          39 7 21 4 3 -1 11 42 10 32 7 23 rrcurveto
          -49 hlineto
          -8 -17 -8 -13 -9 -7 -16 -13 -27 -7 -37 -2 114 536 rcurveline
          40 -2 25 -7 9 -11 rrcurveto
          3 -4 2 -5 -6 vvcurveto
          -21 49 vlineto
          3 44 4 31 4 18 rrcurveto
          -306 -570 rmoveto
          -19 4 -18 7 -16 10 105 492 rcurveline
          20 9 20 6 21 3 rrcurveto
          -210 -466 rmoveto
          -25 37 -12 47 57 vvcurveto
          104 44 102 80 64 vhcurveto
          endchar
        </CharString>
        <CharString name="comma">
          -248 -92 -21 134 -21 67 -20 hstem
          75 67 -58 callgsubr
        </CharString>
        <CharString name="commaaccent">
          -439 60 callgsubr
          hstemhm
          -59 117 -41 41 hintmask 11100000
          -55 -250 -37 callgsubr
          hintmask 11010000
          -18 callsubr
          5 -18 rlineto
          endchar
        </CharString>
        <CharString name="congruent">
          61 152 55 74 55 87 57 5 57 13 -20 hstemhm
          hintmask 11101000
          452 555 rmoveto
          -50 -28 -33 -25 -37 hhcurveto
          -17 -33 10 21 -49 hvcurveto
          hintmask 11110000
          21 -49 -36 10 -23 hhcurveto
          -28 -26 -11 -23 -24 hvcurveto
          -15 -13 -17 -23 -21 -33 33 -35 rcurveline
          17 27 14 18 10 9 rrcurveto
          18 18 20 9 21 hhcurveto
          13 23 -6 -13 31 hvcurveto
          -29 74 47 -14 19 hhcurveto
          50 43 33 65 35 hvcurveto
          hintmask 11101000
          1 -185 rmoveto
          -470 -55 470 hlineto
          -74 vmoveto
          -470 -55 470 hlineto
          endchar
        </CharString>
        <CharString name="copyright">
          293 -17 42 -42 176 350 38 101 44 hstemhm
          11 43 138 46 440 43 hintmask 10111110
          -33 callsubr
          -229 -140 rmoveto
          -3 -11 -3 -7 -4 -5 rrcurveto
          hintmask 01111110
          -10 -10 -18 -5 -27 hhcurveto
          -43 -36 18 36 -28 hvcurveto
          -26 33 -13 39 45 vvcurveto
          48 12 41 24 33 vhcurveto
          27 37 34 19 43 1 29 1 20 -4 11 -11 5 -10 2 -8 1 -6 rrcurveto
          31 hlineto
          -3 28 -2 20 11 vvcurveto
          -3 -11 2 5 -21 hvcurveto
          7 -28 -19 3 -10 hhcurveto
          -59 -47 -22 -43 -34 hvcurveto
          -32 -40 -16 -50 -61 vvcurveto
          -51 14 -45 28 -39 vhcurveto
          29 -41 39 -24 48 -9 44 -2 rcurveline
          23 3 15 3 9 2 19 5 12 3 4 -1 rrcurveto
          11 2 21 3 30 vhcurveto
          endchar
        </CharString>
        <CharString name="currency">
          61 112 45 -35 -21 392 47 11 -20 hstemhm
          34 58 318 56 hintmask 10011100
          466 326 rmoveto
          51 -15 44 -31 37 vhcurveto
          45 45 -8 7 -8 8 -8 7 rlinecurve
          -17 17 -9 8 1 1 -41 -51 rcurveline
          hintmask 10101100
          -38 28 -42 13 -45 -1 -48 -1 -42 -13 -35 -26 rrcurveto
          hintmask 01011100
          -41 51 1 -1 -9 -8 -17 -16 rlinecurve
          -15 -14 -8 -8 -1 -1 45 -45 rcurveline
          -31 -37 -15 -44 -51 vvcurveto
          -51 15 -44 31 -37 vhcurveto
          -45 -45 -1 -1 7 -9 17 -16 rlinecurve
          9 -7 8 -8 9 -7 41 51 rcurveline
          hintmask 10101100
          -27 37 41 -13 47 hhcurveto
          46 42 13 27 37 hvcurveto
          hintmask 01101100
          41 -51 3 2 8 8 14 13 rlinecurve
          17 15 8 9 -1 1 -45 45 rcurveline
          31 37 15 44 51 vvcurveto
          -56 -1 rmoveto
          -47 -16 -39 -32 -33 vhcurveto
          hintmask 10101100
          -33 -32 -37 -16 -42 hhcurveto
          -43 -37 16 32 -32 hvcurveto
          -31 33 -16 40 47 vvcurveto
          46 16 39 31 33 vhcurveto
          33 32 37 17 43 hhcurveto
          42 37 -17 -33 32 hvcurveto
          32 -33 16 -39 -46 vvcurveto
          endchar
        </CharString>
        <CharString name="d">
          41 85 callgsubr
          229 -20 hstemhm
          35 64 hintmask 10111000
          445 625 -1 callsubr
          hintmask 01111000
          -10 callgsubr
          hintmask 10111000
          -26 -13 -24 -6 -21 -21 callsubr
        </CharString>
        <CharString name="dagger">
          55 -207 -21 621 42 -42 238 hstemhm
          hintmask 11000000
          504 450 rmoveto
          -18 -7 -19 -5 -21 -1 -11 -1 -39 0 -69 -1 21 98 17 63 15 28 rrcurveto
          hintmask 10100000
          5 -9 -13 2 -17 hhcurveto
          -17 -13 -2 -5 -11 hvcurveto
          2 -8 1 -8 -9 vvcurveto
          -15 -10 -54 -20 -94 vhcurveto
          -69 -39 0 1 -10 hvcurveto
          -21 1 -17 5 -15 7 -14 -23 -5 -23 4 -23 92 callgsubr
          67 -1 -111 -520 rcurveline
          7 -101 47 101 111 520 66 1 38 0 10 -1 rlinecurve
          17 -1 19 -4 21 -7 7 10 5 12 3 14 3 12 0 11 -3 10 rrcurveto
          endchar
        </CharString>
        <CharString name="daggerdbl">
          46 -241 238 -43 43 396 42 -42 238 hstemhm
          hintmask 01100000
          222 -3 rmoveto
          -66 -1 -38 0 -10 1 -18 1 -19 4 -21 7 -7 -12 -5 -12 -2 -12 -2 -10 0 -11 2 -12 18 7 20 5 21 1 rrcurveto
          1 11 39 0 68 hhcurveto
          -26 -125 -7 -27 -9 -21 -10 -15 rlinecurve
          hintmask 10100000
          -5 9 12 -2 17 hhcurveto
          17 14 2 5 11 hvcurveto
          -3 21 1 22 4 24 2 15 8 41 14 66 69 -1 40 0 10 -1 20 -1 16 -5 16 -7 7 10 4 11 3 12 3 14 0 12 -3 10 -23 -7 -21 -4 -18 -1 rrcurveto
          -10 -1 -38 0 -66 1 82 396 rcurveline
          66 1 38 0 10 -1 18 -1 19 -4 21 -7 7 10 4 12 3 14 3 12 0 11 -3 10 -18 -7 -19 -5 -21 -1 -10 -1 -40 0 -69 -1 14 66 8 41 4 15 rrcurveto
          6 24 9 22 11 21 rrcurveto
          hintmask 10010000
          5 -9 -12 2 -17 hhcurveto
          -17 -14 -2 -5 -11 hvcurveto
          4 -15 1 -21 -5 -27 -26 -125 rcurveline
          -68 -39 0 1 -11 hvcurveto
          -20 1 -17 5 -16 7 -7 -12 -5 -11 -2 -10 -2 -12 -1 -12 3 -12 92 callgsubr
          66 -1 rrcurveto
          endchar
        </CharString>
        <CharString name="dcaron">
          41 85 callgsubr
          229 -20 64 -20 hstemhm
          35 64 hintmask 10111100
          613 669 rmoveto
          -81 -174 48 -16 96 167 rlineto
          -231 -21 -1 callsubr
          hintmask 01111100
          -10 callgsubr
          hintmask 10111100
          -26 -13 -24 -6 -21 -21 callsubr
        </CharString>
        <CharString name="dcroat">
          56 85 callgsubr
          60 52 -52 169 hstemhm
          11 64 hintmask 10110100
          461 508 rmoveto
          hintmask 10101100
          8 37 10 39 11 41 rrcurveto
          -69 hlineto
          hintmask 10110100
          -3 -38 -6 -39 -8 -40 rrcurveto
          -141 hlineto
          -11 -52 rlineto
          141 hlineto
          -17 -75 -9 -38 -1 -3 -13 33 -43 22 -45 1 -128 1 -92 -72 -28 -120 rrcurveto
          -4 -18 -2 -18 -17 vvcurveto
          -95 65 -65 104 46 40 17 33 35 vhcurveto
          hintmask 01110100
          -11 -42 rlineto
          66 hlineto
          6 29 6 28 5 27 26 127 18 88 10 50 23 107 rcurveline
          55 hlineto
          11 52 rlineto
          -161 -221 rmoveto
          -16 -72 -14 -63 -12 -53 rrcurveto
          hintmask 10110100
          -33 -34 -40 -18 -48 -21 callsubr
        </CharString>
        <CharString name="degree">
          -91 382 35 188 35 hstem
          40 56 156 56 vstem
          308 511 rmoveto
          38 -13 31 -26 24 vhcurveto
          24 -26 -32 12 -37 hhcurveto
          -37 -32 -12 -24 -26 hvcurveto
          -26 -24 -13 -31 -38 vvcurveto
          -39 13 -32 27 -24 vhcurveto
          -23 25 31 -11 38 hhcurveto
          76 58 50 79 hvcurveto
          -56 hmoveto
          -56 -33 -38 -45 -45 -33 38 56 56 33 38 45 45 33 -38 -56 vhcurveto
          endchar
        </CharString>
        <CharString name="delta">
          -10 -10 57 513 50 hstem
          24 66 16 58 190 64 vstem
          451 549 rmoveto
          -18 12 -24 12 -30 11 rrcurveto
          17 -45 -43 9 -39 hhcurveto
          -23 -22 -3 -6 -19 hvcurveto
          -55 -17 -27 -35 -51 vvcurveto
          -53 54 -38 59 -31 vhcurveto
          -46 -12 -41 -23 -35 -34 -35 -34 -23 -40 -9 -45 rrcurveto
          -4 -17 -2 -17 -15 vvcurveto
          -91 60 -58 101 63 55 22 45 46 vhcurveto
          46 45 23 53 63 vvcurveto
          63 -23 48 -46 32 vhcurveto
          -37 22 -37 22 -37 23 rrcurveto
          -55 35 -19 17 32 vvcurveto
          36 29 12 43 58 62 -21 -42 67 vhcurveto
          -69 -281 rmoveto
          -42 -16 -39 -31 -35 vhcurveto
          -35 -31 -37 -18 -41 hhcurveto
          -64 -44 35 64 13 2 14 3 15 hvcurveto
          9 39 23 36 35 31 rrcurveto
          31 35 34 16 32 hhcurveto
          21 -7 18 -10 15 -15 rrcurveto
          25 -23 12 -31 -39 vvcurveto
          endchar
        </CharString>
        <CharString name="delta.alt">
          34 0 47 -33 -21 471 52 hstemhm
          hintmask 01100000
          403 394 rmoveto
          -12 85 -42 41 -73 -4 -65 -3 -52 -39 -38 -74 47 -25 rcurveline
          9 15 8 14 8 15 23 29 27 15 32 1 49 2 26 -36 3 -73 -240 -308 rcurveline
          -15 -5 -24 1 -34 9 -13 -61 rcurveline
          hintmask 10100000
          5 33 37 2 41 hhcurveto
          323 hlineto
          -281 47 rmoveto
          184 248 37 -248 rlineto
          endchar
        </CharString>
        <CharString name="dialytika">
          -153 462 85 1 -20 hstemhm
          hintmask 10000000
          273 504 rmoveto
          -44 callgsubr
          hintmask 01000000
          -35 callsubr
          endchar
        </CharString>
        <CharString name="dieresis">
          -62 464 84 hstem
          256 506 rmoveto
          21 5 -15 21 -23 hhcurveto
          -23 -24 -21 -21 3 callgsubr
          24 hhcurveto
          23 23 21 21 4 hvcurveto
          177 hmoveto
          21 5 -15 21 -23 hhcurveto
          -23 -24 -21 -21 3 callgsubr
          24 hhcurveto
          23 23 21 21 4 hvcurveto
          endchar
        </CharString>
        <CharString name="dieresistonos">
          61 454 -21 29 85 76 -20 hstem
          422 504 rmoveto
          23 5 -15 20 -23 hhcurveto
          -21 -24 -20 -23 3 callgsubr
          21 hhcurveto
          24 23 21 21 4 hvcurveto
          -129 119 rmoveto
          -81 -174 46 -16 98 167 rlineto
          -157 -94 4 callgsubr
          -24 -24 -8 callgsubr
          15 -19 24 hhcurveto
          23 23 21 21 5 hvcurveto
          endchar
        </CharString>
        <CharString name="divide">
          155 10 113 105 55 105 114 hstem
          241 114 vstem
          355 444 rmoveto
          31 -27 27 -31 -29 -27 -27 -31 -29 27 -27 29 31 27 25 31 vhcurveto
          188 -161 rmoveto
          -494 -55 494 hlineto
          -188 -161 rmoveto
          29 -27 27 -31 -29 -27 -27 -29 -31 27 -26 29 32 26 25 32 vhcurveto
          endchar
        </CharString>
        <CharString name="dollar">
          47 -73 -21 105 -21 24 -21 753 -20 hstemhm
          386 75 hintmask 11011000
          494 634 rmoveto
          -5 -1 -17 4 -29 7 -31 8 -19 5 -6 1 19 88 rcurveline
          -33 hlineto
          -18 -83 rlineto
          -22 -13 -1 -1 -13 hvcurveto
          19 85 rlineto
          -33 hlineto
          -19 -90 -49 -4 -42 -15 -34 -27 rlinecurve
          -35 -29 -23 -38 -10 -47 rrcurveto
          -3 -13 -1 -13 -12 vvcurveto
          -71 41 -49 83 -27 vhcurveto
          -56 -259 -17 3 -15 6 -15 9 rlinecurve
          -8 5 -8 6 -9 8 -15 12 -7 12 1 11 rrcurveto
          -38 hlineto
          -13 -49 -8 -34 -3 -18 11 2 14 -2 18 -7 43 -17 33 -9 23 -1 -18 -83 rcurveline
          33 hlineto
          18 83 rlineto
          1 21 16 0 11 hhcurveto
          -19 -84 rlineto
          33 hlineto
          hintmask 10111000
          17 87 rlineto
          47 45 15 30 42 hvcurveto
          46 33 27 39 7 47 rrcurveto
          2 14 1 13 12 vvcurveto
          39 -12 33 -25 25 vhcurveto
          -21 21 -35 19 -47 17 53 246 rcurveline
          25 -7 18 -7 11 -9 6 -5 3 -13 -1 -21 rrcurveto
          38 hlineto
          10 49 7 33 3 18 rrcurveto
          -203 -274 rmoveto
          -19 5 -15 4 -11 4 49 229 rcurveline
          14 1 18 1 15 -2 rrcurveto
          -126 -217 rmoveto
          -26 11 -18 12 -10 11 -12 13 -5 18 2 21 5 60 48 46 61 19 rrcurveto
          125 -422 rmoveto
          -2 -29 -15 -26 -29 -23 -25 -21 -27 -12 -29 -5 46 216 rcurveline
          32 -13 21 -12 10 -11 13 -15 6 -21 -1 -28 rrcurveto
          -161 -123 rmoveto
          -2 -17 -16 -1 -15 hhcurveto
          54 254 17 -5 15 -5 12 -5 rlinecurve
          endchar
        </CharString>
        <CharString name="dotaccent">
          -79 464 94 hstem
          230 513 -61 callgsubr
        </CharString>
        <CharString name="dotbelowcomb">
          -439 -218 106 hstem
          -53 106 vstem
          53 -165 -78 callsubr
          endchar
        </CharString>
        <CharString name="dotlessi">
          -253 174 378 rmoveto
          1 12 -11 8 -15 -2 -18 -2 -29 -4 -40 -11 -5 71 callsubr
          37 11 4 hhcurveto
          5 2 -2 -5 -3 -11 -48 -23 -93 hvcurveto
          -24 -87 rlineto
          -13 -47 -6 -31 -17 vvcurveto
          -9 2 -4 4 -86 callgsubr
          -2 1 12 50 25 100 27 106 14 57 1 9 rrcurveto
          endchar
        </CharString>
        <CharString name="e">
          -5 callgsubr
          -92 callgsubr
          endchar
        </CharString>
        <CharString name="eacute">
          -5 callgsubr
          249 -20 -92 callgsubr
          67 304 rmoveto
          -81 -174 48 -16 96 167 rlineto
          endchar
        </CharString>
        <CharString name="ebreve">
          -5 callgsubr
          71 36 86 -20 -92 callgsubr
          146 248 -83 callsubr
          endchar
        </CharString>
        <CharString name="ecaron">
          -5 callgsubr
          226 -20 -92 callgsubr
          148 281 -77 callsubr
        </CharString>
        <CharString name="ecircumflex">
          -5 callgsubr
          231 -20 -92 callgsubr
          169 162 -87 callgsubr
          rlineto
          endchar
        </CharString>
        <CharString name="edieresis">
          -5 callgsubr
          70 84 -92 callgsubr
          -22 167 rmoveto
          21 5 -15 21 -23 hhcurveto
          -23 -24 -21 -21 3 callgsubr
          24 hhcurveto
          23 23 21 21 4 hvcurveto
          177 hmoveto
          21 5 -15 21 -23 hhcurveto
          -23 -24 -21 -21 3 callgsubr
          24 hhcurveto
          23 23 21 21 4 hvcurveto
          endchar
        </CharString>
        <CharString name="edotaccent">
          -5 callgsubr
          70 94 -92 callgsubr
          67 174 -61 callgsubr
        </CharString>
        <CharString name="egrave">
          -5 callgsubr
          245 -20 -92 callgsubr
          -50 300 -52 callgsubr
          endchar
        </CharString>
        <CharString name="eight">
          96 -10 54 272 37 0 32 195 51 hstemhm
          39 66 278 63 -26 59 hintmask 11011010
          328 353 rmoveto
          43 -1 36 16 29 31 rrcurveto
          29 31 14 38 43 vvcurveto
          79 -45 40 -91 1 vhcurveto
          -56 -47 -16 -31 -39 hvcurveto
          -38 -31 -21 -35 -4 -40 -3 -34 5 -28 14 -23 rrcurveto
          -27 17 26 -13 35 hhcurveto
          -52 -3 -45 -22 -39 -43 rrcurveto
          -38 -43 -19 -47 -53 vvcurveto
          -43 13 -35 25 -27 vhcurveto
          -31 29 43 -16 57 hhcurveto
          69 1 58 20 45 39 rrcurveto
          hintmask 10111100
          45 40 23 54 67 vvcurveto
          80 -41 61 -77 1 vhcurveto
          hintmask 10111010
          92 155 rmoveto
          -33 -13 -29 -26 -25 vhcurveto
          -24 -26 -30 -12 -34 hhcurveto
          -31 -24 8 15 -17 hvcurveto
          -15 14 -7 18 22 vvcurveto
          34 14 29 28 23 vhcurveto
          21 27 31 11 35 hhcurveto
          59 29 -24 -48 hvcurveto
          hintmask 11011100
          -37 -297 rmoveto
          -46 -16 -39 -32 -33 vhcurveto
          -33 -31 -39 -16 -46 hhcurveto
          -38 -29 10 20 -20 hvcurveto
          -18 17 -9 24 29 vvcurveto
          46 17 40 35 34 vhcurveto
          35 35 40 17 47 hhcurveto
          67 37 -44 -61 hvcurveto
          endchar
        </CharString>
        <CharString name="eightinferior">
          -64 -15 36 callgsubr
          hstemhm
          73 37 156 36 hintmask 10101100
          319 264 -59 callsubr
          hintmask 11011100
          -49 callsubr
        </CharString>
        <CharString name="eightsuperior">
          -51 271 36 callgsubr
          hstemhm
          75 37 156 36 hintmask 10101100
          321 550 -59 callsubr
          hintmask 11011100
          -49 callsubr
        </CharString>
        <CharString name="ellipsis">
          443 -16 127 hstem
          110 132 173 132 163 132 vstem
          762 -16 rmoveto
          7 callsubr
          -295 hmoveto
          7 callsubr
          -305 hmoveto
          7 callsubr
          endchar
        </CharString>
        <CharString name="emacron">
          -5 callgsubr
          71 48 -92 callgsubr
          -133 174 -43 callsubr
        </CharString>
        <CharString name="emdash">
          283 212 61 hstem
          5 273 rmoveto
          -12 -61 rlineto
          724 hlineto
          12 61 rlineto
          endchar
        </CharString>
        <CharString name="endash">
          104 211 62 hstem
          7 273 rmoveto
          -14 -62 rlineto
          543 hlineto
          14 62 rlineto
          endchar
        </CharString>
        <CharString name="eng">
          -22 -202 -21 244 -21 352 51 hstem
          344 63 vstem
          392 188 rmoveto
          10 44 5 37 29 vvcurveto
          70 -33 35 -65 -35 -35 -8 -17 -37 vhcurveto
          -23 -11 -17 -10 -13 -11 10 36 rcurveline
          12 -12 7 -13 -1 vhcurveto
          -22 -1 -29 -6 -36 -10 -3 -35 4 -16 13 4 rrcurveto
          4 11 89 callsubr
          3 2 -1 -1 1 hvcurveto
          -35 -163 -26 -114 -16 -63 rrcurveto
          69 hlineto
          21 103 21 100 20 96 46 35 48 17 51 1 rrcurveto
          37 1 18 -20 -41 vvcurveto
          -7 -5 -33 -10 -61 vhcurveto
          -29 -172 -23 -106 -19 -40 -13 -27 -18 -15 -24 -3 -9 -1 -10 6 -12 12 -9 11 -10 10 -9 10 -17 91 callgsubr
          15 -6 7 -5 rrcurveto
          -2 7 9 -1 12 hhcurveto
          49 35 18 37 22 hvcurveto
          16 27 17 57 18 85 12 62 12 62 13 63 rrcurveto
          endchar
        </CharString>
        <CharString name="eogonek">
          -15 -222 56 350 53 98 59 hstem
          29 64 242 63 vstem
          398 311 rmoveto
          29 -15 22 -31 15 vhcurveto
          11 -23 -29 6 -33 hhcurveto
          11 callsubr
          -43 -37 -28 -46 -12 -56 rrcurveto
          -4 -26 callsubr
          -17 vvcurveto
          -40 10 -34 21 -27 vhcurveto
          23 -29 30 -19 39 -7 -45 -42 -24 -43 -4 -44 -67 callgsubr
          15 9 19 17 25 vhcurveto
          16 23 18 20 19 18 33 4 42 14 51 25 -17 callgsubr
          -33 -27 7 15 -22 hvcurveto
          -27 17 -13 26 34 vvcurveto
          13 2 13 3 14 vhcurveto
          3 8 rlineto
          -9 28 33 -4 37 hhcurveto
          29 27 3 7 25 hvcurveto
          39 11 31 17 21 24 rrcurveto
          18 21 9 21 23 vvcurveto
          -120 24 rmoveto
          38 19 -10 -21 -25 -25 -18 -50 -13 hvcurveto
          -7 -29 -25 -4 -19 hhcurveto
          -20 -34 7 1 -13 hvcurveto
          29 51 44 29 59 8 rrcurveto
          1 9 9 1 8 hhcurveto
          endchar
        </CharString>
        <CharString name="epsilon">
          -16 callgsubr
          hstemhm
          24 60 -8 62 hintmask 11101000
          -55 callsubr
          hintmask 11110000
          -85 callgsubr
          hintmask 11101000
          -60 callgsubr
          32 45 rlineto
          endchar
        </CharString>
        <CharString name="equal">
          283 143 49 124 49 hstem
          98 192 94 callgsubr
          -510 173 94 callgsubr
          endchar
        </CharString>
        <CharString name="equivalence">
          36 55 50 66 50 66 50 hstem
          cntrmask 11100000
          462 337 rmoveto
          -424 -50 424 hlineto
          -66 vmoveto
          -424 -50 424 hlineto
          -66 vmoveto
          -424 -50 424 hlineto
          endchar
        </CharString>
        <CharString name="estimated">
          395 -9 42 296 42 292 42 hstem
          13 168 482 162 vstem
          825 329 rmoveto
          -3 70 -13 59 -23 49 rrcurveto
          128 -61 -131 70 -176 hhcurveto
          -74 -68 -14 -27 -61 hvcurveto
          -129 -56 -73 -117 -143 vvcurveto
          -107 40 -88 81 -67 vhcurveto
          -63 75 93 -32 110 hhcurveto
          76 65 11 21 53 hvcurveto
          58 23 52 39 47 54 rrcurveto
          -102 hlineto
          -39 -38 -36 -26 -31 -15 rrcurveto
          -18 -37 -43 -9 -50 hhcurveto
          -93 -81 35 71 -70 hvcurveto
          190 vlineto
          42 vmoveto
          179 vlineto
          75 58 79 38 101 hhcurveto
          49 45 -9 -18 43 hvcurveto
          48 -20 36 -29 23 -37 rrcurveto
          -179 vlineto
          endchar
        </CharString>
        <CharString name="eta">
          -32 callsubr
          hstem
          378 67 vstem
          432 -106 callsubr
          78 369 rlineto
          endchar
        </CharString>
        <CharString name="eth">
          50 -27 callsubr
          248 -20 hstem
          27 62 292 64 vstem
          449 591 rmoveto
          -5 20 -4 11 -1 1 -135 -64 rcurveline
          -24 26 -28 26 -33 25 -8 6 rcurveline
          -43 -47 26 -17 26 -22 27 -27 rlinecurve
          -119 -56 3 -23 3 -11 1 1 rlinecurve
          136 64 41 -45 27 -41 14 -36 rlinecurve
          -21 7 -24 4 -29 1 -61 3 -53 -16 -47 -35 -44 -33 -28 -44 -13 -53 rrcurveto
          -4 -17 -2 -18 -17 vvcurveto
          -48 15 -41 30 -33 vhcurveto
          -33 30 41 -17 51 hhcurveto
          59 52 16 33 43 hvcurveto
          49 36 30 51 12 66 rrcurveto
          4 19 2 20 19 vvcurveto
          64 -23 71 -47 79 vhcurveto
          -13 21 -16 23 -20 24 rrcurveto
          51 -340 rmoveto
          -89 -21 -69 -58 -80 hhcurveto
          -69 -49 51 65 10 1 10 3 11 hvcurveto
          87 19 65 60 93 hhcurveto
          68 43 -44 -65 -12 -1 94 callsubr
        </CharString>
        <CharString name="exclam">
          -230 -19 72 487 -20 hstem
          156 540 rmoveto
          1 -3 0 -4 -5 vvcurveto
          -23 -11 -62 -21 -101 vhcurveto
          -31 -145 -19 -83 -7 -21 rrcurveto
          52 hlineto
          19 92 17 83 15 74 23 107 18 66 11 25 rrcurveto
          -110 -523 rmoveto
          20 4 -13 16 -19 hhcurveto
          -20 -20 -16 -20 -4 hvcurveto
          -20 -4 13 -16 20 hhcurveto
          19 52 callsubr
          endchar
        </CharString>
        <CharString name="exclamdbl">
          -84 -19 72 487 -20 hstem
          109 540 rmoveto
          1 -3 0 -4 -5 vvcurveto
          -23 -11 -62 -21 -101 vhcurveto
          -31 -145 -19 -83 -7 -21 rrcurveto
          52 hlineto
          19 92 17 83 15 74 23 107 18 66 11 25 rrcurveto
          -110 -523 rmoveto
          20 4 -13 16 -19 hhcurveto
          -20 -20 -16 -20 -4 hvcurveto
          -20 -4 13 -16 20 hhcurveto
          19 52 callsubr
          209 523 rmoveto
          1 -3 0 -4 -5 vvcurveto
          -23 -11 -62 -21 -101 vhcurveto
          -31 -145 -19 -83 -7 -21 rrcurveto
          52 hlineto
          19 92 17 83 15 74 23 107 18 66 11 25 rrcurveto
          -110 -523 rmoveto
          20 4 -13 16 -19 hhcurveto
          -20 -20 -16 -20 -4 hvcurveto
          -20 -4 13 -16 20 hhcurveto
          19 52 callsubr
          endchar
        </CharString>
        <CharString name="exclamdown">
          -230 -74 -21 487 72 hstem
          197 428 rmoveto
          20 4 -13 16 -20 hhcurveto
          -19 -20 -16 -20 -4 hvcurveto
          -20 -4 13 -16 19 hhcurveto
          20 52 callsubr
          -77 -76 rmoveto
          -2 -21 -16 -83 -31 -145 -25 -116 -17 -66 -11 -16 rrcurveto
          67 hlineto
          -2 25 11 66 23 107 31 149 19 83 5 17 rrcurveto
          endchar
        </CharString>
        <CharString name="f">
          -109 -221 53 507 49 194 52 hstem
          400 617 rmoveto
          -32 callgsubr
          10 callgsubr
          -4 -9 17 hvcurveto
          11 -7 10 -6 11 -7 7 35 5 22 2 11 rrcurveto
          endchar
        </CharString>
        <CharString name="ff">
          51 -224 58 -57 -20 583 46 258 -20 hstemhm
          hintmask 10110000
          327 539 10 callsubr
          138 105 rmoveto
          -43 -35 -54 callsubr
          75 -1 41 -3 5 -3 12 62 rcurveline
          -4 -45 -40 -2 -38 hhcurveto
          18 91 12 54 5 15 11 30 20 16 29 3 rrcurveto
          39 callgsubr
          7 -37 -27 8 -16 hhcurveto
          endchar
        </CharString>
        <CharString name="ffi">
          108 -224 58 -57 -20 583 51 253 -20 hstemhm
          hintmask 10110000
          569 613 rmoveto
          -21 7 -15 6 -7 5 rrcurveto
          9 -19 -21 4 -23 hhcurveto
          -43 -33 -54 callsubr
          -3 1 24 0 50 1 37 1 20 0 2 -3 2 -2 -11 -50 -24 -97 -24 -87 rcurveline
          -13 -47 -6 -31 -17 vvcurveto
          -9 2 -4 4 -86 callgsubr
          -3 1 10 45 23 88 27 102 16 63 4 24 1 12 -11 7 -15 -1 -16 -2 -12 -2 -9 -1 -56 -3 -42 -2 -29 -1 18 91 12 54 5 15 rrcurveto
          11 30 20 16 29 3 34 3 34 -19 33 -43 rrcurveto
          -225 4 10 callsubr
          -32 -153 rmoveto
          1 2 1 0 -1 -2 rrcurveto
          endchar
        </CharString>
        <CharString name="ffl">
          161 -203 -21 236 -21 350 48 255 -20 hstem
          622 612 rmoveto
          13 -12 8 -13 -3 vhcurveto
          -16 -1 -19 -2 -21 -5 rrcurveto
          15 -26 -26 7 -27 hhcurveto
          -42 -34 -13 -27 -25 hvcurveto
          -25 11 -18 9 -12 7 rrcurveto
          9 -19 -21 4 -23 hhcurveto
          -51 -37 -18 -37 -25 hvcurveto
          -20 -30 -21 -67 -21 -105 rrcurveto
          -29 -19 2 4 -9 hvcurveto
          -13 -58 9 3 21 2 31 1 rlinecurve
          -21 -115 -21 -114 -21 -115 -26 -114 -29 -55 -31 3 -15 1 -21 15 -28 29 84 callsubr
          8 -3 rrcurveto
          -4 8 10 -2 13 hhcurveto
          46 33 19 38 20 hvcurveto
          20 38 21 72 23 105 4 17 19 97 34 179 rrcurveto
          -1 71 52 0 35 hhcurveto
          -39 -213 -22 -115 -4 -16 -27 -113 -30 -55 40 callsubr
          21 -7 14 -6 7 -3 rrcurveto
          -4 7 10 -2 12 hhcurveto
          47 34 18 37 21 hvcurveto
          21 37 22 72 23 109 2 9 19 99 37 190 161 -3 rcurveline
          -7 -30 23 callsubr
          rlinecurve
          67 callsubr
          20 3 25 8 26 9 20 9 13 10 10 49 rcurveline
          -17 -34 -20 -8 -6 hhcurveto
          -2 -1 1 1 hvcurveto
          -1 5 20 84 39 163 29 120 22 102 13 83 rrcurveto
          -75 -72 rmoveto
          -5 -29 -10 -50 -15 -72 -55 -1 -54 1 -53 3 14 71 12 51 9 30 9 30 20 17 31 3 32 3 32 -18 33 -39 rrcurveto
          -219 -1 rmoveto
          -16 -63 -11 -50 -7 -36 rrcurveto
          -2 -22 -1 -1 -43 hvcurveto
          -1 -43 -30 -1 -19 hhcurveto
          19 93 10 50 3 9 11 34 22 19 31 3 32 3 32 -18 33 -40 rrcurveto
          endchar
        </CharString>
        <CharString name="fi">
          -45 -223 57 504 53 253 -20 hstem
          400 32 callgsubr
          -18 -27 -21 -68 -23 -111 55 callgsubr
          -21 -113 -20 -113 -21 -113 -25 -111 -28 -55 -33 2 -17 1 -22 14 -26 27 -17 -78 rcurveline
          -12 37 12 -9 22 hhcurveto
          48 34 18 37 21 hvcurveto
          21 37 22 70 23 105 6 29 19 98 32 165 -3 1 23 0 51 1 37 1 20 0 2 -3 1 -2 -11 -50 -23 31 callsubr
          24 9 19 9 14 10 10 49 rcurveline
          -37 -18 -21 -8 -5 3 -3 1 10 45 23 88 27 102 16 63 4 24 rrcurveto
          12 -12 7 -13 -1 vhcurveto
          -16 -2 -12 -2 -9 -1 -56 -3 -43 -2 -29 -1 19 91 12 54 5 15 11 30 19 16 29 75 callsubr
        </CharString>
        <CharString name="figuredash">
          61 213 58 hstem
          500 271 rmoveto
          -500 -58 500 hlineto
          endchar
        </CharString>
        <CharString name="five">
          96 -18 60 343 62 124 56 1 -20 hstemhm
          372 68 hintmask 11101000
          483 627 rmoveto
          -86 -4 -69 -2 -53 1 rrcurveto
          hintmask 11011000
          -41 1 -47 2 -51 3 rrcurveto
          -20 -17 -89 -34 -159 vhcurveto
          43 hlineto
          5 13 8 7 11 3 rrcurveto
          1 14 13 1 13 hhcurveto
          58 45 -13 -26 32 hvcurveto
          30 -24 15 -32 -41 vvcurveto
          -13 -1 -12 -3 -13 vhcurveto
          -11 -49 -26 -41 -42 -32 rrcurveto
          -31 -42 -46 -16 -51 hhcurveto
          -37 -38 8 15 -40 hvcurveto
          -34 -63 rlineto
          -13 40 45 -7 50 hhcurveto
          32 29 3 7 27 hvcurveto
          60 15 51 34 42 53 rrcurveto
          42 53 21 58 61 vvcurveto
          53 -18 42 -36 32 vhcurveto
          36 -41 -60 18 -80 hhcurveto
          -15 -15 -1 -1 -15 hvcurveto
          hintmask 11101000
          13 64 10 42 5 20 rrcurveto
          161 hlineto
          39 21 -3 -5 3 hvcurveto
          3 -5 2 -6 -1 -7 rrcurveto
          50 hlineto
          5 34 5 27 7 21 rrcurveto
          endchar
        </CharString>
        <CharString name="fiveeighths">
          368 -17 -21 34 36 callgsubr
          129 34 70 32 46 -20 hstemhm
          265 38 178 37 156 36 hintmask 1101011111100000
          327 621 rmoveto
          -49 -3 -39 -1 -29 1 rrcurveto
          -88 callsubr
          326 46 -65 callsubr
          71 -387 -59 callsubr
          hintmask 1110111111100000
          -49 callsubr
        </CharString>
        <CharString name="fiveinferior">
          -64 6 79 callgsubr
          hstem
          278 38 vstem
          340 348 rmoveto
          -49 -3 -39 -1 -29 1 rrcurveto
          -88 callsubr
          endchar
        </CharString>
        <CharString name="fivesuperior">
          -51 293 79 callgsubr
          -3 -20 hstemhm
          273 38 hintmask 11101000
          335 635 rmoveto
          hintmask 11011000
          -49 -3 -39 -1 -29 1 rrcurveto
          hintmask 11101000
          -88 callsubr
          endchar
        </CharString>
        <CharString name="fl">
          3 -202 -21 235 -21 354 48 237 -20 34 -20 hstemhm
          hintmask 11110000
          453 612 rmoveto
          1 13 -11 8 -15 -3 rrcurveto
          -15 -19 -3 -5 -21 hvcurveto
          hintmask 11101000
          15 -27 -26 7 -26 hhcurveto
          -51 -38 -18 -37 -24 hvcurveto
          -17 -26 -20 -66 -21 -106 55 callgsubr
          -43 -227 -21 -115 -1 -4 -27 -115 -30 -56 40 callsubr
          22 -7 15 -6 7 -5 rrcurveto
          -2 7 9 -1 11 hhcurveto
          48 34 18 37 21 hvcurveto
          21 37 22 72 23 109 1 8 19 99 37 190 205 -3 rcurveline
          7 49 -13 -7 -67 0 -123 7 rlinecurve
          15 71 12 50 9 30 9 30 20 17 30 3 32 3 33 -18 33 -39 -20 -93 -17 -75 -14 -58 23 callsubr
          rrcurveto
          67 callsubr
          20 3 25 8 26 9 20 9 13 10 10 49 rcurveline
          -17 -34 -22 callsubr
          36 149 22 101 9 55 rrcurveto
          endchar
        </CharString>
        <CharString name="florin">
          -147 -221 53 481 49 194 52 hstem
          347 591 rmoveto
          11 -59 -32 6 -5 hhcurveto
          -46 2 -35 -18 -25 -37 -9 -13 -8 -26 -7 -39 -7 -39 -7 -39 -7 -40 rrcurveto
          6 callgsubr
          27 3 20 2 14 1 rlinecurve
          -32 -171 -17 -92 -3 -11 -16 -77 -9 -41 -2 -5 -19 -57 -25 -28 -31 1 -26 1 -31 11 -35 21 -8 -35 -5 -23 -2 -11 7 -1 15 -3 24 -5 21 -5 17 -2 13 -1 rrcurveto
          59 -1 44 29 29 59 13 28 15 55 15 83 25 133 17 93 9 55 10 callgsubr
          -5 -9 17 hvcurveto
          11 -6 16 callgsubr
          endchar
        </CharString>
        <CharString name="four">
          96 0 216 -54 54 414 -20 hstemhm
          hintmask 01100000
          463 629 rmoveto
          1 -1 -6 0 -13 hhcurveto
          -12 1 -6 0 -1 -1 -29 -39 -70 -81 -111 -125 -47 -52 -53 -59 -59 -65 -10 -47 rcurveline
          107 1 85 0 63 -1 -15 -68 -8 -36 -1 -5 rrcurveto
          hintmask 10100000
          -2 -7 -8 -18 -14 -28 rrcurveto
          87 hlineto
          -1 27 1 22 3 16 21 96 rcurveline
          23 -1 20 -2 19 -5 15 72 rcurveline
          -28 -5 -22 -3 -15 1 29 137 30 137 29 137 rrcurveto
          -96 -151 rmoveto
          -26 -117 -19 -88 -12 -58 -33 -1 -60 1 -87 1 101 114 79 87 57 61 rrcurveto
          endchar
        </CharString>
        <CharString name="fourinferior">
          -64 20 -21 91 31 hstem
          296 353 -57 callsubr
          endchar
        </CharString>
        <CharString name="foursuperior">
          -51 300 -21 91 31 hstem
          309 633 -57 callsubr
          endchar
        </CharString>
        <CharString name="fraction">
          -272 4 -21 705 -20 hstem
          326 688 -65 callsubr
          endchar
        </CharString>
        <CharString name="franc">
          57 66 callsubr
          525 -38 callsubr
        </CharString>
        <CharString name="g">
          8 callsubr
          hstem
          46 63 vstem
          432 388 rmoveto
          -12 -66 -26 47 -40 24 -55 1 rlinecurve
          -62 1 -53 -16 -45 -33 -47 -34 -29 -48 -12 -61 rrcurveto
          -3 -15 -2 -16 -15 vvcurveto
          -48 15 -40 29 -31 vhcurveto
          30 -31 41 -16 52 1 67 1 51 23 35 45 -14 -66 -10 -43 -5 -19 rrcurveto
          -63 -17 -61 -40 -67 hhcurveto
          -59 -51 22 45 -43 hvcurveto
          -17 -78 22 -8 15 -6 7 -5 rlinecurve
          23 -12 31 -7 41 -3 111 -7 75 37 37 81 10 21 9 28 7 33 10 47 10 46 10 47 26 123 21 92 15 61 rrcurveto
          -111 -212 rmoveto
          -77 -25 -66 -51 -73 hhcurveto
          -71 -47 51 65 10 17 callsubr
          22 -60 callsubr
          42 hhcurveto
          73 43 -50 -71 -5 hvcurveto
          endchar
        </CharString>
        <CharString name="gamma">
          118 -216 -21 636 -20 hstem
          195 51 vstem
          524 399 rmoveto
          -15 -9 -33 -31 -52 -51 -70 -69 -61 -69 -53 -69 rrcurveto
          4 21 2 20 20 vvcurveto
          61 -16 52 -32 44 vhcurveto
          -29 40 -45 27 -62 13 -34 -42 rcurveline
          61 -19 45 -33 31 -45 rrcurveto
          20 -29 10 -44 -61 vvcurveto
          -21 -2 -17 -3 -13 vhcurveto
          -5 -28 -18 -38 -29 -47 -34 -55 -32 -59 -30 -63 60 -22 rcurveline
          58 125 67 111 77 95 54 68 55 61 56 53 24 23 33 28 43 35 rrcurveto
          endchar
        </CharString>
        <CharString name="gbreve">
          8 callsubr
          71 36 86 -20 hstem
          46 63 vstem
          432 388 rmoveto
          -12 -66 -26 47 -40 24 -55 1 rlinecurve
          -62 1 -53 -16 -45 -33 -47 -34 -29 -48 -12 -61 rrcurveto
          -3 -15 -2 -16 -15 vvcurveto
          -48 15 -40 29 -31 vhcurveto
          30 -31 41 -16 52 1 67 1 51 23 35 45 -14 -66 -10 -43 -5 -19 rrcurveto
          -63 -17 -61 -40 -67 hhcurveto
          -59 -51 22 45 -43 hvcurveto
          -17 -78 22 -8 15 -6 7 -5 rlinecurve
          23 -12 31 -7 41 -3 111 -7 75 37 37 81 10 21 9 28 7 33 10 47 10 46 10 47 26 123 21 92 15 61 rrcurveto
          -111 -212 rmoveto
          -77 -25 -66 -51 -73 hhcurveto
          -71 -47 51 65 10 17 callsubr
          22 -60 callsubr
          42 hhcurveto
          73 43 -50 -71 -5 hvcurveto
          55 367 -83 callsubr
          endchar
        </CharString>
        <CharString name="gcircumflex">
          8 callsubr
          231 -20 hstem
          46 63 vstem
          432 388 rmoveto
          -12 -66 -26 47 -40 24 -55 1 rlinecurve
          -62 1 -53 -16 -45 -33 -47 -34 -29 -48 -12 -61 rrcurveto
          -3 -15 -2 -16 -15 vvcurveto
          -48 15 -40 29 -31 vhcurveto
          30 -31 41 -16 52 1 67 1 51 23 35 45 -14 -66 -10 -43 -5 -19 rrcurveto
          -63 -17 -61 -40 -67 hhcurveto
          -59 -51 22 45 -43 hvcurveto
          -17 -78 22 -8 15 -6 7 -5 rlinecurve
          23 -12 31 -7 41 -3 111 -7 75 37 37 81 10 21 9 28 7 33 10 47 10 46 10 47 26 123 21 92 15 61 rrcurveto
          -111 -212 rmoveto
          -77 -25 -66 -51 -73 hhcurveto
          -71 -47 51 65 10 17 callsubr
          22 -60 callsubr
          42 hhcurveto
          73 43 -50 -71 -5 hvcurveto
          73 281 -87 callgsubr
          rlineto
          endchar
        </CharString>
        <CharString name="gcommaaccent">
          71 -222 52 0 162 0 -27 callgsubr
          0 76 180 -20 hstemhm
          50 63 hintmask 01010110
          436 388 rmoveto
          -12 -66 -26 47 -40 24 -55 1 rlinecurve
          -62 1 -53 -16 -45 -33 -47 -34 -29 -48 -12 -61 rrcurveto
          -3 -15 -2 -16 -15 vvcurveto
          -48 15 -40 29 -31 vhcurveto
          30 -31 41 -16 52 1 67 1 51 23 35 45 -14 -66 -10 -43 -5 -19 rrcurveto
          -63 -17 -61 -40 -67 hhcurveto
          -59 -51 22 45 -43 hvcurveto
          -17 -78 22 -8 15 -6 7 -5 rlinecurve
          hintmask 10110110
          23 -12 31 -7 41 -3 111 -7 75 37 37 81 10 21 9 28 7 33 10 47 10 46 10 47 26 123 21 92 15 61 rrcurveto
          -111 -212 rmoveto
          -77 -25 -66 -51 -73 hhcurveto
          -71 -47 51 65 10 17 callsubr
          22 -60 callsubr
          42 hhcurveto
          73 43 -50 -71 -5 hvcurveto
          hintmask 10101110
          -84 250 20 callgsubr
        </CharString>
        <CharString name="gdotaccent">
          8 callsubr
          70 94 hstem
          46 63 vstem
          432 388 rmoveto
          -12 -66 -26 47 -40 24 -55 1 rlinecurve
          -62 1 -53 -16 -45 -33 -47 -34 -29 -48 -12 -61 rrcurveto
          -3 -15 -2 -16 -15 vvcurveto
          -48 15 -40 29 -31 vhcurveto
          30 -31 41 -16 52 1 67 1 51 23 35 45 -14 -66 -10 -43 -5 -19 rrcurveto
          -63 -17 -61 -40 -67 hhcurveto
          -59 -51 22 45 -43 hvcurveto
          -17 -78 22 -8 15 -6 7 -5 rlinecurve
          23 -12 31 -7 41 -3 111 -7 75 37 37 81 10 21 9 28 7 33 10 47 10 46 10 47 26 123 21 92 15 61 rrcurveto
          -111 -212 rmoveto
          -77 -25 -66 -51 -73 hhcurveto
          -71 -47 51 65 10 17 callsubr
          22 -60 callsubr
          42 hhcurveto
          73 43 -50 -71 -5 hvcurveto
          -47 293 -61 callgsubr
        </CharString>
        <CharString name="germandbls">
          88 -10 49 -19 -21 hstemhm
          226 58 54 60 -18 59 hintmask 01101000
          439 537 rmoveto
          2 30 -9 25 -20 20 -23 24 -35 12 -46 -1 -69 -1 -51 -30 -31 -57 -17 -30 -16 -55 -16 -80 -33 -1 -22 2 -9 5 -13 -58 rcurveline
          11 3 22 2 35 1 -39 -188 -26 -116 -15 -45 rrcurveto
          68 hlineto
          9 57 21 104 32 151 23 111 17 68 9 26 18 47 33 27 48 6 rrcurveto
          47 7 36 -23 -41 vvcurveto
          -19 -7 -22 -14 -24 vhcurveto
          -7 -13 -20 -22 -33 -32 rrcurveto
          -60 -59 -13 -38 -36 vvcurveto
          -29 13 -27 25 -23 vhcurveto
          hintmask 10110000
          33 -27 41 -28 -28 vvcurveto
          -22 -11 -18 -21 -14 vhcurveto
          -13 -19 -20 -6 -23 hhcurveto
          -36 -29 14 27 -21 hvcurveto
          -26 hlineto
          -14 39 callsubr
          12 hhcurveto
          88 52 34 67 15 hvcurveto
          1 8 1 8 7 vvcurveto
          27 -12 25 -24 23 vhcurveto
          -36 28 -42 25 36 vvcurveto
          18 8 21 17 24 vhcurveto
          25 24 24 24 24 25 rrcurveto
          hintmask 10101000
          35 37 19 41 3 45 rrcurveto
          endchar
        </CharString>
        <CharString name="grave">
          470 -5 callsubr
          301 639 -52 callgsubr
          endchar
        </CharString>
        <CharString name="gravecomb">
          27 callgsubr
        </CharString>
        <CharString name="greater">
          33 -16 -21 632 -20 hstem
          132 595 rmoveto
          -14 -76 186 -237 -287 -237 -19 -82 355 295 9 46 rlineto
          endchar
        </CharString>
        <CharString name="greaterequal">
          36 2 49 506 -20 hstem
          462 352 rmoveto
          -424 205 rlineto
          -56 vlineto
          359 -171 -359 -171 rlineto
          -56 vlineto
          424 205 rlineto
          -257 vmoveto
          -424 -49 424 hlineto
          endchar
        </CharString>
        <CharString name="greekmacron">
          -106 464 48 hstem
          46 512 -43 callsubr
        </CharString>
        <CharString name="guillemotleft">
          167 108 -21 398 -20 hstem
          310 317 2 callgsubr
          -447 -168 2 callgsubr
          endchar
        </CharString>
        <CharString name="guillemotright">
          167 108 -21 398 -20 hstem
          381 485 rmoveto
          -14 -58 142 15 callsubr
          -380 168 rmoveto
          -15 -58 143 15 callsubr
          endchar
        </CharString>
        <CharString name="guilsinglleft">
          -150 22 -21 398 -20 hstem
          38 231 2 callgsubr
          endchar
        </CharString>
        <CharString name="guilsinglright">
          -150 21 -21 398 -20 hstem
          87 398 rmoveto
          -14 -58 142 15 callsubr
          endchar
        </CharString>
        <CharString name="h">
          17 77 callgsubr
          51 221 -20 hstemhm
          340 65 hintmask 01111000
          -41 callgsubr
          hintmask 10111000
          32 callsubr
        </CharString>
        <CharString name="hbar">
          -19 77 callgsubr
          51 39 52 -52 182 hstemhm
          330 65 hintmask 01110100
          418 -39 callgsubr
          24 7 38 13 53 vhcurveto
          14 53 7 41 27 vvcurveto
          69 -34 35 -67 -65 -49 -17 -34 -32 vhcurveto
          20 90 rlineto
          134 hlineto
          11 52 rlineto
          -134 hlineto
          hintmask 01101100
          11 49 10 44 11 37 rrcurveto
          -70 hlineto
          hintmask 01110100
          -3 -31 -8 -44 -11 -55 rrcurveto
          -46 hlineto
          -11 -52 rlineto
          46 hlineto
          -9 -41 -7 -34 -6 -28 -35 -162 -25 -113 -16 -65 rrcurveto
          67 hlineto
          21 101 19 97 19 93 15 11 14 10 14 11 rrcurveto
          20 32 32 10 31 hhcurveto
          37 19 -25 -49 -21 -4 -29 -8 -39 hvcurveto
          -6 -27 -6 -28 -7 -27 rrcurveto
          -9 -45 -5 -31 -18 vvcurveto
          hintmask 10110100
          32 callsubr
        </CharString>
        <CharString name="hcircumflex">
          17 77 callgsubr
          51 221 -20 227 -20 hstemhm
          340 65 hintmask 01111100
          -41 callgsubr
          hintmask 10111100
          -12 -42 callsubr
          rrcurveto
          -30 676 rmoveto
          1 -26 20 41 -51 hvcurveto
          -51 41 -26 21 1 1 55 callsubr
          rcurveline
          29 -39 rlineto
          70 109 56 35 1 hhcurveto
          121 -100 rlineto
          endchar
        </CharString>
        <CharString name="hookabovecomb">
          -274 479 -21 193 -20 hstem
          110 43 vstem
          151 585 rmoveto
          -53 callgsubr
        </CharString>
        <CharString name="hungarumlaut">
          -287 469 -5 callsubr
          246 638 rmoveto
          -44 -174 50 -16 62 167 rlineto
          -176 23 rmoveto
          -44 -174 50 -16 62 167 rlineto
          endchar
        </CharString>
        <CharString name="hyphen">
          -126 183 54 hstem
          49 237 rmoveto
          -12 -54 rlineto
          228 hlineto
          12 54 rlineto
          endchar
        </CharString>
        <CharString name="i">
          -220 462 95 hstem
          224 509 -23 callsubr
          -131 rmoveto
          1 12 -11 8 -15 -2 -18 -2 -29 -4 -40 -11 -5 71 callsubr
          37 11 4 hhcurveto
          5 2 -2 -5 -3 -11 -48 -23 -93 hvcurveto
          -24 -87 rlineto
          -13 -47 -6 -31 -17 vvcurveto
          -9 2 -4 4 -86 callgsubr
          -2 1 12 50 25 100 27 106 14 57 1 9 rrcurveto
          endchar
        </CharString>
        <CharString name="iacute">
          -253 643 -20 hstem
          174 378 rmoveto
          1 12 -11 8 -15 -2 -18 -2 -29 -4 -40 -11 -5 71 callsubr
          37 11 4 hhcurveto
          5 2 -2 -5 -3 -11 -48 -23 -93 hvcurveto
          -24 -87 rlineto
          -13 -47 -6 -31 -17 vvcurveto
          -9 2 -4 4 -86 callgsubr
          -2 1 12 50 25 100 27 106 14 57 1 9 rrcurveto
          14 265 rmoveto
          -81 -174 48 -16 96 167 rlineto
          endchar
        </CharString>
        <CharString name="ibreve">
          -126 465 36 86 -20 hstem
          174 378 rmoveto
          1 12 -11 8 -15 -2 -18 -2 -29 -4 -40 -11 -5 71 callsubr
          37 11 4 hhcurveto
          5 2 -2 -5 -3 -11 -48 -23 -93 hvcurveto
          -24 -87 rlineto
          -13 -47 -6 -31 -17 vvcurveto
          -9 2 -4 4 -86 callgsubr
          -2 1 12 50 25 100 27 106 14 57 1 9 rrcurveto
          118 209 -83 callsubr
          endchar
        </CharString>
        <CharString name="icircumflex">
          -136 625 -20 hstem
          205 378 rmoveto
          1 12 -11 8 -15 -2 -18 -2 -29 -4 -40 -11 -5 71 callsubr
          37 11 4 hhcurveto
          5 2 -2 -5 -3 -11 -48 -23 -93 hvcurveto
          -24 -87 rlineto
          -13 -47 -6 -31 -17 vvcurveto
          -9 2 -4 4 -86 callgsubr
          -2 1 12 50 25 100 27 106 14 57 1 9 rrcurveto
          147 123 -87 callgsubr
          rlineto
          endchar
        </CharString>
        <CharString name="idieresis">
          -253 464 84 hstem
          174 378 rmoveto
          1 12 -11 8 -15 -2 -18 -2 -29 -4 -40 -11 -5 71 callsubr
          37 11 4 hhcurveto
          5 2 -2 -5 -3 -11 -48 -23 -93 hvcurveto
          -24 -87 rlineto
          -13 -47 -6 -31 -17 vvcurveto
          -9 2 -4 4 -86 callgsubr
          -2 1 12 50 25 100 27 106 14 57 1 9 rrcurveto
          -67 128 rmoveto
          21 5 -15 21 -23 hhcurveto
          -23 -24 -21 -21 3 callgsubr
          24 hhcurveto
          23 23 21 21 4 hvcurveto
          177 hmoveto
          21 5 -15 21 -23 hhcurveto
          -23 -24 -21 -21 3 callgsubr
          24 hhcurveto
          23 23 21 21 4 hvcurveto
          endchar
        </CharString>
        <CharString name="igrave">
          -253 639 -20 hstem
          174 378 rmoveto
          1 12 -11 8 -15 -2 -18 -2 -29 -4 -40 -11 -5 71 callsubr
          37 11 4 hhcurveto
          5 2 -2 -5 -3 -11 -48 -23 -93 hvcurveto
          -24 -87 rlineto
          -13 -47 -6 -31 -17 vvcurveto
          -9 2 -4 4 -86 callgsubr
          -2 1 12 50 25 100 27 106 14 57 1 9 rrcurveto
          -75 261 -52 callgsubr
          endchar
        </CharString>
        <CharString name="ij">
          -220 -202 -21 685 95 1 -20 hstemhm
          hintmask 11000000
          224 509 -23 callsubr
          -131 rmoveto
          1 12 -11 8 -15 -2 -18 -2 -29 -4 -40 -11 -5 71 callsubr
          37 11 4 hhcurveto
          5 2 -2 -5 -3 -11 -48 -23 -93 hvcurveto
          -24 -87 rlineto
          -13 -47 -6 -31 -17 vvcurveto
          -9 2 -4 4 -86 callgsubr
          -2 1 12 50 25 100 27 106 14 57 1 9 rrcurveto
          244 131 rmoveto
          hintmask 10100000
          25 5 -19 24 -24 hhcurveto
          -25 -28 -24 -25 -5 hvcurveto
          -24 -5 18 -22 24 hhcurveto
          25 29 22 24 5 hvcurveto
          -111 -121 rmoveto
          -10 -60 -18 -92 -27 -125 -31 -148 -18 -79 -4 -11 -11 -27 -19 -15 -25 -3 -9 -1 -10 6 -12 12 -9 11 -10 10 -9 10 -17 91 callgsubr
          15 -6 7 -5 rrcurveto
          -2 6 8 -1 10 hhcurveto
          47 35 18 37 25 hvcurveto
          12 19 12 36 13 53 2 9 12 57 23 105 34 161 21 92 8 23 rrcurveto
          endchar
        </CharString>
        <CharString name="imacron">
          -169 464 51 hstem
          174 378 rmoveto
          1 12 -11 8 -15 -2 -18 -2 -29 -4 -40 -11 -5 71 callsubr
          37 11 4 hhcurveto
          5 2 -2 -5 -3 -11 -48 -23 -93 hvcurveto
          -24 -87 rlineto
          -13 -47 -6 -31 -17 vvcurveto
          -9 2 -4 4 -86 callgsubr
          -2 1 12 50 25 100 27 106 14 57 1 9 rrcurveto
          142 137 76 callgsubr
        </CharString>
        <CharString name="infinity">
          239 42 53 -33 -21 227 52 hstemhm
          30 51 519 50 hintmask 10111000
          650 182 rmoveto
          79 -56 59 -79 -33 -32 -12 -23 -31 vhcurveto
          -11 -8 -26 -24 -42 -40 -41 39 -26 24 -12 8 rrcurveto
          24 -32 -32 12 -32 hhcurveto
          -79 -56 -59 -79 -84 51 -56 83 37 32 11 21 29 hvcurveto
          9 7 26 24 43 42 33 -33 33 -38 21 -12 rrcurveto
          hintmask 01111000
          -15 27 28 -8 30 hhcurveto
          77 61 53 88 hvcurveto
          -50 -3 rmoveto
          hintmask 10111000
          -55 -39 -29 -49 -23 -23 6 12 -21 vhcurveto
          -32 27 -24 23 -17 19 43 37 22 18 1 1 rrcurveto
          20 27 26 10 24 hhcurveto
          51 34 -37 -52 hvcurveto
          -292 3 rmoveto
          -35 -35 -21 -19 -6 -5 rrcurveto
          -19 -25 -26 -9 -27 hhcurveto
          -51 -36 33 51 49 33 39 49 26 26 -9 -19 27 hvcurveto
          endchar
        </CharString>
        <CharString name="integral">
          -144 -202 -21 867 -20 hstem
          378 32 callgsubr
          -11 -17 -10 -27 -10 -39 -5 -23 -9 -40 -11 -58 -44 -231 -24 -122 -3 -13 -31 -129 -31 -62 40 callsubr
          22 -7 15 -6 7 -5 rrcurveto
          -2 6 9 -1 11 hhcurveto
          47 35 18 37 22 hvcurveto
          24 40 25 81 25 121 20 105 20 104 19 105 16 81 12 53 7 23 9 29 20 17 30 75 callsubr
        </CharString>
        <CharString name="intersection">
          36 48 -21 449 45 hstem
          38 51 322 51 vstem
          462 335 rmoveto
          56 -22 46 -45 35 vhcurveto
          33 -41 -49 16 -57 hhcurveto
          -57 -48 -17 -33 -40 hvcurveto
          -43 -35 -22 -46 -55 vvcurveto
          -308 51 308 vlineto
          42 16 34 33 27 vhcurveto
          25 31 36 13 43 hhcurveto
          43 37 -12 -25 32 hvcurveto
          34 -27 17 -35 -42 vvcurveto
          -308 51 vlineto
          endchar
        </CharString>
        <CharString name="iogonek">
          -253 -222 56 638 95 hstem
          207 519 -23 callsubr
          -141 rmoveto
          1 12 -13 9 -13 -3 -18 -1 -29 -5 -40 -11 -5 71 callsubr
          37 11 4 hhcurveto
          5 2 -2 -5 -3 -11 -48 -23 -93 hvcurveto
          -8 -27 -8 -28 -7 -27 -12 -45 -6 -32 -1 -18 -56 -46 -30 -48 -5 -50 -67 callgsubr
          15 10 22 20 27 vhcurveto
          17 24 19 21 21 17 25 8 19 9 14 11 11 49 rcurveline
          -37 -18 -22 -8 -5 3 -2 1 12 50 25 100 27 106 14 57 1 9 rrcurveto
          endchar
        </CharString>
        <CharString name="iota">
          -242 179 -101 callgsubr
          endchar
        </CharString>
        <CharString name="iotadieresis">
          -247 462 85 1 -20 hstemhm
          hintmask 10000000
          266 504 rmoveto
          -44 callgsubr
          hintmask 01000000
          -35 callsubr
          83 -128 rmoveto
          1 12 -13 9 -13 -3 -18 -1 -29 -5 -40 -11 -5 -53 rcurveline
          1 6 2 4 13 hvcurveto
          4 10 89 callsubr
          5 2 -2 -5 -3 -11 -48 -23 -93 hvcurveto
          -24 -87 rlineto
          -13 -47 -6 -31 -17 vvcurveto
          -9 2 -4 4 -86 callgsubr
          -3 1 10 45 23 88 27 102 16 63 4 24 rrcurveto
          endchar
        </CharString>
        <CharString name="iotadieresistonos">
          -240 462 85 76 -20 hstem
          312 504 rmoveto
          23 5 -15 20 -23 hhcurveto
          -21 -24 -20 -23 3 callgsubr
          21 hhcurveto
          24 23 21 21 4 hvcurveto
          -129 119 rmoveto
          -81 -174 46 -16 98 167 rlineto
          -157 -94 4 callgsubr
          -24 -24 -8 callgsubr
          15 -19 24 hhcurveto
          23 23 21 21 5 hvcurveto
          85 -128 rmoveto
          1 12 -13 9 -13 -3 -18 -1 -29 -5 -40 -11 -5 -53 rcurveline
          1 6 2 4 13 hvcurveto
          4 10 89 callsubr
          5 2 -2 -5 -3 -11 -48 -23 -93 hvcurveto
          -24 -87 rlineto
          -13 -47 -6 -31 -17 vvcurveto
          -9 2 -4 4 -86 callgsubr
          -3 1 10 45 23 88 27 102 16 63 4 24 rrcurveto
          endchar
        </CharString>
        <CharString name="itilde">
          -75 194 378 rmoveto
          1 12 -11 8 -15 -2 -18 -2 -29 -4 -40 -11 -5 71 callsubr
          37 11 4 hhcurveto
          5 2 -2 -5 -3 -11 -48 -23 -93 hvcurveto
          -24 -87 rlineto
          -13 -47 -6 -31 -17 vvcurveto
          -9 2 -4 4 -86 callgsubr
          -2 1 12 50 25 100 27 106 14 57 1 9 rrcurveto
          182 188 -90 callgsubr
        </CharString>
        <CharString name="j">
          -208 -202 -21 686 95 hstem
          250 509 rmoveto
          25 5 -19 24 -24 hhcurveto
          -25 -28 -24 -25 -5 hvcurveto
          -24 -5 18 -22 24 hhcurveto
          25 29 22 24 5 hvcurveto
          -111 -121 rmoveto
          -10 -60 -18 -92 -27 -125 -31 -148 -18 -79 -4 -11 -11 -27 -19 -15 -25 -3 -9 -1 -10 6 -12 12 -9 11 -10 10 -9 10 -17 91 callgsubr
          15 -6 7 -5 rrcurveto
          -2 6 8 -1 10 hhcurveto
          47 35 18 37 25 hvcurveto
          12 19 12 36 13 53 2 9 12 57 23 105 34 161 21 92 8 23 rrcurveto
          endchar
        </CharString>
</ttFont>
